<?xml version="1.0" encoding="utf-8"?><svg xmlns="http://www.w3.org/2000/svg" xmlns:xlink="http://www.w3.org/1999/xlink"><symbol viewBox="0 0 57.599987 12.764065" id="button" xmlns="http://www.w3.org/2000/svg"><defs><clipPath id="aa"><path d="M0 0h45v10H0z"/></clipPath><clipPath id="ab"><path d="M441.996.16C409.586.164 138.09.133 105.727.133c-56.54 0-95.73 46.773-95.73 95.703l335.444.027c53.352 0 96.555-42.289 96.555-95.703z" clip-rule="evenodd"/></clipPath></defs><g clip-path="url(#aa)" transform="matrix(1.33333 0 0 -1.33333 -1.333 12.782)"><g clip-path="url(#ab)" transform="scale(.1)"><path d="M441.996.16C409.586.164 138.09.133 105.727.133c-56.54 0-95.73 46.773-95.73 95.703l335.444.027c53.352 0 96.555-42.289 96.555-95.703"/></g></g></symbol><symbol viewBox="0 0 47.999466 11.520308" id="label_1" xmlns="http://www.w3.org/2000/svg"><defs><clipPath id="ba"><path d="M0 0h36v10H0z"/></clipPath></defs><g clip-path="url(#ba)" transform="matrix(-1.33333 0 0 1.33333 48 -1.333)"><path d="M36 1.002L8.64 1C3.537 1 0 5.223 0 9.64h27.285C32.1 9.64 36 5.823 36 1.002" fill-rule="evenodd"/></g></symbol><symbol viewBox="0 0 80.000519 11.520308" id="label_2" xmlns="http://www.w3.org/2000/svg"><defs><clipPath id="ca"><path d="M0 0h61v10H0z"/></clipPath></defs><g clip-path="url(#ca)" transform="matrix(-1.33333 0 0 1.33333 81.333 -1.333)"><path d="M61 1.002L9.64 1C4.536 1 1 5.223 1 9.64h51.285C57.1 9.64 61 5.823 61 1.002" fill-rule="evenodd"/></g></symbol></svg>