<svg id="Layer_1" xmlns="http://www.w3.org/2000/svg" viewBox="0 0 65.3 65"><style>.st0{fill:none;stroke:url(#path-1_2_);stroke-width:4;stroke-miterlimit:10}.st1{fill:url(#Shape_1_)}</style><g id="Page-1"><g id="Social_icons" transform="translate(-360 -169)"><g id="Color" transform="translate(60 169)"><g id="Instagram" transform="translate(300)"><g id="back"><linearGradient id="path-1_2_" gradientUnits="userSpaceOnUse" x1=".5" y1="33" x2="64.5" y2="33" gradientTransform="matrix(1 0 0 -1 0 65.61)"><stop offset="0" stop-color="#e09b3d"/><stop offset=".3" stop-color="#c74c4d"/><stop offset=".6" stop-color="#c21975"/><stop offset="1" stop-color="#7024c4"/></linearGradient><path id="path-1_1_" class="st0" d="M2.5 32.6c0-16.6 13.4-30 30-30s30 13.4 30 30-13.4 30-30 30-30-13.5-30-30z"/></g><linearGradient id="Shape_1_" gradientUnits="userSpaceOnUse" x1="16.5" y1="33.1" x2="48.5" y2="33.1" gradientTransform="matrix(1 0 0 -1 0 65.61)"><stop offset="0" stop-color="#e09b3d"/><stop offset=".3" stop-color="#c74c4d"/><stop offset=".6" stop-color="#c21975"/><stop offset="1" stop-color="#7024c4"/></linearGradient><path id="Shape" class="st1" d="M32.5 16.6c-4.3 0-4.9 0-6.6.1-1.7.1-2.9.3-3.9.7-1.1.4-1.9 1-2.8 1.8-.9.9-1.4 1.8-1.8 2.8s-.7 2.2-.7 3.9c-.1 1.7-.1 2.3-.1 6.6s0 4.9.1 6.6c.1 1.7.3 2.9.7 3.9.4 1.1 1 1.9 1.8 2.8.9.9 1.8 1.4 2.8 1.8 1 .4 2.2.7 3.9.7 1.7.1 2.3.1 6.6.1s4.9 0 6.6-.1c1.7-.1 2.9-.3 3.9-.7 1.1-.4 1.9-1 2.8-1.8.9-.9 1.4-1.8 1.8-2.8.4-1 .7-2.2.7-3.9.1-1.7.1-2.3.1-6.6s0-4.9-.1-6.6c-.1-1.7-.4-2.9-.7-3.9-.4-1.1-1-1.9-1.8-2.8-.9-.9-1.8-1.4-2.8-1.8-1-.4-2.2-.7-3.9-.7-1.7-.1-2.3-.1-6.6-.1zm-1.4 2.8h1.4c4.3 0 4.8 0 6.5.1 1.6.1 2.4.3 3 .6.7.3 1.3.6 1.8 1.2.6.6.9 1.1 1.2 1.8.2.6.5 1.4.6 3 .1 1.7.1 2.2.1 6.5s0 4.8-.1 6.5c-.1 1.6-.3 2.4-.6 3-.3.7-.6 1.3-1.2 1.8-.6.6-1.1.9-1.8 1.2-.6.2-1.4.5-3 .6-1.7.1-2.2.1-6.5.1s-4.8 0-6.5-.1c-1.6-.1-2.4-.3-3-.6-.7-.3-1.3-.6-1.8-1.2-.6-.6-.9-1.1-1.2-1.8-.2-.6-.5-1.4-.6-3-.1-1.7-.1-2.2-.1-6.5s0-4.8.1-6.5c.1-1.6.3-2.4.6-3 .3-.7.6-1.3 1.2-1.8.6-.6 1.1-.9 1.8-1.2.6-.2 1.4-.5 3-.6 1.5 0 2.1-.1 5.1-.1zm9.9 2.7c-1.1 0-1.9.9-1.9 1.9 0 1.1.9 1.9 1.9 1.9s1.9-.9 1.9-1.9-.8-1.9-1.9-1.9zm-8.5 2.2c-4.5 0-8.2 3.7-8.2 8.2s3.7 8.2 8.2 8.2 8.2-3.7 8.2-8.2-3.7-8.2-8.2-8.2zm0 2.9c2.9 0 5.3 2.4 5.3 5.3s-2.4 5.3-5.3 5.3-5.3-2.4-5.3-5.3 2.4-5.3 5.3-5.3z"/></g></g></g></g></svg>