<svg id="Слой_1" xmlns="http://www.w3.org/2000/svg" viewBox="0 0 182.4 35.9"><style>.st0{fill:#fff}.st1{fill:#9d9e9e}</style><g id="Слой_x0020_1"><g id="_1649694642320"><path class="st0" d="M37.5 15.4c1.9 2.6 6.7 8.7 8.5 11h3.2v-18h-4.1v11.2c-1.6-1.9-7.4-9.8-8.6-11.2h-3.1v18h4.1v-11zM14.5 8.5v6.6c0 2-.1 4.3.3 6.2.9 3.3 3.6 5.6 7.6 5.6 4.1 0 6.8-2.3 7.6-5.6.5-2 .4-4.2.4-6.3V8.4h-4.1v9.4c0 2.6-.7 5.5-3.9 5.5s-3.9-2.9-3.9-5.5V8.4l-4 .1z"/><path class="st0" d="M4 16.4v-4.7h14.6V8.4H0v18h4v-6.7h7.3v-3.3H4zM72 19.4c.4-1.1.8-2.1 1.2-3.2.3-.8.8-2.5 1.2-3.2l2.3 6.4H72zm14.6 7h4.1v-5.9l6.9-12.1h-4.1l-4.8 8.4-4.5-8.4h-4.3l6.9 12.1v5.9h-.2zM56.5 18v-6.2c2.2 0 5.8-.4 5.8 3S59.1 18 56.5 18zm-4 0h-3.8v3.3h3.8v5.2h4.1v-5.1c1.4 0 3 .1 4.5-.2 3.7-.7 5.4-3.2 5.4-6.7 0-4.8-4.3-5.9-8.2-5.9h-5.7l-.1 9.4zm17.8 5.6c.1-.2.1-.3.2-.5.1-.3 0-.2.3-.3h7.3l1.3 3.7h4.3l-7.4-18h-3.9l-7.5 18h4.3l1.1-2.9z"/><path class="st1" d="M107.4 0h1.1v35.9h-1.1zM120.6 14.5c-.2.1.2.2-.2.1V13h-1.8v10.4h1.8c.4-2.6-.6-5.9.7-8 .5-.7 1.7-1.5 3-1 1 .3 1.9 1.3 1.8 2.5 0 .1 0 0 .1.2v6.3h1.8c0-.9-.2-5.8.1-6.2-.1-1.5 1.2-2.9 2.7-2.9 1.6-.1 2.8 1.1 2.8 2.7.2.5.1 5.9.1 6.4h1.8v-6.5c0-2-1.5-3.6-3-4-1.9-.5-4.4.3-5 1.7-.6-.3-1-1.9-3.5-1.9-1.4-.1-2.7.9-3.2 1.8zM162.3 17.5c.6-4.6 6.1-4.5 6.4 0h-6.4zm7.9 3.3c-2.5 0-1.6-.2-2.4.7-.3.3-.5.4-.8.5-.8.3-1.5.3-2.3.1-1.4-.4-2.3-1.9-2.3-3.1h8.1c.1-2.8-.7-5.6-3.8-6.2-6.9-1.3-8.3 8.4-3.1 10.5 2.7 1.1 6-.3 6.6-2.5zM139 18.5c-.2-2.2 1.1-4 3.1-4.2 2.2-.2 3.7 1.5 3.9 3.6.2 5.3-6.7 5.6-7 .6zm2.8-5.8c-6.9.9-6.1 11.6 1.2 11 4.8-.4 6.2-6.7 2.9-9.8-.8-.9-2.4-1.5-4.1-1.2zM176.8 21.6s-.1.3-.2-.1c-.1-.5-.7-1.6-1-2.2l-2-4.4c-1.1-2.4-.4-2-2.9-2 .5 1.2 1.2 2.6 1.8 3.8l2.7 5.8c.7 1.4.7 1 .3 1.9l-1.7 3.9h2l6.6-15.5h-2l-3.6 8.8zM151.2 13h-1.8v10.3h1.8c.1-1.9-.1-4.1 0-6 .3-4 5.6-4.2 5.7 0 .1 2 0 4 0 5.9h1.8c0-2.2-.1-4.5-.1-6.6.1-1.5-1.2-3.5-2.9-3.9-3-.8-4.3 1.5-4.6 1.7l.1-1.4z"/></g></g></svg>