<svg id="Layer_1" xmlns="http://www.w3.org/2000/svg" viewBox="0 0 103 103"><style>.st0{fill:#bfbfbf}</style><g id="Icon-User" transform="translate(278 278)"><path id="Fill-58" class="st0" d="M-255.6-185.1l-5-2.3c1.5-3.6 6.1-5.5 11.3-7.8 5-2.3 11.3-5 11.3-8.4v-4.6c-1.9-1.5-4.8-4.8-5.3-9.7-1.5-1.5-3.8-4.2-3.8-7.6 0-2.1.8-3.8 1.5-4.8-.4-2.3-1.3-6.9-1.3-10.5 0-11.6 8-19.1 20.6-19.1 3.6 0 8 1.1 10.3 3.6 5.7 1 10.3 7.8 10.3 15.5 0 5-.8 9.2-1.5 11.1.6 1.1 1.3 2.5 1.3 4.2 0 4-1.9 6.5-3.8 7.8-.4 4.8-3.1 8-4.8 9.4v4.6c0 2.9 5.3 4.8 10.1 6.7 5.7 2.1 11.6 4.2 13.4 9l-5.3 1.9c-.8-2.5-5.9-4.2-10.1-5.9-6.5-2.3-13.9-5-13.9-11.8v-7.6l1.3-.8c.2 0 3.8-2.5 3.8-7.3v-1.9l1.7-.6c.2-.2 1.9-1 1.9-3.6 0-.8-.6-1.7-.8-1.9l-1-1.3.4-1.5s1.5-4.6 1.5-10.9c0-5.3-2.9-10.1-6.1-10.1h-1.7l-.8-1.5c-.6-1.1-3.1-2.1-6.5-2.1-9.4 0-15.1 5-15.1 13.7 0 4 1.5 10.5 1.5 10.5l.4 1.5-1.1 1.1s-.8 1.1-.8 2.1c0 1.5 1.9 3.4 2.7 4.2l1.1.8v1.5c0 4.6 4 7.1 4 7.1l1.3.8v7.6c0 6.9-7.8 10.5-14.7 13.4-3.1 1.9-7.5 4-8.3 5.5"/></g></svg>