<svg id="Слой_1" xmlns="http://www.w3.org/2000/svg" xmlns:xlink="http://www.w3.org/1999/xlink" viewBox="0 0 60 60.4"><style>.st0{fill:#52aaec}.st1{clip-path:url(#SVGID_2_);fill:#fff}</style><path id="path-1_4_" class="st0" d="M0 30.4C0 13.8 13.4.4 30 .4s30 13.4 30 30-13.4 30-30 30-30-13.5-30-30z"/><defs><path id="SVGID_1_" d="M29.1 24.8l.1 1-1-.1c-3.8-.5-7.2-2.1-10-4.9l-1.5-1.4-.4 1c-.8 2.3-.3 4.7 1.3 6.3.8.9.7 1-.8.5-.5-.2-.9-.3-1-.2s.4 2.1.8 2.8c.5 1.1 1.7 2.1 2.9 2.7l1 .5h-1.2c-1.2 0-1.2 0-1.1.5.4 1.4 2.1 2.8 3.9 3.5l1.3.4-1.1.7c-1.7 1-3.7 1.5-5.6 1.6-.9 0-1.7.1-1.7.2 0 .2 2.6 1.4 4 1.9 4.5 1.4 9.8.8 13.8-1.6 2.8-1.7 5.7-5 7-8.2.7-1.7 1.4-4.9 1.4-6.4 0-1 .1-1.1 1.2-2.3.7-.7 1.3-1.4 1.5-1.6.2-.4.2-.4-.9 0-1.8.6-2 .6-1.2-.4.7-.7 1.4-1.9 1.4-2.3 0-.1-.3 0-.7.2s-1.2.5-1.8.7l-1.1.4-1-.7c-.6-.4-1.4-.8-1.8-.9-1.1-.3-2.7-.3-3.7.1-2.5.8-4.2 3.3-4 6z"/></defs><clipPath id="SVGID_2_"><use xlink:href="#SVGID_1_" overflow="visible"/></clipPath><path class="st1" d="M10 13.4h39v34H10z"/></svg>