<svg id="Слой_1" xmlns="http://www.w3.org/2000/svg" xmlns:xlink="http://www.w3.org/1999/xlink" viewBox="0 0 64.5 64.5"><style>.st0{display:none;clip-path:url(#SVGID_4_);fill:#52aaec}.st1{fill:none;stroke:#52aaec;stroke-width:4;stroke-miterlimit:10}.st2{fill:#52aaec}.st3{display:none;clip-path:url(#SVGID_6_);fill:#fff}</style><defs><path id="SVGID_2_" d="M2.3 32.3c0-16.6 13.4-30 30-30s30 13.4 30 30-13.4 30-30 30-30-13.4-30-30z"/></defs><clipPath id="SVGID_4_"><use xlink:href="#SVGID_2_" overflow="visible"/></clipPath><path class="st0" d="M-2.7-2.7h70v70h-70z"/><g><path id="SVGID_1_" class="st1" d="M2.3 32.3c0-16.6 13.4-30 30-30s30 13.4 30 30-13.4 30-30 30-30-13.4-30-30z"/></g><g><path id="SVGID_3_" class="st2" d="M31.4 26.7l.1 1-1-.1c-3.8-.5-7.2-2.1-10-4.9L19 21.3l-.4 1c-.8 2.3-.3 4.7 1.3 6.3.8.9.7 1-.8.5-.5-.2-.9-.3-1-.2s.4 2.1.8 2.8c.5 1.1 1.7 2.1 2.9 2.7l1 .5h-1.2c-1.2 0-1.2 0-1.1.5.4 1.4 2.1 2.8 3.9 3.5l1.3.4-1.1.7c-1.7 1-3.7 1.5-5.6 1.6-.9 0-1.7.1-1.7.2 0 .2 2.6 1.4 4 1.9 4.5 1.4 9.8.8 13.8-1.6 2.8-1.7 5.7-5 7-8.2.7-1.7 1.4-4.9 1.4-6.4 0-1 .1-1.1 1.2-2.3.7-.7 1.3-1.4 1.5-1.6.2-.4.2-.4-.9 0-1.8.6-2 .6-1.2-.4.7-.7 1.4-1.9 1.4-2.3 0-.1-.3 0-.7.2s-1.2.5-1.8.7l-1.1.4-1-.7c-.6-.4-1.4-.8-1.8-.9-1.1-.3-2.7-.3-3.7.1-2.5.8-4.2 3.3-4 6z"/><defs><path id="SVGID_5_" d="M31.4 26.7l.1 1-1-.1c-3.8-.5-7.2-2.1-10-4.9L19 21.3l-.4 1c-.8 2.3-.3 4.7 1.3 6.3.8.9.7 1-.8.5-.5-.2-.9-.3-1-.2s.4 2.1.8 2.8c.5 1.1 1.7 2.1 2.9 2.7l1 .5h-1.2c-1.2 0-1.2 0-1.1.5.4 1.4 2.1 2.8 3.9 3.5l1.3.4-1.1.7c-1.7 1-3.7 1.5-5.6 1.6-.9 0-1.7.1-1.7.2 0 .2 2.6 1.4 4 1.9 4.5 1.4 9.8.8 13.8-1.6 2.8-1.7 5.7-5 7-8.2.7-1.7 1.4-4.9 1.4-6.4 0-1 .1-1.1 1.2-2.3.7-.7 1.3-1.4 1.5-1.6.2-.4.2-.4-.9 0-1.8.6-2 .6-1.2-.4.7-.7 1.4-1.9 1.4-2.3 0-.1-.3 0-.7.2s-1.2.5-1.8.7l-1.1.4-1-.7c-.6-.4-1.4-.8-1.8-.9-1.1-.3-2.7-.3-3.7.1-2.5.8-4.2 3.3-4 6z"/></defs><clipPath id="SVGID_6_"><use xlink:href="#SVGID_5_" overflow="visible"/></clipPath><path class="st3" d="M12.3 15.3h39v34h-39z"/></g></svg>