<svg id="Слой_1" xmlns="http://www.w3.org/2000/svg" xmlns:xlink="http://www.w3.org/1999/xlink" viewBox="0 0 60.2 60.2"><style>.st0{fill:#5a7fa6}.st1{clip-path:url(#SVGID_5_)}.st2{clip-path:url(#SVGID_6_);fill:#fff}</style><path id="path-1_4_" class="st0" d="M.2 30.1c0-16.6 13.4-30 30-30s30 13.4 30 30-13.4 30-30 30-30-13.5-30-30z"/><defs><path id="SVGID_1_" d="M.2 60.1h52l8-60H.2z"/></defs><clipPath id="SVGID_2_"><use xlink:href="#SVGID_1_" overflow="visible"/></clipPath><g><defs><path id="SVGID_3_" d="M.2.1h60v60H.2z"/></defs><defs><path id="SVGID_4_" d="M31.8 39.9s.6-.1.9-.4c.3-.3.3-.8.3-.8s0-2.5 1.2-2.9 2.7 2.4 4.3 3.5c1.2.8 2.1.6 2.1.6l4.3-.1s2.2-.1 1.2-1.9c-.1-.1-.6-1.3-3.2-3.6-2.7-2.4-2.3-2 .9-6.3 2-2.6 2.8-4.1 2.5-4.8-.2-.6-1.7-.5-1.7-.5h-4.8s-.4 0-.6.1c-.3.2-.4.5-.4.5s-.8 2-1.8 3.7c-2.1 3.6-3 3.8-3.3 3.5-.8-.5-.6-2.1-.6-3.2 0-3.5.5-4.9-1-5.3-.5-.1-.9-.2-2.2-.2-1.7 0-3.2 0-4 .4-.5.3-1 .8-.7.9.3 0 1 .2 1.4.7.5.7.5 2.1.5 2.1s.3 4.1-.7 4.6c-.6.3-1.5-.4-3.4-3.6-1-1.7-1.7-3.5-1.7-3.5s-.1-.3-.4-.5-.7-.3-.7-.3h-4.6s-.7 0-.9.3 0 .8 0 .8 3.6 8.2 7.6 12.4c3.7 3.8 7.9 3.5 7.9 3.5h1.6v.3z"/></defs><clipPath id="SVGID_5_"><use xlink:href="#SVGID_3_" overflow="visible"/></clipPath><clipPath id="SVGID_6_" class="st1"><use xlink:href="#SVGID_4_" overflow="visible"/></clipPath><path class="st2" d="M9.2 17.1h42V45h-42z"/></g></svg>