<svg xmlns="http://www.w3.org/2000/svg" width="100mm" height="100mm" viewBox="0 0 10000 10000" shape-rendering="geometricPrecision" text-rendering="geometricPrecision" image-rendering="optimizeQuality" fill-rule="evenodd" clip-rule="evenodd"><defs><style>.fil1{fill:#fefefe;fill-rule:nonzero}.fil0{fill:url(#id0)}</style><linearGradient id="id0" gradientUnits="userSpaceOnUse" x1="1464.43" y1="8534.14" x2="8535.57" y2="1464.43"><stop offset="0" stop-color="#e111a0"/><stop offset="1" stop-color="#1e7df3"/></linearGradient></defs><g id="Слой_x0020_1"><g id="_2330757055840"><circle class="fil0" cx="5000" cy="5000" r="5000"/><path class="fil1" d="M5014 3972h-796l-10-2c-38 3-69 12-92 25-24 14-47 37-67 61 72 15 129 46 174 95 46 50 73 112 84 188 15 96 23 196 25 307 1 110-3 222-13 343 0 4 0 10-2 14-3 34-8 64-13 89-7 33-17 64-30 93l-4 12c-22 50-36 76-105 97l-8 1c-66 18-92 0-139-31l-2-2c-43-28-79-65-112-104-31-38-54-71-77-102l-6-10c-92-129-175-264-251-405-79-146-151-299-218-463l-3-10c-16-33-34-59-59-76l-5-6c-22-13-48-20-76-20h-2c-122-3-239-3-353-3-113 0-225 0-335 3-32 0-56 5-75 13-7 3-14 9-17 15-4 7-6 14-6 24 0 19 7 43 20 73 257 572 551 1205 957 1678 390 456 891 770 1576 737h2c71-4 116-14 139-37 21-20 31-60 36-125h-2c0-112 17-203 49-269 30-66 77-112 138-135 61-25 127-22 198 7 68 29 146 90 232 185 3 3 4 6 7 9 57 64 118 132 182 198 62 63 128 109 197 136 66 27 135 37 209 31h23c191 0 515 21 690 0h1c13-1 25-5 35-12 13-8 23-19 31-33 12-21 18-45 16-71 0-26-7-54-21-83-62-120-303-373-488-566-151-158-271-284-278-359-9-89 287-538 526-899 115-174 217-327 255-392 6-17 9-34 11-49 0-13-2-26-8-36-5-8-15-15-27-21-20-9-43-14-63-17h-1c-9-2-18-3-26-3h-33v-2h-769c-34-1-62 6-80 19-20 14-38 39-52 72-22 57-46 116-66 165-24 57-52 117-80 175l-5 7c-47 96-99 195-155 292-61 104-131 208-215 309-122 146-208 209-314 169-103-39-129-143-129-330v-810-3c-7-42-14-83-31-108-15-21-42-38-94-48zm-796-304h806c10 1 16 1 22 1 9 1 16 3 21 3 145 29 234 94 290 178 53 79 70 162 82 244v1c1 6 1 10 3 14v677c33-48 64-97 94-147 56-95 104-185 145-272l3-7c27-53 52-107 73-160 28-63 48-112 65-157 37-91 92-162 162-211 73-48 158-73 255-71h765c11 0 24 0 49 1 20 2 41 3 61 7 40 8 91 19 142 42 59 29 115 70 157 138 41 67 53 137 51 202-3 59-16 107-27 146-3 10-9 20-14 30-35 62-147 230-274 423-213 322-479 685-478 702 3 30 85 63 196 181 198 206 455 476 538 635 36 70 55 146 55 222 1 76-17 152-56 218-33 59-78 106-131 141-54 34-116 56-183 60h-706c-122 9-237-9-347-53-106-43-205-112-297-205-64-66-130-138-192-208l-7-7v-2c-32-34-59-61-82-80-4 24-6 54-6 90v8c-7 147-46 255-127 334-79 77-187 114-335 123h-2c-798 37-1375-320-1822-843-432-505-736-1161-1003-1752-30-67-44-130-46-192-1-70 16-133 52-191 36-57 88-100 151-129 56-24 120-37 193-38 111-2 223-3 340-3 116 0 236 0 359 3 90 1 173 27 244 74 4 3 8 6 11 9 68 49 121 116 159 202 2 4 5 10 6 14 63 155 131 300 204 435 60 112 123 217 189 316 3-58 4-112 3-163-1-91-9-179-22-266v-2c-2-16-4-26-7-28 0 0-5-2-17-3-19-5-57-12-103-36-55-27-108-75-136-154-54-152 35-258 70-298 40-47 87-95 152-132 64-36 140-60 235-63 6-1 12-1 17-1zm1158 1319c24 10 16 3 3-11-18 2-26 4-3 11zm-237-855v-1 1zm0-1v-4 4z"/></g></g></svg>