<svg id="Слой_1" xmlns="http://www.w3.org/2000/svg" viewBox="0 0 64.5 64.3"><style>.st0{fill:none;stroke:#5a7ea6;stroke-width:4;stroke-miterlimit:10}.st1{fill:#5a7ea6}</style><path id="SVGID_1_" class="st0" d="M2.3 32.3c0-16.6 13.4-30 30-30s30 13.4 30 30-13.4 30-30 30-30-13.4-30-30z"/><path id="SVGID_3_" class="st1" d="M33.9 42.1s.6-.1.9-.4c.3-.3.3-.8.3-.8s0-2.5 1.2-2.9 2.7 2.4 4.3 3.5c1.2.8 2.1.6 2.1.6L47 42s2.2-.1 1.2-1.9c-.1-.1-.6-1.3-3.2-3.6-2.7-2.4-2.3-2 .9-6.3 2-2.6 2.8-4.1 2.5-4.8-.2-.6-1.7-.5-1.7-.5h-4.8s-.4 0-.6.1c-.3.2-.4.5-.4.5s-.8 2-1.8 3.7c-2.1 3.6-3 3.8-3.3 3.5-.8-.5-.6-2.1-.6-3.2 0-3.5.5-4.9-1-5.3-.5-.1-.9-.2-2.2-.2-1.7 0-3.2 0-4 .4-.5.3-1 .8-.7.9.3 0 1 .2 1.4.7.5.7.5 2.1.5 2.1s.3 4.1-.7 4.6c-.6.3-1.5-.4-3.4-3.6-1-1.7-1.7-3.5-1.7-3.5s-.1-.3-.4-.5-.7-.3-.7-.3h-4.6s-.7 0-.9.3c-.2.3 0 .8 0 .8s3.6 8.2 7.6 12.4c3.7 3.8 7.9 3.5 7.9 3.5h1.6v.3z"/></svg>