<svg xmlns="http://www.w3.org/2000/svg" viewBox="0 0 65.333336 65.333336" height="65.333" width="65.333"><path d="M18.829 52.906a4.277 4.277 0 0 0-4.272 4.265 4.278 4.278 0 0 0 4.272 4.272 4.277 4.277 0 0 0 4.265-4.272 4.276 4.276 0 0 0-4.265-4.265zM55.75 22.958c.13.052.27.084.412.084a1.104 1.104 0 0 0 .754-.314l6.396-6.4a1.071 1.071 0 0 0 0-1.51 1.062 1.062 0 0 0-1.506 0L57.223 19.4v-2.76c0-7.646-6.218-13.864-13.864-13.864a1.065 1.065 0 1 0 0 2.129c6.47 0 11.736 5.265 11.736 11.734v2.76l-4.579-4.583a1.068 1.068 0 0 0-1.51 1.511l6.4 6.4c.1.1.214.178.345.23zm5.859 38.98a2.667 2.667 0 0 1-.64.38 1.064 1.064 0 0 0-.584 1.39 1.07 1.07 0 0 0 1.39.583c.428-.177.824-.41 1.177-.697a1.066 1.066 0 0 0 .156-1.5 1.06 1.06 0 0 0-1.5-.156zm2.015-4.069c-.588 0-1.068.474-1.068 1.068v1.058c0 .588.48 1.04 1.068 1.04.589 0 1.068-.504 1.068-1.092v-1.006c0-.594-.479-1.068-1.068-1.068zm-2.358-25.958a1.073 1.073 0 0 0 1.457-.39 1.07 1.07 0 0 0-.395-1.46 4.772 4.772 0 0 0-1.276-.5 1.072 1.072 0 0 0-1.277.804c-.13.572.223 1.144.802 1.275.24.058.475.146.689.27zM53.99 62.504h-1.062c-.59 0-1.063.48-1.063 1.068 0 .59.473 1.069 1.063 1.069h1.062a1.07 1.07 0 0 0 0-2.137zm3.65-30.932c.594 0 1.07-.473 1.07-1.068 0-.587-.476-1.061-1.07-1.061h-1.056a1.065 1.065 0 1 0 0 2.129zm5.985 5.099a1.07 1.07 0 0 0-1.068 1.068v1.057c0 .594.48 1.068 1.068 1.068.589 0 1.068-.474 1.068-1.068V37.74a1.07 1.07 0 0 0-1.068-1.068zm-10.218-5.1a1.06 1.06 0 0 0 1.062-1.067 1.06 1.06 0 0 0-1.062-1.061h-1.064a1.064 1.064 0 1 0 0 2.129zm11.212 1.746a1.057 1.057 0 0 0-1.233-.865 1.07 1.07 0 0 0-.865 1.235c.027.147.036.297.036.454v.42c0 .59.48 1.064 1.068 1.064.589 0 1.068-.474 1.068-1.064v-.42c0-.277-.026-.552-.074-.824zm-.994 7.594a1.07 1.07 0 0 0-1.068 1.068v1.057a1.067 1.067 0 1 0 2.136 0V41.98c0-.59-.479-1.068-1.068-1.068zm0 8.479a1.07 1.07 0 0 0-1.068 1.067v1.058a1.07 1.07 0 0 0 2.136 0v-1.058a1.07 1.07 0 0 0-1.068-1.067zm0 4.24a1.07 1.07 0 0 0-1.068 1.068v1.057c0 .588.48 1.068 1.068 1.068.589 0 1.068-.48 1.068-1.068v-1.057a1.07 1.07 0 0 0-1.068-1.068zm0-8.48a1.07 1.07 0 0 0-1.068 1.07v1.056c0 .594.48 1.067 1.068 1.067.589 0 1.068-.473 1.068-1.067v-1.057c0-.59-.479-1.068-1.068-1.068zm-5.396 17.354h-1.062c-.588 0-1.062.48-1.062 1.068 0 .59.474 1.069 1.062 1.069h1.062a1.069 1.069 0 0 0 0-2.137zm-13.3-30.932c.587 0 1.062-.473 1.062-1.068a1.06 1.06 0 0 0-1.063-1.061h-1.063a1.065 1.065 0 1 0 0 2.129zm4.822 30.932h-1.058a1.07 1.07 0 0 0-1.068 1.068c0 .59.48 1.069 1.068 1.069h1.058a1.07 1.07 0 0 0 1.067-1.07 1.07 1.07 0 0 0-1.067-1.067zm-9.064-30.932a1.065 1.065 0 1 0 0-2.13h-1.062a1.065 1.065 0 1 0 0 2.13zm8.48 0a1.065 1.065 0 1 0 0-2.13h-1.062a1.065 1.065 0 1 0 0 2.13zM45.51 62.504h-1.057a1.069 1.069 0 0 0 0 2.137h1.057a1.07 1.07 0 0 0 0-2.136zm-8.479 0h-.843c.005 0 .005-.004.005-.004.136-.204.246-.417.35-.64.02-.053.046-.105.067-.162.02-.047.047-.093.067-.146.011-.037.006-.079.016-.12a4.57 4.57 0 0 0 .265-1.489V31.421a1.06 1.06 0 0 0 .537-.912c0-.39-.223-.718-.537-.905V5.338A4.702 4.702 0 0 0 32.261.64H5.391A4.706 4.706 0 0 0 .692 5.338v54.605a4.706 4.706 0 0 0 4.697 4.698h27.402c.161 0 .313-.042.453-.11.62-.131 1.198-.39 1.703-.746.105.486.51.856 1.027.856h1.056a1.07 1.07 0 0 0 1.069-1.07 1.07 1.07 0 0 0-1.069-1.067zM2.83 9.171h32v40.538h-32zM5.39 2.777h26.871a2.569 2.569 0 0 1 2.568 2.561v1.704h-32V5.338A2.566 2.566 0 0 1 5.39 2.777zm26.871 59.727H5.391c-1.411 0-2.562-1.15-2.562-2.56v-8.106h32v8.105c0 .328-.074.64-.183.933a2.553 2.553 0 0 1-2.385 1.629zm9.01 0h-1.057a1.07 1.07 0 0 0 0 2.137h1.058a1.068 1.068 0 0 0 0-2.137zm15.952-4.265c-.588 0-1.06.48-1.06 1.068v1.069a1.064 1.064 0 1 0 2.128 0v-1.07a1.07 1.07 0 0 0-1.068-1.067zm1.068-3.197a1.064 1.064 0 1 0-2.129 0v1.068c0 .587.473 1.06 1.061 1.06.59 0 1.068-.473 1.068-1.06zm0-21.334c0-.59-.478-1.067-1.068-1.067-.588 0-1.06.478-1.06 1.067v1.068c0 .588.472 1.061 1.06 1.061.59 0 1.068-.473 1.068-1.061zm0 8.531a1.064 1.064 0 1 0-2.129 0v1.068a1.065 1.065 0 1 0 2.13 0zm0 4.266c0-.589-.478-1.062-1.068-1.062-.588 0-1.06.473-1.06 1.062v1.067c0 .59.472 1.068 1.06 1.068.59 0 1.068-.478 1.068-1.068zm0-8.531a1.065 1.065 0 0 0-2.129 0v1.068a1.064 1.064 0 1 0 2.13 0zm0 12.803a1.065 1.065 0 1 0-2.128 0v1.061a1.065 1.065 0 0 0 2.129 0zm-39.462 8.53a2.14 2.14 0 0 1-2.136-2.136c0-1.171.96-2.129 2.136-2.129 1.171 0 2.129.958 2.129 2.129a2.137 2.137 0 0 1-2.13 2.136" fill="#e22325"/></svg>