<svg xmlns="http://www.w3.org/2000/svg" viewBox="0 0 46.666668 46.666668" height="46.667" width="46.667"><path d="M41.325.883a4.811 4.811 0 0 1 3.066 1.403 4.807 4.807 0 0 1 1.415 3.406v35.25a4.807 4.807 0 0 1-1.415 3.406 4.806 4.806 0 0 1-3.406 1.416H5.735a4.807 4.807 0 0 1-3.406-1.416 4.808 4.808 0 0 1-1.415-3.406V5.692c0-1.327.542-2.533 1.415-3.406A4.81 4.81 0 0 1 5.734.871c11.862 0 23.73-.052 35.591.012zm-8.36 18.159c.588 0 1.061.473 1.061 1.067a1.06 1.06 0 0 1-1.06 1.062 1.06 1.06 0 0 1-1.069-1.062c0-.594.473-1.067 1.068-1.067zm0 6.401c.588 0 1.061.474 1.061 1.062a1.06 1.06 0 0 1-1.06 1.067 1.061 1.061 0 0 1-1.069-1.067 1.06 1.06 0 0 1 1.068-1.062zm-6.401-6.401a1.065 1.065 0 0 1 0 2.13 1.065 1.065 0 1 1 0-2.13zm0 6.401a1.065 1.065 0 1 1 0 2.13 1.066 1.066 0 1 1 0-2.13zm3.196-3.204a1.07 1.07 0 0 1 0 2.136 1.07 1.07 0 0 1-1.067-1.068c0-.588.48-1.068 1.067-1.068zm0 6.402a1.069 1.069 0 0 1 0 2.136 1.07 1.07 0 0 1-1.067-1.068c0-.59.48-1.068 1.067-1.068zm-6.4-6.402c.594 0 1.067.48 1.067 1.068a1.065 1.065 0 0 1-2.129 0c0-.588.474-1.068 1.062-1.068zm0 6.402c.594 0 1.067.478 1.067 1.068a1.065 1.065 0 0 1-2.129 0c0-.59.474-1.068 1.062-1.068zm3.204 3.197c.588 0 1.068.48 1.068 1.068a1.07 1.07 0 0 1-2.137 0c0-.588.48-1.068 1.069-1.068zm-6.401-12.796a1.065 1.065 0 0 1 0 2.13 1.066 1.066 0 1 1 0-2.13zm0 6.401a1.065 1.065 0 1 1 0 2.13 1.065 1.065 0 0 1 0-2.13zm-6.402-6.401a1.065 1.065 0 1 1 0 2.13 1.065 1.065 0 1 1 0-2.13zm0 6.401a1.064 1.064 0 1 1 0 2.13 1.065 1.065 0 1 1 0-2.13zm3.204-3.204c.588 0 1.061.48 1.061 1.068a1.064 1.064 0 1 1-2.129 0c0-.588.473-1.068 1.068-1.068zm0 6.402c.588 0 1.061.478 1.061 1.068a1.064 1.064 0 1 1-2.129 0c0-.59.473-1.068 1.068-1.068zm3.198 3.197c.588 0 1.068.48 1.068 1.068a1.07 1.07 0 0 1-2.137 0c0-.588.48-1.068 1.069-1.068zm6.401-19.197a1.07 1.07 0 0 1 1.068 1.068 1.07 1.07 0 0 1-1.068 1.068 1.069 1.069 0 0 1 0-2.136zm3.196 3.196a1.069 1.069 0 1 1-.001 2.136 1.069 1.069 0 0 1 .001-2.136zm-6.4 0c.594 0 1.067.48 1.067 1.069a1.065 1.065 0 1 1-2.129 0c0-.588.474-1.069 1.062-1.069zm-3.197-3.196a1.07 1.07 0 0 1 1.068 1.068 1.07 1.07 0 0 1-1.068 1.068 1.07 1.07 0 0 1-1.07-1.068c0-.59.482-1.068 1.07-1.068zm-3.198 3.196c.588 0 1.061.48 1.061 1.069a1.064 1.064 0 1 1-2.129 0c0-.588.473-1.069 1.068-1.069zm24.02-12.726H5.735c-.709 0-1.355.29-1.822.759a2.572 2.572 0 0 0-.76 1.822v35.25c0 .709.291 1.354.76 1.823a2.574 2.574 0 0 0 1.821.758h35.25c.71 0 1.355-.29 1.823-.758a2.575 2.575 0 0 0 .759-1.823V5.692c0-.709-.29-1.355-.759-1.822a2.574 2.574 0 0 0-1.822-.76" fill="#e22325"/></svg>