<svg xmlns="http://www.w3.org/2000/svg" viewBox="0 0 36 65.333336" height="65.333" width="36"><path d="M31.396 4.906h-6.968V.64H11.625v4.266H4.652A3.698 3.698 0 0 0 .958 8.605v52.342a3.697 3.697 0 0 0 3.694 3.694h26.744a3.702 3.702 0 0 0 3.698-3.694V8.605a3.703 3.703 0 0 0-3.698-3.7zm-6.054 20.96a1.12 1.12 0 0 1 1.584 1.585l-7.316 7.315 7.32 7.32a1.12 1.12 0 1 1-1.584 1.583l-7.32-7.319-7.32 7.32a1.12 1.12 0 1 1-1.583-1.584l7.32-7.32-7.316-7.315a1.12 1.12 0 1 1 1.583-1.584l7.316 7.316zM13.761 2.777h8.53v2.13h-8.53zM4.65 7.043h26.745c.86 0 1.562.697 1.562 1.563v52.342c0 .86-.702 1.557-1.562 1.557H4.59l-.014-.001-.03-.002-.016-.001h-.004l-.01-.002a1.537 1.537 0 0 1-.724-.252l-.012-.007a1.553 1.553 0 0 1-.687-1.287V8.605c0-.866.698-1.563 1.558-1.563" fill="#e22325"/></svg>