<svg xmlns="http://www.w3.org/2000/svg" viewBox="0 0 60 57.333332" height="57.333" width="60"><path d="M49.805 27.041c0 .59-.48 1.068-1.068 1.068-.59 0-1.062-.478-1.062-1.068 0-.588.473-1.066 1.062-1.066.588 0 1.068.478 1.068 1.066zm-.495 7.27l10.02-5.724-10.297-5.847 10.298-5.886L30.023.214.716 16.853 11.02 22.74.716 28.587l10.303 5.888L.716 40.322l29.307 16.746 29.313-16.746-10.303-5.847.079-.043a.859.859 0 0 0 .198-.12zM30.023 2.666l25 14.198-8.145 4.652-16.855 9.629L5.03 16.864zM12.585 24.303a1.055 1.055 0 0 0 1.693.3l2.412 1.38a1.064 1.064 0 1 0 1.115 1.057c0-.186-.058-.347-.141-.499l11.021 6.292a1.044 1.044 0 0 0-.214.61c0 .587.48 1.063 1.069 1.063.588 0 1.067-.476 1.067-1.064 0-.057-.027-.103-.031-.156l10.719-6.125c.062.532.5.943 1.047.943a1.06 1.06 0 0 0 1.062-1.063c0-.348-.171-.645-.433-.838l2.35-1.34c.072.017.141.043.219.043.474 0 .859-.313 1-.74l.343-.197 8.14 4.624-2.113 1.21a1.064 1.064 0 0 0-2.038.437c0 .23.09.432.214.604l-4.208 2.407-6.812 3.89c.082-.152.14-.319.14-.5 0-.59-.48-1.068-1.069-1.068-.587 0-1.061.479-1.061 1.068 0 .572.452 1.03 1.015 1.056l-2.41 1.376a1.082 1.082 0 0 0-.74-.302 1.07 1.07 0 0 0-1.068 1.068c0 .082.032.16.051.24l-4.9 2.796-5.88-3.36a1.063 1.063 0 0 0-1.007-.744c-.077 0-.144.032-.218.046l-2.348-1.342c.26-.193.438-.486.438-.834 0-.59-.48-1.068-1.068-1.068-.548 0-.98.417-1.042.948L8.176 30.396c.005-.052.03-.1.03-.156 0-.59-.48-1.068-1.068-1.068-.255 0-.48.103-.661.249l-1.454-.823zm42.438 16.025l-25 14.281L5.03 40.328l8.14-4.625 16.854 9.63 16.86-9.63zm-11.619-6.886c0 .588-.474 1.064-1.062 1.064a1.062 1.062 0 0 1-1.068-1.064c0-.593.473-1.067 1.068-1.067.588 0 1.062.474 1.062 1.067zm3.203-3.202a1.07 1.07 0 0 1-1.067 1.068 1.07 1.07 0 0 1-1.069-1.068 1.069 1.069 0 0 1 2.136 0zm-6.4 0a1.07 1.07 0 0 1-1.07 1.068 1.069 1.069 0 1 1 1.069-1.068zm-9.6 9.599a1.07 1.07 0 0 1-1.067 1.067 1.07 1.07 0 0 1-1.07-1.067c0-.588.482-1.064 1.07-1.064.588 0 1.067.476 1.067 1.064zm6.401-6.397c0 .588-.48 1.064-1.067 1.064a1.066 1.066 0 1 1 0-2.131c.588 0 1.067.474 1.067 1.067zm-3.204 3.2c0 .587-.479 1.066-1.067 1.066-.59 0-1.062-.479-1.062-1.067a1.063 1.063 0 1 1 2.13 0zm-6.4 0a1.064 1.064 0 1 1-2.13 0 1.065 1.065 0 1 1 2.13 0zm-3.198-3.2c0 .588-.479 1.064-1.069 1.064a1.065 1.065 0 1 1 0-2.131c.59 0 1.07.474 1.07 1.067zm-6.402 0a1.065 1.065 0 1 1-2.13-.003 1.065 1.065 0 0 1 2.13.003zm3.205-3.202c0 .588-.48 1.068-1.068 1.068a1.07 1.07 0 0 1-1.069-1.068c0-.59.48-1.068 1.069-1.068a1.07 1.07 0 0 1 1.068 1.068zm-6.402 0a1.07 1.07 0 0 1-1.068 1.068 1.07 1.07 0 0 1 0-2.136c.59 0 1.068.479 1.068 1.068zm-3.202-3.199a1.065 1.065 0 1 1-2.132 0 1.065 1.065 0 1 1 2.132 0" fill="#e22325"/></svg>