<svg xmlns="http://www.w3.org/2000/svg" viewBox="0 0 65.333336 38.666668" height="38.667" width="65.333"><path d="M45.496.106H19.89C9.307.106.693 8.721.693 19.304c0 10.589 8.614 19.204 19.197 19.204h25.606c10.582 0 19.197-8.615 19.197-19.204C64.693 8.72 56.078.106 45.496.106zm13.86 18.93a1.066 1.066 0 0 1 0 .539c-.145 7.522-6.306 13.6-13.86 13.6-7.647 0-13.87-6.225-13.87-13.871 0-7.646 6.223-13.864 13.87-13.864 7.556 0 13.718 6.075 13.86 13.597zm-4.23-3.995a1.06 1.06 0 0 1 1.06 1.067 1.06 1.06 0 0 1-1.06 1.062 1.06 1.06 0 0 1-1.069-1.062c0-.594.473-1.067 1.068-1.067zm0 6.401c.587 0 1.06.473 1.06 1.062a1.06 1.06 0 0 1-1.06 1.067 1.062 1.062 0 0 1-1.069-1.067 1.06 1.06 0 0 1 1.068-1.062zm-6.402-6.401a1.066 1.066 0 1 1 0 2.13 1.064 1.064 0 1 1 0-2.13zm0 6.401a1.064 1.064 0 1 1 0 2.13 1.065 1.065 0 1 1 0-2.13zm3.197-3.204a1.07 1.07 0 0 1 0 2.137 1.07 1.07 0 0 1-1.068-1.07c0-.587.48-1.067 1.068-1.067zm0 6.401a1.07 1.07 0 0 1 0 2.137 1.07 1.07 0 0 1-1.068-1.068c0-.59.48-1.069 1.068-1.069zm-6.4-6.401c.594 0 1.066.48 1.066 1.068a1.065 1.065 0 0 1-2.13 0c.001-.588.475-1.068 1.063-1.068zm0 6.401c.594 0 1.066.48 1.066 1.069a1.066 1.066 0 1 1-2.129 0c0-.59.474-1.069 1.062-1.069zm3.203 3.197a1.069 1.069 0 1 1-1.068 1.068 1.07 1.07 0 0 1 1.068-1.068zm-6.401-12.795a1.066 1.066 0 1 1 0 2.13 1.066 1.066 0 1 1 0-2.13zm0 6.401a1.064 1.064 0 1 1 0 2.13 1.065 1.065 0 0 1 0-2.13zm-6.402-6.401a1.066 1.066 0 1 1 0 2.13 1.065 1.065 0 1 1 0-2.13zm0 6.401a1.064 1.064 0 1 1 0 2.13 1.065 1.065 0 1 1 0-2.13zm3.204-3.204c.589 0 1.061.48 1.061 1.068a1.065 1.065 0 1 1-2.128 0c0-.588.473-1.068 1.067-1.068zm0 6.401c.589 0 1.061.48 1.061 1.069a1.064 1.064 0 1 1-2.128 0c0-.59.473-1.069 1.067-1.069zm-5.36-5.574a1.081 1.081 0 0 1 0 .482c.13 6.362 5.337 11.491 11.73 11.491 6.469 0 11.728-5.26 11.728-11.734 0-6.469-5.26-11.729-11.727-11.729-6.395 0-11.604 5.132-11.731 11.49zm8.558 8.771a1.069 1.069 0 1 1-1.069 1.068c0-.588.48-1.068 1.069-1.068zM48.724 8.64a1.069 1.069 0 0 1 0 2.135 1.068 1.068 0 0 1 0-2.135zm3.197 3.196a1.069 1.069 0 1 1-.001 2.136 1.069 1.069 0 0 1 0-2.136zm-6.4 0c.594 0 1.066.48 1.066 1.069a1.065 1.065 0 1 1-2.129 0c0-.588.474-1.069 1.062-1.069zM42.322 8.64a1.069 1.069 0 0 1 0 2.135 1.07 1.07 0 0 1-1.069-1.068c0-.59.48-1.067 1.069-1.067zM18.829 9.705c-.595 0-1.068.48-1.068 1.068V27.84a1.064 1.064 0 1 0 2.13 0V10.773c0-.588-.474-1.068-1.062-1.068zm20.296 2.131c.589 0 1.061.48 1.061 1.069a1.063 1.063 0 1 1-2.128 0c0-.588.473-1.069 1.067-1.069zm6.37 24.535H19.89c-9.405 0-17.06-7.655-17.06-17.067 0-9.406 7.655-17.062 17.06-17.062h25.606c9.405 0 17.06 7.656 17.06 17.062 0 9.412-7.655 17.067-17.06 17.067" fill="#e22325"/></svg>