<svg xmlns="http://www.w3.org/2000/svg" viewBox="0 0 60 44" height="44" width="60"><path d="M58.997 13.087C51.273 5.358 40.983 1.104 30.029 1.104c-10.958 0-21.245 4.254-28.974 11.983a1.068 1.068 0 0 0-.312.728v.051a1.067 1.067 0 0 0 1.823.727C9.888 7.27 19.639 3.234 30.029 3.234c10.385 0 20.135 4.036 27.463 11.359a1.06 1.06 0 0 0 1.505 0 1.06 1.06 0 0 0 0-1.506zM30.029 28.863a6.997 6.997 0 0 0-6.99 6.99c0 3.854 3.135 6.99 6.99 6.99 3.853 0 6.984-3.136 6.984-6.99s-3.13-6.99-6.984-6.99zm0 11.844a4.86 4.86 0 0 1-4.855-4.855A4.86 4.86 0 0 1 30.029 31a4.861 4.861 0 0 1 4.854 4.853 4.858 4.858 0 0 1-4.854 4.855zm0-21.88c-6.213 0-12.05 2.417-16.432 6.798a1.067 1.067 0 0 0 0 1.509 1.062 1.062 0 0 0 1.506 0c3.983-3.978 9.28-6.17 14.926-6.17 5.64 0 10.943 2.192 14.922 6.17a1.057 1.057 0 0 0 1.505 0 1.067 1.067 0 0 0 0-1.51c-4.38-4.38-10.214-6.796-16.427-6.796zm-22.702.526a1.068 1.068 0 0 0 .755 1.825c.27 0 .546-.105.75-.314 11.687-11.686 30.703-11.686 42.389 0a1.067 1.067 0 0 0 1.506-1.51C40.21 6.837 19.84 6.837 7.327 19.352" fill="#e22325"/></svg>