<svg xmlns="http://www.w3.org/2000/svg" viewBox="0 0 46.666668 46.666668" height="46.667" width="46.667"><path d="M23.36.913c12.348 0 22.394 10.046 22.394 22.394 0 12.349-10.046 22.394-22.395 22.394C11.011 45.701.966 35.656.966 23.307A22.259 22.259 0 0 1 7.497 7.501a1.114 1.114 0 0 1 1.568-.007c.435.435.442 1.136.006 1.574a20.047 20.047 0 0 0-5.88 14.24c0 11.121 9.047 20.168 20.168 20.168 11.123 0 20.17-9.047 20.17-20.169 0-10.684-8.387-19.56-19.056-20.142v8.615c0 .612-.501 1.112-1.114 1.112-.61 0-1.113-.5-1.113-1.112V2.027c0-.613.5-1.114 1.113-1.114zm2.812 21.028a2.988 2.988 0 0 1 .357 4.534c-1.285 1.295-3.426 1.133-4.515-.33l-6.893-9.525a1.11 1.11 0 0 1 1.526-1.569c3.292 2.38 6.302 4.558 9.525 6.89zm-5.197-1.016l2.816 3.891a.774.774 0 0 0 1.156.104c.332-.359.32-.885-.083-1.183-1.458-1.055-2.3-1.664-3.89-2.812" fill="#e22325"/></svg>