<svg xmlns="http://www.w3.org/2000/svg" viewBox="0 0 38.666668 65.333336" height="65.333" width="38.667"><path d="M32.794.64H5.925a4.706 4.706 0 0 0-4.698 4.698v54.605a4.706 4.706 0 0 0 4.698 4.698h26.869c2.595 0 4.7-2.11 4.7-4.698V5.338a4.702 4.702 0 0 0-4.7-4.697zM3.363 9.172h10.376v23.47a1.12 1.12 0 0 0 2.24 0V9.17h2.26v33.672a1.12 1.12 0 0 0 2.24 0V9.17h2.26v15.046a1.12 1.12 0 0 0 2.241 0V9.171h10.383V49.71h-32V9.17zm16 43.735a4.27 4.27 0 0 0-4.265 4.265 4.272 4.272 0 0 0 4.265 4.272 4.273 4.273 0 0 0 4.265-4.272 4.271 4.271 0 0 0-4.265-4.265zm0 6.4a2.14 2.14 0 0 1-2.136-2.135 2.133 2.133 0 1 1 2.136 2.136zM5.925 2.778h26.869a2.568 2.568 0 0 1 2.569 2.561v1.704h-32V5.338c0-1.41 1.15-2.56 2.562-2.56zm26.869 59.727H5.925a2.566 2.566 0 0 1-2.562-2.56v-8.106h32v8.105c0 1.41-1.152 2.561-2.57 2.561" fill="#e22325"/></svg>