<svg xmlns="http://www.w3.org/2000/svg" viewBox="0 0 50.666668 50.666668" height="50.667" width="50.667"><path d="M18.337 10.408l-3.184-5.516a1.125 1.125 0 0 0-1.948 1.123c.915 1.828 2.211 3.698 3.192 5.528a1.114 1.114 0 0 0 .969.55 1.146 1.146 0 0 0 .56-.149 1.12 1.12 0 0 0 .522-.682 1.122 1.122 0 0 0-.11-.854zm15.128 30.875l3.184 5.518a1.125 1.125 0 0 0 1.947-1.123c-.914-1.83-2.21-3.699-3.19-5.529a1.111 1.111 0 0 0-.97-.55 1.117 1.117 0 0 0-1.083.831c-.074.279-.043.586.112.853zm6.752-5.93l5.533 3.195a1.126 1.126 0 0 0 1.508-.402l.024-.04a1.124 1.124 0 0 0-.404-1.502l-5.537-3.197a1.149 1.149 0 0 0-.56-.15 1.13 1.13 0 0 0-.564.15l-.01.006c-.161.094-.301.232-.402.406l-.009.014a1.12 1.12 0 0 0-.102.838c.074.278.255.527.523.683zm2.884-8.512h6.37a1.118 1.118 0 0 0 1.123-1.123 1.118 1.118 0 0 0-1.123-1.122h-6.372a1.12 1.12 0 0 0-1.122 1.122 1.121 1.121 0 0 0 1.124 1.123zm-3.296-9.223c.155.268.405.45.683.523.278.075.585.043.853-.11l5.53-3.194a1.12 1.12 0 0 0 .51-.674 1.12 1.12 0 0 0-1.375-1.377 1.158 1.158 0 0 0-.271.112l-5.518 3.185a1.122 1.122 0 0 0-.411 1.535zm-5.928-5.93a1.12 1.12 0 0 0 1.534-.41l3.194-5.532a1.122 1.122 0 0 0-.419-1.521l-.014-.008a1.098 1.098 0 0 0-.547-.142 1.124 1.124 0 0 0-.975.561l-3.185 5.517a1.124 1.124 0 0 0 .412 1.536zm-8.102 38.848a1.118 1.118 0 0 0 1.123-1.123v-6.37c0-.311-.126-.592-.328-.795l-.014-.015a1.12 1.12 0 0 0-.78-.314 1.118 1.118 0 0 0-1.123 1.123v6.371a1.119 1.119 0 0 0 1.122 1.123zm-14.19-34.197l-5.533-3.196a1.126 1.126 0 0 0-1.509.403l-.023.04a1.124 1.124 0 0 0 .404 1.503l5.537 3.196a1.112 1.112 0 0 0 .56.15c.2 0 .394-.052.564-.15l.01-.006c.16-.094.301-.232.402-.406l.008-.014a1.12 1.12 0 0 0 .103-.838 1.12 1.12 0 0 0-.523-.682zM8.702 24.85h-6.37a1.12 1.12 0 0 0-1.124 1.123 1.12 1.12 0 0 0 1.123 1.122h6.372a1.121 1.121 0 1 0-.001-2.245zm3.295 9.223a1.124 1.124 0 0 0-1.536-.413l-5.53 3.194a1.122 1.122 0 0 0-.399 1.527 1.118 1.118 0 0 0 1.264.524c.095-.026.186-.063.271-.112l5.518-3.185a1.123 1.123 0 0 0 .411-1.535zm5.928 5.93a1.126 1.126 0 0 0-1.534.41l-3.194 5.532a1.124 1.124 0 0 0 .42 1.521l.012.009a1.118 1.118 0 0 0 .549.14c.198 0 .394-.051.563-.148a1.13 1.13 0 0 0 .411-.412l3.185-5.517c.155-.268.186-.575.111-.854a1.12 1.12 0 0 0-.523-.682zm8.101-38.848a1.12 1.12 0 0 0-1.122 1.123V8.65c0 .31.126.592.328.794l.014.015c.2.194.476.314.78.314a1.118 1.118 0 0 0 1.123-1.123V2.279c0-.311-.126-.593-.328-.794a1.117 1.117 0 0 0-.795-.33" fill="#e22325"/></svg>