<svg xmlns="http://www.w3.org/2000/svg" viewBox="0 0 33.333332 52" height="52" width="33.333"><path d="M27.44 11.911l-9.083 6.604a1.064 1.064 0 0 0 .63 1.927c.219 0 .438-.067.624-.203l12.923-9.396L19.61 1.447a1.07 1.07 0 0 0-1.49.235c-.343.48-.24 1.146.236 1.49l9.082 6.603H14.716C7.07 9.775.852 15.999.852 23.645a1.069 1.069 0 0 0 2.135 0c0-6.469 5.26-11.734 11.729-11.734zm4.02 15.322c-.588 0-1.06.48-1.06 1.068 0 6.47-5.267 11.735-11.735 11.735H5.946l9.077-6.604c.48-.344.584-1.01.235-1.49a1.065 1.065 0 0 0-1.49-.234L.853 41.104 13.769 50.5c.192.134.412.203.625.203.334 0 .656-.15.864-.438a1.059 1.059 0 0 0-.235-1.489l-9.077-6.604h12.72c7.644 0 13.862-6.224 13.862-13.87 0-.589-.472-1.069-1.068-1.069" fill="#e22325"/></svg>