<svg xmlns="http://www.w3.org/2000/svg" viewBox="0 0 38.666668 70.666664" height="70.667" width="38.667"><path d="M25.389 1.665l-24.53 38.4v.002a1.068 1.068 0 0 0 .898 1.635l.003.003H15.3l-7.11 26.39h.002a1.068 1.068 0 0 0 1.91.882l27.72-38.381-.002-.002a1.068 1.068 0 0 0-.865-1.692h-13.69l4.057-26.38a1.068 1.068 0 0 0-1.928-.855zM3.702 39.57l20.765-32.5-3.494 22.705a1.068 1.068 0 0 0 1.05 1.263h12.846l-23.103 31.99 5.933-22.044a1.068 1.068 0 0 0-1.005-1.41l-.002-.004H3.702" fill="#e22325"/></svg>