<svg xmlns="http://www.w3.org/2000/svg" viewBox="0 0 46.666668 38.666668" height="38.667" width="46.667"><path d="M.796 12.202v19.911a5.51 5.51 0 0 0 5.507 5.507h34.113a5.51 5.51 0 0 0 5.508-5.507V12.202a5.243 5.243 0 0 0-5.24-5.24h-7.332l-.174-.765A6.694 6.694 0 0 0 26.62.994h-6.53a6.708 6.708 0 0 0-6.557 5.203l-.175.764H6.036a5.249 5.249 0 0 0-5.24 5.24zM23.36 31.828c5.222 0 9.477-4.255 9.477-9.477s-4.255-9.477-9.477-9.477-9.477 4.245-9.477 9.477c0 5.23 4.255 9.477 9.477 9.477zm0-16.698c3.979 0 7.22 3.242 7.22 7.221s-3.241 7.22-7.22 7.22c-3.979 0-7.22-3.241-7.22-7.22 0-3.98 3.241-7.22 7.22-7.22zM9.94 14.034a1.51 1.51 0 1 1-3.02 0 1.51 1.51 0 0 1 3.02 0zm4.32-4.816c.524 0 .976-.36 1.095-.875l.378-1.64A4.454 4.454 0 0 1 20.09 3.25h6.53a4.455 4.455 0 0 1 4.357 3.454l.377 1.64c.12.505.57.874 1.096.874h8.224a2.984 2.984 0 0 1 2.984 2.984v19.911a3.25 3.25 0 0 1-3.251 3.251H6.303a3.25 3.25 0 0 1-3.25-3.251V12.202a2.983 2.983 0 0 1 2.983-2.984h8.225" fill="#e22325"/></svg>