<svg xmlns="http://www.w3.org/2000/svg" viewBox="0 0 41.333332 41.333332" height="41.333" width="41.333"><path d="M30.908.764a3.237 3.237 0 0 0-3.298.047c-.046.03-.093.062-.135.098L13.023 8.93H1.679C1.09 8.93.611 9.41.611 10v20.264c0 .287.115.558.312.756.204.198.47.312.756.312l11.317-.005 14.443 9.02c.057.047.114.09.171.125a3.246 3.246 0 0 0 3.297.047c1.068-.599 1.703-1.702 1.703-2.937v-9.886a1.068 1.068 0 0 0-2.135 0v9.886c0 .46-.229.864-.614 1.083a1.13 1.13 0 0 1-1.068.027l-14.318-8.9V24.93a1.064 1.064 0 1 0-2.13 0v4.26l-9.598.005V11.061h9.599v4.27c0 .588.473 1.063 1.068 1.063a1.06 1.06 0 0 0 1.061-1.063v-4.838l14.302-7.89c.49-.256.916-.073 1.084.02.385.219.614.625.614 1.084v9.654h.002a1.063 1.063 0 0 0 2.12 0l.013-9.654c0-1.24-.635-2.339-1.702-2.943zm7.952 10.995a1.12 1.12 0 1 1 1.584 1.584l-7.316 7.316 7.32 7.32a1.12 1.12 0 1 1-1.584 1.583l-7.32-7.32-7.319 7.32a1.12 1.12 0 1 1-1.584-1.584l7.32-7.32-7.316-7.315a1.12 1.12 0 1 1 1.583-1.584l7.316 7.316 7.316-7.316" fill="#e22325"/></svg>