<svg xmlns="http://www.w3.org/2000/svg" viewBox="0 0 44 65.333336" height="65.333" width="44"><path d="M35.46.64H8.592a4.706 4.706 0 0 0-4.699 4.698v38.193c-.651-.347-1.126-.975-1.437-1.893a1.056 1.056 0 1 0-2.001.677c.798 2.356 2.527 3.653 4.87 3.653 1.628 0 3.147-.804 4.176-2.117 1.028 1.313 2.547 2.117 4.176 2.117s3.148-.804 4.176-2.117c1.029 1.313 2.549 2.117 4.176 2.117 1.629 0 3.149-.804 4.177-2.117 1.028 1.313 2.548 2.117 4.176 2.117 1.628 0 3.148-.804 4.176-2.117 1.029 1.313 2.548 2.117 4.177 2.117 2.342 0 4.071-1.297 4.87-3.653a1.055 1.055 0 1 0-2.002-.678c-.312.922-.789 1.55-1.443 1.897V5.338a4.702 4.702 0 0 0-4.7-4.697zm7.483 59.008a1.057 1.057 0 0 0-1.34.662c-.505 1.493-1.443 2.219-2.868 2.219-1.381 0-2.65-1.008-3.158-2.508a1.056 1.056 0 0 0-1.002-.716l-.018-.001h-.012a1.055 1.055 0 0 0-1.005.717c-.508 1.5-1.777 2.508-3.158 2.508-1.38 0-2.65-1.008-3.157-2.508a1.055 1.055 0 0 0-1.003-.716l-.017-.001h-.013a1.054 1.054 0 0 0-1.005.717c-.507 1.5-1.777 2.508-3.157 2.508-1.381 0-2.65-1.008-3.158-2.508a1.055 1.055 0 0 0-1.003-.716l-.016-.001h-.013a1.054 1.054 0 0 0-1.005.717c-.508 1.5-1.777 2.508-3.158 2.508-1.38 0-2.65-1.008-3.158-2.508a1.054 1.054 0 0 0-1.002-.716l-.017-.001h-.012a1.055 1.055 0 0 0-1.006.717c-.508 1.5-1.776 2.508-3.158 2.508-1.425 0-2.363-.726-2.868-2.22a1.056 1.056 0 1 0-2 .678c.797 2.356 2.526 3.654 4.868 3.654 1.629 0 3.148-.805 4.177-2.118 1.028 1.313 2.547 2.118 4.176 2.118s3.148-.805 4.176-2.118c1.029 1.313 2.549 2.118 4.177 2.118 1.628 0 3.148-.805 4.176-2.118 1.028 1.313 2.548 2.118 4.176 2.118 1.628 0 3.148-.805 4.177-2.118 1.028 1.313 2.548 2.118 4.176 2.118 2.342 0 4.072-1.298 4.87-3.654a1.056 1.056 0 0 0-.662-1.339zM9.5 53.187c1.029 1.314 2.547 2.117 4.176 2.117s3.148-.803 4.176-2.117c1.03 1.314 2.548 2.117 4.177 2.117 1.628 0 3.147-.803 4.176-2.117 1.028 1.314 2.548 2.117 4.176 2.117 1.628 0 3.148-.803 4.176-2.117 1.029 1.314 2.548 2.117 4.177 2.117 2.342 0 4.071-1.297 4.869-3.653a1.055 1.055 0 1 0-2-.677c-.506 1.493-1.444 2.218-2.87 2.218-1.38 0-2.65-1.007-3.157-2.507a1.056 1.056 0 0 0-1.002-.717h-.03a1.055 1.055 0 0 0-1.005.717c-.508 1.5-1.777 2.507-3.158 2.507-1.38 0-2.65-1.007-3.157-2.507a1.056 1.056 0 0 0-1.003-.717h-.03a1.056 1.056 0 0 0-1.005.717c-.508 1.5-1.777 2.507-3.157 2.507-1.382 0-2.65-1.007-3.159-2.507a1.056 1.056 0 0 0-1.002-.717h-.029a1.056 1.056 0 0 0-1.005.717c-.508 1.5-1.777 2.507-3.158 2.507s-2.65-1.007-3.158-2.507a1.055 1.055 0 0 0-1.002-.716H9.488a1.057 1.057 0 0 0-1.006.716c-.508 1.5-1.777 2.507-3.158 2.507-1.425 0-2.363-.725-2.869-2.218a1.056 1.056 0 0 0-2 .678c.797 2.356 2.527 3.652 4.869 3.652 1.629 0 3.148-.803 4.177-2.117zm-3.472-9.42V9.172h32v34.596c-1.093-.276-2.033-1.18-2.452-2.418a1.056 1.056 0 0 0-1.002-.717h-.03a1.057 1.057 0 0 0-1.005.717c-.508 1.499-1.777 2.507-3.158 2.507s-2.65-1.008-3.157-2.507a1.055 1.055 0 0 0-1.003-.717H26.192a1.058 1.058 0 0 0-1.006.717c-.506 1.499-1.776 2.507-3.157 2.507-1.38 0-2.65-1.008-3.157-2.507a1.056 1.056 0 0 0-1.003-.717h-.029a1.057 1.057 0 0 0-1.006.717c-.507 1.499-1.776 2.507-3.157 2.507-1.38 0-2.65-1.008-3.158-2.507a1.056 1.056 0 0 0-1.002-.717H9.488a1.057 1.057 0 0 0-1.006.717c-.42 1.239-1.36 2.143-2.453 2.419zm2.563-40.99H35.46a2.568 2.568 0 0 1 2.57 2.561v1.704h-32V5.338c0-1.41 1.15-2.56 2.562-2.56" fill="#e22325"/></svg>