<svg xmlns="http://www.w3.org/2000/svg" viewBox="0 0 14.666667 64" height="64" width="14.667"><path d="M4.604 3.475a3.977 3.977 0 0 1 5.375-1.688 3.977 3.977 0 0 1 1.687 5.375C9.28 11.71 8.595 15.584 8.77 19.147c.176 3.587 1.238 6.954 2.32 10.378 2.774 8.789 5.65 17.905-1.711 32.252a3.982 3.982 0 0 1-5.36 1.734 3.982 3.982 0 0 1-1.735-5.36c2.934-5.717 3.809-10.433 3.665-14.616-.143-4.185-1.325-7.93-2.485-11.604C2.159 27.8.879 23.743.695 19.15c-.184-4.61.753-9.663 3.909-15.676zM6.58 4.507C3.634 10.125 2.757 14.81 2.927 19.063c.17 4.27 1.41 8.197 2.671 12.194C6.8 35.065 8.025 38.944 8.18 43.465c.155 4.522-.778 9.597-3.91 15.702a1.756 1.756 0 0 0 .763 2.357c.86.44 1.919.097 2.358-.763 6.937-13.519 4.204-22.192 1.565-30.553-1.158-3.475-2.238-7.286-2.418-10.956-.193-3.924.553-8.17 3.15-13.123a1.76 1.76 0 0 0-.742-2.364 1.759 1.759 0 0 0-2.365.742" fill="#e22325"/></svg>