<svg xmlns="http://www.w3.org/2000/svg" viewBox="0 0 46.666668 46.666668" height="46.667" width="46.667"><path d="M23.36.896A22.343 22.343 0 0 1 39.205 7.46a22.343 22.343 0 0 1 6.564 15.847c0 6.188-2.509 11.79-6.564 15.847a22.343 22.343 0 0 1-15.847 6.564 22.342 22.342 0 0 1-15.846-6.564A22.342 22.342 0 0 1 .949 23.307 22.343 22.343 0 0 1 7.513 7.46 22.342 22.342 0 0 1 23.359.896zM18.21 14.48h10.298a3.686 3.686 0 0 1 3.678 3.679v10.297a3.687 3.687 0 0 1-3.678 3.678H18.21a3.687 3.687 0 0 1-3.679-3.678V18.159a3.687 3.687 0 0 1 3.679-3.679zm10.298 2.24H18.21c-.79 0-1.438.65-1.438 1.439v10.297c0 .79.648 1.438 1.438 1.438h10.297c.79 0 1.438-.649 1.438-1.438V18.159c0-.79-.649-1.439-1.438-1.439zm9.114-7.676A20.109 20.109 0 0 0 23.36 3.137 20.107 20.107 0 0 0 9.097 9.044 20.109 20.109 0 0 0 3.19 23.307c0 5.57 2.257 10.613 5.907 14.263a20.107 20.107 0 0 0 14.262 5.907c5.57 0 10.614-2.258 14.263-5.907a20.107 20.107 0 0 0 5.908-14.263c0-5.57-2.258-10.613-5.908-14.263" fill="#e22325"/></svg>