<svg xmlns="http://www.w3.org/2000/svg" viewBox="0 0 34.000046 59.999523" height="60" width="34"><defs><clipPath id="a"><path d="M0 0h28v49H0z"/></clipPath></defs><g clip-path="url(#a)" transform="matrix(1.25 0 0 -1.25 -.564 60.704)"><path d="M24.127 48.563H3.976A3.53 3.53 0 0 1 .452 45.04V4.086A3.53 3.53 0 0 1 3.976.563h20.151a3.527 3.527 0 0 1 3.525 3.523v40.953a3.527 3.527 0 0 1-3.525 3.524zm-4.589-14.848a.841.841 0 0 0 1.188-1.189L15.24 27.04l5.49-5.489a.84.84 0 0 0-1.188-1.188l-5.49 5.49-5.49-5.49a.84.84 0 0 0-1.187 1.188l5.49 5.49-5.487 5.486a.841.841 0 0 0 1.187 1.188l5.488-5.487zm-5.484-24.35a3.203 3.203 0 0 1-3.199-3.2 3.204 3.204 0 0 1 3.199-3.204 3.204 3.204 0 0 1 3.199 3.204c0 1.76-1.434 3.2-3.2 3.2zm0-4.802c-.883 0-1.602.72-1.602 1.602a1.6 1.6 0 1 0 1.602-1.602zm-12 37.602h24V11.762h-24zm1.922 4.795h20.151a1.925 1.925 0 0 0 1.927-1.92v-1.28h-24v1.28c0 1.058.863 1.92 1.922 1.92zM24.127 2.165H3.976a1.925 1.925 0 0 0-1.922 1.92v6.08h24v-6.08a1.926 1.926 0 0 0-1.927-1.92" fill="#e22325"/></g></svg>