<svg xmlns="http://www.w3.org/2000/svg" viewBox="0 0 50.666668 57.333332" height="57.333" width="50.667"><path d="M12.47 9.194c0-.588.479-1.068 1.067-1.068a1.07 1.07 0 0 1 0 2.136 1.069 1.069 0 0 1-1.067-1.068zM4.827.146h35.25c1.327 0 2.533.542 3.406 1.415a4.807 4.807 0 0 1 1.415 3.406v7.288a4.81 4.81 0 0 1 3.067 1.403 4.81 4.81 0 0 1 1.415 3.406v35.25a4.809 4.809 0 0 1-1.415 3.406 4.806 4.806 0 0 1-3.406 1.415H9.309a4.806 4.806 0 0 1-3.406-1.415 4.809 4.809 0 0 1-1.416-3.406v-7.287a4.814 4.814 0 0 1-3.066-1.404 4.807 4.807 0 0 1-1.415-3.405V4.968c0-1.328.542-2.534 1.415-3.407A4.806 4.806 0 0 1 4.827.146zm37.831 12.097V4.967c0-.709-.29-1.354-.759-1.822a2.574 2.574 0 0 0-1.821-.759H4.828c-.71 0-1.355.291-1.823.759a2.574 2.574 0 0 0-.759 1.822v35.25c0 .709.291 1.355.759 1.823.392.392.909.659 1.482.735V17.064a4.81 4.81 0 0 1 1.416-3.406 4.808 4.808 0 0 1 3.405-1.415zm1.9 2.24H9.309c-.709 0-1.354.291-1.822.759a2.572 2.572 0 0 0-.758 1.822v35.25c0 .709.29 1.354.758 1.822a2.573 2.573 0 0 0 1.822.759h35.25c.71 0 1.355-.29 1.823-.759a2.573 2.573 0 0 0 .759-1.822v-35.25c0-.709-.291-1.355-.76-1.822a2.573 2.573 0 0 0-1.821-.76zM34.25 25.787a1.12 1.12 0 0 1 1.584 1.584l-7.316 7.316 7.32 7.32a1.119 1.119 0 1 1-1.584 1.583l-7.32-7.32-7.319 7.32a1.12 1.12 0 1 1-1.584-1.583l7.32-7.32-7.316-7.316a1.12 1.12 0 0 1 1.583-1.584l7.316 7.317zm.62-19.79a1.07 1.07 0 0 1 2.137 0 1.07 1.07 0 0 1-1.068 1.068 1.07 1.07 0 0 1-1.068-1.068zm3.205 3.197a1.064 1.064 0 1 1 2.13 0 1.065 1.065 0 1 1-2.13 0zm-22.4-3.197a1.065 1.065 0 1 1 2.129 0 1.064 1.064 0 1 1-2.13 0zm6.4 0a1.064 1.064 0 1 1 2.13 0 1.065 1.065 0 1 1-2.13 0zM18.87 9.194c0-.588.48-1.068 1.068-1.068.589 0 1.069.48 1.069 1.068a1.07 1.07 0 0 1-2.137 0zm6.402 0a1.07 1.07 0 0 1 1.068-1.068 1.069 1.069 0 1 1-1.068 1.068zm3.197-3.197a1.069 1.069 0 0 1 2.136 0 1.07 1.07 0 0 1-1.068 1.068 1.07 1.07 0 0 1-1.068-1.068zm3.204 3.197a1.066 1.066 0 1 1 2.13 0 1.063 1.063 0 1 1-2.13 0zm-25.598 0a1.064 1.064 0 1 1 2.13 0 1.065 1.065 0 1 1-2.13 0zm3.197-3.197a1.07 1.07 0 0 1 2.136 0 1.07 1.07 0 0 1-1.067 1.068 1.07 1.07 0 0 1-1.07-1.068" fill="#e22325"/></svg>