<svg xmlns="http://www.w3.org/2000/svg" viewBox="0 0 57.599987 12.764065" height="12.764" width="57.6"><defs><clipPath id="a"><path d="M0 0h45v10H0z"/></clipPath><clipPath id="b"><path d="M441.996.16C409.586.164 138.09.133 105.727.133c-56.54 0-95.73 46.773-95.73 95.703l335.444.027c53.352 0 96.555-42.289 96.555-95.703z" clip-rule="evenodd"/></clipPath><linearGradient id="c" gradientTransform="matrix(10 0 0 10 10 0)" gradientUnits="userSpaceOnUse" y2="4.8" x2="43.2" y1="4.8"><stop offset="0" stop-color="#8b1a26"/><stop offset="1" stop-color="#e22325"/></linearGradient></defs><g clip-path="url(#a)" transform="matrix(1.33333 0 0 -1.33333 -1.333 12.782)"><g clip-path="url(#b)" transform="scale(.1)"><path d="M441.996.16C409.586.164 138.09.133 105.727.133c-56.54 0-95.73 46.773-95.73 95.703l335.444.027c53.352 0 96.555-42.289 96.555-95.703" fill="url(#c)"/></g></g></svg>