<svg xmlns="http://www.w3.org/2000/svg" viewBox="0 0 20.993225 10.273442" height="10.273" width="20.993"><defs><clipPath id="a"><path d="M0 0h17v9H0z"/></clipPath></defs><g clip-path="url(#a)" transform="matrix(1.33333 0 0 -1.33333 -.901 11.255)"><path d="M16.232.736a.187.187 0 1 1 0 .376.187.187 0 0 1-.188-.187c0-.104.084-.19.188-.19zM.777 8.33c0 .014-.013.026-.027.026a.028.028 0 0 1-.026-.026c0-.016.013-.026.026-.026.014 0 .027.01.027.026zm.673 0a.027.027 0 0 1-.026.026.026.026 0 0 1-.026-.026c0-.016.01-.026.026-.026.013 0 .026.01.026.026zm.675 0c0 .014-.014.028-.029.028a.029.029 0 0 1-.028-.028c0-.016.012-.029.028-.029a.03.03 0 0 1 .03.03zm.673 0a.03.03 0 0 1-.029.028c-.015 0-.027-.014-.027-.028 0-.016.012-.029.027-.029a.03.03 0 0 1 .029.03zm.675 0a.03.03 0 0 1-.03.03.03.03 0 0 1-.03-.03c0-.018.012-.03.03-.03a.03.03 0 0 1 .03.03zm.673 0a.032.032 0 0 1-.03.031.033.033 0 0 1-.032-.03c0-.019.014-.035.032-.035.017 0 .03.016.03.034zm.677 0c0 .017-.016.033-.034.033a.034.034 0 0 1-.034-.033c0-.02.015-.036.034-.036.018 0 .034.016.034.036zm.674 0c0 .02-.015.034-.035.034a.035.035 0 0 1-.035-.034c0-.02.015-.038.035-.038.02 0 .035.018.035.038zm.677 0c0 .02-.019.037-.04.037a.038.038 0 0 1-.037-.037c0-.021.018-.039.037-.039.021 0 .04.018.04.04zm.676 0a.04.04 0 0 1-.082 0 .04.04 0 0 1 .04-.042c.024 0 .042.019.042.042zm.675 0c0 .022-.02.041-.043.041a.043.043 0 0 1-.043-.04c0-.026.02-.045.043-.045.024 0 .043.02.043.044zm.676 0c0 .024-.02.046-.046.046s-.048-.022-.048-.046c0-.026.022-.048.048-.048.025 0 .046.022.046.048zm.678 0a.05.05 0 0 1-.052.05.05.05 0 0 1-.05-.05.05.05 0 0 1 .05-.051c.028 0 .052.022.052.051zm.676 0c0 .03-.024.053-.053.053a.053.053 0 0 1-.055-.053c0-.03.025-.055.055-.055.029 0 .053.024.053.055zm.677 0c0 .031-.027.056-.058.056a.057.057 0 0 1-.057-.056c0-.034.026-.059.057-.059.03 0 .058.025.058.06zm.68 0a.065.065 0 0 1-.065.063.063.063 0 0 1-.062-.063c0-.036.027-.064.062-.064s.064.028.064.064zm.678 0a.07.07 0 1 1-.07-.071.07.07 0 0 1 .07.071zm.677 0a.073.073 0 0 1-.074.072.073.073 0 0 1-.073-.072c0-.04.033-.075.073-.075.041 0 .074.034.074.075zm.6-.08c.043 0 .078.036.078.08a.078.078 0 1 1-.078-.08zm.673-.007c.047 0 .086.039.086.087a.085.085 0 0 1-.086.084.085.085 0 0 1-.087-.084c0-.048.038-.087.087-.087zm.673-.005c.05 0 .092.04.092.092a.09.09 0 0 1-.092.09.09.09 0 0 1-.092-.09c0-.051.041-.092.092-.092zm.672-.007a.1.1 0 0 1 .1.1.098.098 0 0 1-.1.095.097.097 0 0 1-.098-.096c0-.055.045-.099.098-.099zm.674-.006c.058 0 .105.046.105.105a.105.105 0 0 1-.105.105.105.105 0 1 1 0-.21zm.673-.008a.112.112 0 1 1 0 .224.112.112 0 1 1 0-.224zM.779 7.656c0 .017-.013.03-.029.03s-.03-.013-.03-.03.014-.03.03-.03.029.013.029.03zm.673 0c0 .017-.013.03-.028.03-.018 0-.03-.013-.03-.03s.012-.03.03-.03c.015 0 .028.013.028.03zm.677 0a.032.032 0 0 1-.033.031.031.031 0 0 1-.032-.031c0-.018.014-.033.032-.033.018 0 .033.015.033.033zm.672 0a.032.032 0 0 1-.032.031.03.03 0 0 1-.03-.031c0-.018.013-.033.03-.033.018 0 .032.015.032.033zm.676 0c0 .02-.016.033-.034.033a.032.032 0 0 1-.033-.033c0-.02.014-.035.033-.035.018 0 .034.015.034.035zm.675 0c0 .02-.017.035-.036.035a.035.035 0 0 1-.036-.035c0-.02.016-.036.036-.036.02 0 .036.016.036.036zm.674 0c0 .02-.016.038-.037.038a.038.038 0 0 1-.037-.038c0-.022.016-.038.037-.038.02 0 .037.016.037.038zm.674 0c0 .022-.016.04-.038.04a.04.04 0 0 1-.04-.04.04.04 0 0 1 .04-.039c.022 0 .038.017.038.039zm.678 0a.043.043 0 0 1-.044.044.043.043 0 0 1-.042-.044.043.043 0 1 1 .086 0zm.676 0a.045.045 0 1 1-.09 0 .045.045 0 0 1 .09 0zm.676 0c0 .026-.02.05-.048.05a.048.048 0 0 1-.048-.05c0-.026.02-.048.048-.048s.048.022.048.048zm.677 0a.054.054 0 0 1-.052.053.054.054 0 0 1-.053-.053c0-.028.024-.051.053-.051.029 0 .052.023.052.05zm.677 0a.055.055 0 0 1-.057.055.054.054 0 0 1-.054-.055c0-.03.023-.056.054-.056.032 0 .057.025.057.056zm.677 0a.06.06 0 1 1-.12 0 .06.06 0 0 1 .12 0zm.676 0a.063.063 0 1 1-.127 0c0-.036.03-.063.064-.063.035 0 .063.027.063.063zm.678 0c0 .037-.03.066-.068.066a.065.065 0 0 1-.066-.066c0-.038.03-.068.066-.068.037 0 .068.03.068.068zm.678 0c0 .04-.033.074-.073.074a.074.074 0 0 1-.072-.074.072.072 0 0 1 .145 0zm.6-.078c.044 0 .078.033.078.078a.078.078 0 1 1-.156 0c0-.045.035-.078.078-.078zm.674-.005c.046 0 .084.037.084.083a.084.084 0 1 1-.168 0c0-.046.037-.083.084-.083zm.673-.005c.05 0 .089.038.089.088a.09.09 0 0 1-.178 0c0-.05.04-.088.09-.088zm.673-.01a.097.097 0 0 1 0 .195.097.097 0 1 1 0-.194zm.672-.005c.057 0 .104.047.104.103a.104.104 0 0 1-.104.102.102.102 0 0 1 0-.205zm.674-.006c.06 0 .11.049.11.109s-.05.11-.11.11a.11.11 0 0 1-.11-.11c0-.06.05-.11.11-.11zm.673-.008a.118.118 0 0 1 0 .236.118.118 0 0 1 0-.236zM.783 6.983a.034.034 0 0 1-.033.034.034.034 0 0 1-.033-.034c0-.02.015-.033.033-.033.019 0 .033.013.033.033zm.676 0c0 .02-.016.035-.035.035-.02 0-.037-.016-.037-.035 0-.02.017-.035.037-.035.02 0 .035.015.035.035zm.673 0c0 .02-.017.035-.036.035a.036.036 0 0 1-.036-.035c0-.02.017-.035.036-.035.02 0 .036.015.036.035zm.674 0c0 .02-.016.037-.037.037a.038.038 0 0 1-.037-.037c0-.02.018-.037.037-.037.02 0 .037.016.037.037zm.676 0a.04.04 0 0 1-.039.04.038.038 0 0 1-.038-.04c0-.02.016-.04.038-.04a.04.04 0 0 1 .039.04zm.674 0a.041.041 0 0 1-.04.041.043.043 0 0 1-.042-.041c0-.023.02-.04.042-.04a.04.04 0 0 1 .04.04zm.676 0c0 .024-.02.042-.043.042a.042.042 0 0 1-.043-.042c0-.023.018-.044.043-.044.023 0 .043.021.043.044zm.675 0c0 .025-.02.044-.045.044a.044.044 0 0 1-.044-.044c0-.024.02-.046.044-.046.025 0 .045.022.045.046zm.674 0a.047.047 0 0 1-.047.046.047.047 0 0 1-.046-.046c0-.026.021-.047.046-.047.026 0 .047.021.047.047zm.678 0a.05.05 0 0 1-.05.05.05.05 0 0 1-.051-.05c0-.028.023-.051.05-.051.028 0 .051.023.051.05zm.674 0a.05.05 0 0 1-.051.052.052.052 0 1 1 0-.105.05.05 0 0 1 .05.053zm.678 0c0 .03-.025.057-.056.057a.057.057 0 0 1-.057-.057c0-.031.025-.057.057-.057.03 0 .056.026.056.057zm.675 0c0 .034-.025.06-.059.06a.06.06 0 0 1-.06-.06.06.06 0 0 1 .06-.06c.034 0 .06.027.06.06zm.678 0a.063.063 0 0 1-.062.064.065.065 0 0 1-.065-.064c0-.035.03-.063.065-.063s.062.028.062.063zm.68 0a.07.07 0 0 1-.07.07.07.07 0 0 1-.069-.07c0-.04.031-.068.069-.068.039 0 .07.029.07.068zm.676 0a.071.071 0 0 1-.073.072.073.073 0 0 1-.074-.072c0-.04.034-.072.074-.072.04 0 .073.032.073.072zm.6-.078c.043 0 .08.034.08.078a.08.08 0 0 1-.08.078.079.079 0 0 1-.077-.078c0-.044.035-.078.077-.078zm.673-.007a.085.085 0 0 1 0 .17.085.085 0 0 1-.084-.085c0-.046.038-.085.084-.085zm.674-.005a.09.09 0 0 1 0 .18.09.09 0 0 1-.09-.09c0-.05.04-.09.09-.09zm.673-.005c.053 0 .096.042.096.095a.097.097 0 0 1-.096.096.095.095 0 1 1 0-.191zm.673-.005a.1.1 0 0 1 .101.1.1.1 0 0 1-.101.101.1.1 0 0 1-.101-.101.1.1 0 0 1 .1-.1zm.672-.009c.06 0 .11.049.11.109s-.05.107-.11.107a.106.106 0 0 1-.107-.107c0-.06.047-.109.107-.109zm.674-.007a.115.115 0 1 1-.002.23.115.115 0 0 1 .002-.23zm.673-.007c.069 0 .123.055.123.123a.123.123 0 0 1-.123.124.124.124 0 0 1 0-.247zM.789 6.309c0 .023-.017.04-.039.04a.039.039 0 0 1-.04-.04c0-.02.019-.038.04-.038a.04.04 0 0 1 .04.038zm.674 0c0 .023-.018.04-.04.04-.023 0-.04-.017-.04-.04 0-.02.017-.038.04-.038.022 0 .04.017.04.038zm.674 0a.04.04 0 0 1-.04.04.04.04 0 1 1 0-.081.04.04 0 0 1 .04.041zm.674 0a.04.04 0 0 1-.042.04.04.04 0 0 1-.04-.04.04.04 0 0 1 .04-.041.04.04 0 0 1 .042.041zm.674 0c0 .025-.02.045-.042.045a.043.043 0 0 1-.043-.045.043.043 0 1 1 .085 0zm.675 0c0 .025-.02.046-.044.046a.045.045 0 0 1-.045-.046c0-.025.02-.043.045-.043.024 0 .044.018.044.043zm.676 0a.047.047 0 0 1-.047.048.048.048 0 0 1-.047-.048c0-.025.021-.046.047-.046.025 0 .047.021.047.046zm.675 0a.05.05 0 0 1-.05.05c-.026 0-.047-.021-.047-.05 0-.026.021-.047.048-.047.026 0 .05.021.05.047zm.676 0c0 .03-.023.053-.053.053a.052.052 0 0 1-.051-.053c0-.028.022-.052.051-.052.03 0 .053.024.053.052zm.676 0c0 .03-.025.055-.055.055a.056.056 0 0 1-.054-.055c0-.03.024-.052.054-.052s.055.022.055.052zm.676 0a.057.057 0 0 1-.114 0c0-.032.024-.057.057-.057.032 0 .057.025.057.057zm.678 0a.062.062 0 0 1-.062.062.06.06 0 0 1-.061-.062.06.06 0 0 1 .06-.06.06.06 0 0 1 .063.06zm.675 0a.064.064 0 0 1-.065.066.066.066 0 0 1-.066-.066c0-.035.03-.065.066-.065.037 0 .065.03.065.065zm.678 0a.07.07 0 1 1-.138 0 .07.07 0 0 1 .07-.07.07.07 0 0 1 .068.07zm.677 0c0 .04-.032.075-.073.075a.074.074 0 0 1-.073-.075c0-.041.033-.072.073-.072.04 0 .073.031.073.072zm.6-.078c.044 0 .079.036.079.078a.078.078 0 0 1-.079.079.078.078 0 0 1-.078-.079c0-.042.034-.078.078-.078zm.673-.004c.046 0 .083.036.083.082a.083.083 0 0 1-.083.085.084.084 0 0 1-.084-.085c0-.046.039-.082.084-.082zm.673-.008c.05 0 .09.04.09.09a.09.09 0 0 1-.09.09.09.09 0 0 1-.09-.09c0-.05.041-.09.09-.09zm.674-.006a.097.097 0 0 1 0 .193.097.097 0 0 1 0-.193zm.673-.004a.1.1 0 0 1 .1.1.101.101 0 0 1-.1.103.102.102 0 0 1-.1-.103.1.1 0 0 1 .1-.1zm.673-.007c.06 0 .108.048.108.107a.11.11 0 0 1-.108.11.109.109 0 0 1 0-.217zm.672-.006c.064 0 .115.05.115.113a.115.115 0 0 1-.115.115.114.114 0 0 1-.112-.115c0-.063.05-.113.112-.113zm.674-.009c.067 0 .122.055.122.122a.121.121 0 1 1-.121-.122zm.673-.007a.129.129 0 1 1 0 .258.129.129 0 0 1 0-.258zM.795 5.636c0 .026-.021.044-.045.044-.026 0-.045-.018-.045-.044 0-.024.02-.044.045-.044.024 0 .045.02.045.044zm.673 0a.044.044 0 0 1-.044.044c-.026 0-.047-.018-.047-.044 0-.024.021-.044.047-.044.023 0 .044.02.044.044zm.675 0c0 .026-.02.047-.047.047a.046.046 0 0 1-.046-.047c0-.026.02-.045.046-.045s.047.019.047.045zm.673 0a.047.047 0 1 1-.094 0c0-.026.022-.045.047-.045.026 0 .047.019.047.045zm.674 0a.047.047 0 0 1-.047.048.049.049 0 0 1-.05-.048.05.05 0 0 1 .05-.048c.026 0 .047.022.047.048zm.676 0a.05.05 0 0 1-.05.05.05.05 0 0 1-.05-.05.05.05 0 0 1 .05-.05.05.05 0 0 1 .05.05zm.675 0a.052.052 0 0 1-.105 0c0-.029.023-.052.053-.052.029 0 .052.023.052.052zm.675 0c0 .03-.024.053-.054.053a.052.052 0 0 1-.054-.053c0-.029.024-.054.054-.054s.054.025.054.054zm.677 0a.057.057 0 0 1-.059.057.057.057 0 0 1-.056-.057.058.058 0 1 1 .115 0zm.676 0a.06.06 0 0 1-.06.06.06.06 0 0 1-.06-.06.06.06 0 0 1 .06-.06.06.06 0 0 1 .06.06zm.676 0a.063.063 0 1 1-.127 0c0-.034.029-.063.064-.063s.063.029.063.063zm.678 0a.068.068 0 0 1-.068.068.067.067 0 0 1-.068-.068c0-.037.03-.066.068-.066.036 0 .068.03.068.066zm.677 0a.072.072 0 1 1-.144 0c0-.039.033-.07.071-.07.04 0 .073.031.073.07zm.602-.075c.04 0 .074.035.074.075a.075.075 0 0 1-.074.075.075.075 0 0 1-.077-.075c0-.04.034-.075.077-.075zm.672-.003a.08.08 0 0 1 .08.078.08.08 0 0 1-.08.078.078.078 0 0 1-.079-.078c0-.042.035-.078.079-.078zm.673-.005c.047 0 .085.038.085.083a.083.083 0 0 1-.085.083.083.083 0 0 1-.083-.083c0-.045.037-.083.083-.083zm.673-.007c.05 0 .09.042.09.09a.09.09 0 0 1-.181 0c0-.048.041-.09.09-.09zm.673-.004a.095.095 0 1 1 0 .19.096.096 0 0 1-.095-.096c0-.052.042-.094.095-.094zm.674-.006a.1.1 0 0 1 .1.1.1.1 0 0 1-.1.1.101.101 0 0 1-.102-.1.1.1 0 0 1 .102-.1zm.673-.007c.059 0 .106.05.106.107a.106.106 0 1 1-.212 0c0-.057.046-.107.106-.107zm.673-.007c.064 0 .113.05.113.114s-.05.115-.113.115a.114.114 0 0 1-.115-.115c0-.063.052-.114.115-.114zm.672-.005a.12.12 0 0 1 .12.12.12.12 0 0 1-.12.12.12.12 0 0 1-.119-.12.12.12 0 0 1 .12-.12zm.674-.008a.127.127 0 1 1 0 .255.127.127 0 0 1 0-.255zm.673-.007c.074 0 .135.06.135.134 0 .075-.06.135-.135.135a.134.134 0 1 1 0-.269zM.801 4.965a.05.05 0 0 1-.051.048.05.05 0 0 1-.05-.048.05.05 0 0 1 .102 0zm.672 0a.05.05 0 0 1-.05.048.05.05 0 0 1-.05-.048c0-.03.023-.052.05-.052a.05.05 0 0 1 .05.052zm.673 0c0 .026-.02.048-.05.048-.028 0-.051-.022-.051-.048 0-.03.023-.052.051-.052.03 0 .05.023.05.052zm.676 0c0 .028-.023.05-.053.05a.051.051 0 0 1-.051-.05.05.05 0 0 1 .051-.053c.03 0 .053.022.053.053zm.674 0a.053.053 0 0 1-.053.053.055.055 0 0 1-.055-.053c0-.031.025-.055.055-.055s.053.024.053.055zm.675 0a.056.056 0 0 1-.055.055.056.056 0 1 1 0-.111c.03 0 .055.024.055.056zm.676 0a.058.058 0 0 1-.116 0c0-.035.027-.061.058-.061.032 0 .058.026.058.06zm.675 0c0 .03-.026.057-.06.057-.032 0-.06-.026-.06-.057 0-.035.028-.063.06-.063.034 0 .06.028.06.063zm.677 0c0 .033-.03.06-.065.06a.062.062 0 0 1-.061-.06c0-.037.027-.065.061-.065.036 0 .065.028.065.065zm.674 0a.064.064 0 0 1-.065.063.064.064 0 0 1-.065-.063c0-.037.03-.068.065-.068.037 0 .065.03.065.068zm.677 0a.068.068 0 0 1-.068.066.068.068 0 0 1-.07-.066c0-.04.032-.072.07-.072.037 0 .068.033.068.072zm.678 0a.073.073 0 0 1-.146 0 .073.073 0 1 1 .146 0zm.6-.079c.04 0 .076.034.076.079 0 .04-.035.074-.077.074a.075.075 0 0 1-.075-.074c0-.045.033-.079.075-.079zm.674-.002a.08.08 0 0 1 .08.08.081.081 0 0 1-.08.08.082.082 0 0 1-.082-.08.08.08 0 0 1 .082-.08zm.672-.007c.047 0 .085.04.085.088a.085.085 0 0 1-.085.083.086.086 0 0 1-.086-.083c0-.048.039-.088.086-.088zm.673-.002c.05 0 .09.038.09.09 0 .048-.04.088-.09.088a.089.089 0 1 1 0-.178zm.673-.008c.053 0 .095.045.095.098 0 .05-.042.093-.095.093a.093.093 0 0 1-.094-.093c0-.053.04-.098.094-.098zm.673-.005c.057 0 .102.046.102.103a.1.1 0 1 1-.201 0c0-.057.045-.103.1-.103zm.674-.007c.058 0 .107.049.107.11a.107.107 0 0 1-.214 0c0-.061.049-.11.107-.11zm.673-.004c.061 0 .112.05.112.114a.112.112 0 0 1-.225 0c0-.064.051-.114.113-.114zm.673-.007c.066 0 .119.053.119.12a.118.118 0 0 1-.12.118.119.119 0 0 1-.118-.117.12.12 0 0 1 .119-.12zm.672-.006c.07 0 .127.055.127.127a.128.128 0 0 1-.127.127.13.13 0 0 1-.127-.127c0-.072.058-.127.127-.127zm.674-.009c.075 0 .134.06.134.136a.135.135 0 0 1-.27 0c0-.077.062-.136.136-.136zm.673-.008c.078 0 .141.063.141.144 0 .077-.063.14-.141.14a.142.142 0 0 1 0-.284zM.807 4.29c0 .03-.026.058-.057.058a.058.058 0 0 1-.056-.058c0-.029.025-.055.056-.055.03 0 .057.026.057.055zm.672 0c0 .03-.025.058-.055.058a.058.058 0 0 1-.057-.058c0-.029.026-.055.057-.055.03 0 .055.026.055.055zm.675 0a.058.058 0 0 1-.058.059.059.059 0 0 1-.059-.059c0-.03.027-.057.06-.057.032 0 .057.027.057.057zm.673 0a.058.058 0 1 1-.116.002.058.058 0 0 1 .116-.002zm.676 0a.06.06 0 0 1-.06.062.06.06 0 0 1-.06-.062.06.06 0 0 1 .06-.059.06.06 0 0 1 .06.06zm.674 0a.062.062 0 0 1-.061.063.063.063 0 0 1-.062-.063c0-.033.028-.06.062-.06s.061.027.061.06zm.676 0a.064.064 0 1 1-.064-.063c.035 0 .064.03.064.063zm.674 0a.066.066 0 0 1-.065.066.065.065 0 1 1 0-.13c.036 0 .065.03.065.064zm.678 0c0 .04-.031.07-.07.07a.069.069 0 0 1-.069-.07c0-.037.031-.067.068-.067.04 0 .07.03.07.067zm.674 0a.07.07 0 0 1-.07.072.071.071 0 1 1 0-.143c.039 0 .07.034.07.071zm.677 0a.073.073 0 0 1-.074.075.074.074 0 0 1-.075-.075c0-.039.034-.072.075-.072.041 0 .074.033.074.072zm.599-.077c.043 0 .077.034.077.077a.076.076 0 0 1-.077.079.077.077 0 0 1-.079-.079c0-.043.035-.077.079-.077zm.672-.005a.083.083 0 0 1 0 .165.083.083 0 1 1 0-.165zm.675-.006a.089.089 0 0 1 0 .178.09.09 0 0 1-.09-.09.09.09 0 0 1 .09-.088zm.672-.004a.092.092 0 0 1 0 .184.091.091 0 0 1-.091-.092c0-.05.042-.092.09-.092zm.673-.004c.053 0 .098.044.098.096a.1.1 0 0 1-.098.098.097.097 0 1 1 0-.194zm.673-.004c.056 0 .101.045.101.1a.102.102 0 0 1-.101.101.1.1 0 1 1 0-.201zm.673-.006a.107.107 0 1 1 0 .215.107.107 0 1 1 0-.215zm.674-.006c.062 0 .113.051.113.112 0 .063-.05.114-.113.114a.114.114 0 0 1-.114-.114c0-.06.051-.112.114-.112zm.673-.006a.12.12 0 0 1 .12.118.12.12 0 1 1-.24 0 .12.12 0 0 1 .12-.118zm.673-.008c.07 0 .127.056.127.126a.126.126 0 0 1-.127.128.127.127 0 0 1-.127-.128c0-.07.057-.126.127-.126zm.672-.005a.132.132 0 1 1 0 .264.132.132 0 1 1 0-.264zm.674-.008a.14.14 0 1 1 0 .282.143.143 0 0 1-.143-.143c0-.077.064-.14.143-.14zm.673-.01c.083 0 .15.067.15.15a.15.15 0 1 1-.15-.15zM.811 3.616a.06.06 0 0 1-.061.061.062.062 0 0 1-.063-.06c0-.034.03-.06.063-.06a.06.06 0 0 1 .06.06zm.674 0c0 .035-.028.061-.061.061a.061.061 0 0 1-.063-.06c0-.034.028-.06.063-.06a.06.06 0 0 1 .06.06zm.676 0a.062.062 0 0 1-.065.063.06.06 0 0 1-.063-.063.06.06 0 0 1 .063-.062c.036 0 .065.026.065.062zm.673 0a.064.064 0 0 1-.065.066.066.066 0 0 1-.066-.066c0-.036.03-.064.066-.064.036 0 .065.028.065.064zm.674 0c0 .038-.03.066-.065.066a.065.065 0 0 1-.066-.066c0-.036.03-.064.066-.064.035 0 .065.028.065.064zm.676 0a.068.068 0 1 1-.136 0c0-.037.03-.066.068-.066.038 0 .068.03.068.066zm.675 0a.07.07 0 1 1-.14 0c0-.04.031-.069.07-.069.04 0 .07.03.07.07zm.676 0c0 .04-.033.074-.073.074a.073.073 0 0 1-.073-.074c0-.04.032-.07.073-.07.04 0 .073.03.073.07zm.675 0a.076.076 0 0 1-.076.077.076.076 0 0 1-.074-.077c0-.04.033-.073.074-.073.043 0 .076.033.076.073zm.598-.077c.044 0 .079.035.079.077a.079.079 0 0 1-.079.079.078.078 0 0 1 0-.156zm.674-.004c.045 0 .082.037.082.081a.083.083 0 0 1-.082.083.083.083 0 0 1-.083-.083c0-.044.037-.081.083-.081zm.673-.004a.086.086 0 1 1 0 .172.087.087 0 0 1-.087-.087c0-.046.039-.085.087-.085zm.672-.002c.05 0 .091.039.091.087 0 .051-.041.092-.09.092a.09.09 0 0 1-.09-.092c0-.048.04-.087.09-.087zm.675-.004c.05 0 .093.04.093.091a.095.095 0 0 1-.093.095.095.095 0 0 1-.094-.095c0-.051.042-.091.094-.091zm.672-.008a.1.1 0 0 1 0 .2.1.1 0 0 1-.1-.1.1.1 0 0 1 .1-.1zm.673-.004c.057 0 .103.046.103.103a.103.103 0 0 1-.103.105.104.104 0 0 1 0-.208zm.673-.004c.06 0 .108.048.108.107a.11.11 0 0 1-.108.11.11.11 0 0 1-.108-.11c0-.059.049-.107.108-.107zm.673-.006a.114.114 0 0 1 0 .228.114.114 0 0 1 0-.228zm.674-.005c.065 0 .12.052.12.118a.12.12 0 1 1-.12-.118zm.673-.007c.07 0 .126.056.126.125a.127.127 0 0 1-.253 0c0-.069.058-.125.127-.125zm.673-.007a.132.132 0 1 1-.133.132c0-.073.06-.132.133-.132zm.672-.008a.141.141 0 0 1 0 .282.14.14 0 0 1-.139-.142.14.14 0 0 1 .14-.14zm.674-.007a.147.147 0 1 1 0 .295.148.148 0 0 1 0-.295zm.673-.008a.156.156 0 1 1 0 .312.156.156 0 1 1 0-.312zM.816 2.944a.066.066 0 0 1-.066.066.067.067 0 0 1-.067-.066c0-.037.03-.067.067-.067.037 0 .066.03.066.067zm.676 0a.07.07 0 0 1-.068.07.07.07 0 0 1-.07-.07c0-.04.03-.07.07-.07.037 0 .068.03.068.07zm.673 0a.07.07 0 0 1-.069.07.07.07 0 0 1-.069-.07c0-.04.03-.07.07-.07.038 0 .068.03.068.07zm.676 0a.074.074 0 0 1-.072.072.073.073 0 0 1-.071-.072.072.072 0 0 1 .143 0zm.674 0a.073.073 0 1 1-.145 0 .073.073 0 1 1 .146 0zm.676 0c0 .04-.033.075-.075.075a.076.076 0 0 1-.075-.075c0-.044.033-.074.075-.074.042 0 .075.03.075.074zm.598-.077c.041 0 .076.033.076.077a.077.077 0 0 1-.076.077.078.078 0 0 1-.077-.077c0-.044.035-.077.077-.077zm.673 0c.043 0 .079.032.079.077 0 .044-.036.08-.08.08a.079.079 0 0 1-.077-.08c0-.045.036-.078.078-.078zm.672-.005c.046 0 .082.036.082.082a.08.08 0 0 1-.082.081.081.081 0 0 1-.081-.081c0-.046.037-.082.081-.082zm.674-.003c.048 0 .086.037.086.085a.086.086 0 1 1-.171 0c0-.048.038-.085.085-.085zm.674-.002c.048 0 .086.04.086.087a.087.087 0 1 1-.174 0c0-.048.04-.087.088-.087zm.673-.005c.05 0 .09.04.09.092a.09.09 0 0 1-.09.092.091.091 0 0 1-.093-.092c0-.052.041-.092.093-.092zm.672-.005c.054 0 .098.043.098.097a.099.099 0 0 1-.098.097.098.098 0 0 1-.097-.097c0-.054.044-.097.097-.097zm.675-.004a.1.1 0 0 1 .1.1.1.1 0 0 1-.1.102.101.101 0 0 1-.102-.101c0-.055.045-.1.102-.1zm.672-.004c.058 0 .105.046.105.105a.104.104 0 0 1-.105.103.103.103 0 0 1-.104-.103c0-.06.047-.105.104-.105zm.673-.005a.11.11 0 0 1 0 .219.111.111 0 0 1-.111-.11c0-.059.05-.109.111-.109zm.673-.007a.116.116 0 1 1 0 .232.115.115 0 0 1-.116-.115c0-.064.053-.117.116-.117zm.673-.005c.068 0 .121.055.121.122a.121.121 0 0 1-.12.12.122.122 0 0 1-.122-.12c0-.067.055-.122.121-.122zm.674-.006c.07 0 .127.057.127.128a.127.127 0 1 1-.254 0c0-.071.057-.128.127-.128zm.673-.007a.135.135 0 0 1 0 .269.135.135 0 0 1 0-.269zm.673-.009c.078 0 .142.066.142.144 0 .08-.064.142-.142.142a.141.141 0 0 1-.142-.142c0-.078.063-.144.142-.144zm.672-.004c.083 0 .148.066.148.148a.147.147 0 0 1-.148.147.148.148 0 0 1-.147-.147c0-.082.067-.148.147-.148zm.674-.007a.156.156 0 0 1 0 .31.155.155 0 0 1 0-.31zm.673-.01c.091 0 .164.073.164.165a.164.164 0 1 1-.328 0c0-.092.074-.165.164-.165zM.75 2.195c.041 0 .074.035.074.074a.074.074 0 1 1-.148 0c0-.04.033-.074.074-.074zm.674-.001c.041 0 .076.036.076.075a.077.077 0 0 1-.076.079.078.078 0 0 1-.079-.079c0-.04.035-.075.079-.075zm.672 0c.043 0 .076.036.076.075a.076.076 0 0 1-.076.079.078.078 0 0 1-.077-.079c0-.04.036-.075.077-.075zm.673-.001c.043 0 .079.034.079.076a.08.08 0 0 1-.079.08.08.08 0 0 1-.078-.08c0-.042.036-.076.078-.076zm.674-.004c.044 0 .08.038.08.08a.081.081 0 0 1-.08.082.08.08 0 0 1-.08-.082.08.08 0 0 1 .08-.08zm.673 0c.045 0 .082.037.082.08a.083.083 0 0 1-.082.083.082.082 0 1 1 0-.164zm.673-.003c.047 0 .084.04.084.083a.084.084 0 1 1-.168 0c0-.043.037-.083.084-.083zm.673-.002a.086.086 0 1 1 0 .172.086.086 0 0 1-.085-.087c0-.048.038-.085.085-.085zm.672-.003a.089.089 0 1 1 0 .178.088.088 0 0 1-.088-.09c0-.049.04-.088.088-.088zm.674-.002c.051 0 .092.041.092.09a.093.093 0 0 1-.092.094.093.093 0 0 1-.092-.094c0-.049.042-.09.092-.09zm.674-.004c.05 0 .095.043.095.094a.099.099 0 0 1-.095.098.098.098 0 0 1-.095-.098c0-.05.042-.094.095-.094zm.673-.003c.054 0 .099.042.099.097a.102.102 0 0 1-.1.101.1.1 0 0 1-.097-.1c0-.056.043-.098.098-.098zm.672-.006c.058 0 .105.046.105.103a.105.105 0 0 1-.105.106.107.107 0 0 1-.104-.106c0-.057.048-.103.104-.103zm.675-.004a.11.11 0 0 1 .107.107.108.108 0 1 1-.107-.107zm.672-.005c.062 0 .113.052.113.112a.115.115 0 0 1-.113.116.113.113 0 0 1-.112-.116c0-.06.05-.112.112-.112zm.673-.003a.118.118 0 0 1 0 .235.118.118 0 0 1-.117-.12c0-.063.053-.115.117-.115zm.673-.006c.07 0 .124.055.124.121 0 .07-.055.126-.124.126a.126.126 0 0 1-.124-.126c0-.066.057-.121.124-.121zm.673-.006c.072 0 .129.057.129.127a.13.13 0 0 1-.129.131.13.13 0 0 1-.129-.13c0-.071.059-.128.13-.128zm.674-.004c.074 0 .135.059.135.131a.134.134 0 0 1-.135.135.135.135 0 0 1-.135-.135c0-.072.061-.131.135-.131zm.673-.01c.079 0 .142.065.142.141a.142.142 0 1 1-.141-.14zm.673-.007a.15.15 0 0 1 0 .299.15.15 0 0 1 0-.299zm.672-.007a.156.156 0 1 1 0 .312.156.156 0 0 1-.156-.157c0-.085.07-.155.156-.155zm.674-.01c.091 0 .164.075.164.165a.165.165 0 0 1-.164.167.165.165 0 0 1 0-.331zm.673-.006a.172.172 0 1 1 0 .345.172.172 0 0 1 0-.345zM.75 1.517c.046 0 .082.037.082.083 0 .043-.036.08-.082.08-.04 0-.066-.028-.074-.063V1.58c.008-.036.035-.063.074-.063zm.674-.003a.084.084 0 0 1 0 .167.084.084 0 1 1 0-.167zm.672 0c.047 0 .085.037.085.086a.085.085 0 0 1-.169 0c0-.05.039-.086.084-.086zm.673-.003c.047 0 .086.04.086.089a.086.086 0 0 1-.172 0c0-.05.04-.09.086-.09zm.674-.002a.09.09 0 0 1 .087.09.088.088 0 0 1-.176 0c0-.049.04-.09.089-.09zm.673-.002c.05 0 .09.04.09.093 0 .048-.04.087-.09.087-.05 0-.09-.039-.09-.087a.09.09 0 0 1 .09-.093zm.673-.002c.05 0 .092.043.092.095a.092.092 0 1 1-.092-.094zm.673-.001c.052 0 .093.042.093.096 0 .05-.041.09-.093.09a.092.092 0 0 1-.094-.09c0-.054.042-.096.094-.096zm.672-.005c.055 0 .099.045.099.1a.095.095 0 0 1-.099.094.096.096 0 0 1-.097-.093.1.1 0 0 1 .097-.1zm.674-.003c.055 0 .101.047.101.104 0 .054-.046.1-.1.1a.1.1 0 0 1-.1-.1c0-.057.045-.104.1-.104zm.674 0c.056 0 .103.045.103.104a.103.103 0 0 1-.207 0c0-.06.048-.105.104-.105zm.673-.005a.107.107 0 0 1 0 .214.107.107 0 0 1 0-.214zm.672-.007c.063 0 .114.05.114.116 0 .06-.05.109-.114.109a.11.11 0 0 1-.11-.11c0-.065.05-.115.11-.115zm.675-.004c.062 0 .114.054.114.12a.115.115 0 0 1-.114.113.115.115 0 0 1-.118-.113c0-.066.053-.12.118-.12zm.672-.005c.066 0 .12.055.12.125a.121.121 0 0 1-.241 0c0-.07.054-.125.12-.125zm.673-.004c.07 0 .125.057.125.129a.125.125 0 0 1-.25 0c0-.072.057-.129.125-.129zm.673-.005c.073 0 .131.059.131.134 0 .07-.058.127-.131.127a.129.129 0 0 1-.13-.127c0-.075.058-.134.13-.134zm.673-.006c.076 0 .139.061.139.14a.137.137 0 0 1-.139.135.136.136 0 0 1-.138-.135c0-.079.062-.14.138-.14zm.674-.006c.078 0 .143.063.143.146a.145.145 0 0 1-.143.142.144.144 0 0 1-.143-.142c0-.083.063-.146.143-.146zm.673-.005a.15.15 0 0 1 .15.15c0 .081-.067.147-.15.147a.148.148 0 1 1 0-.297zm.673-.006c.086 0 .157.068.157.157a.156.156 0 1 1-.313 0c0-.09.07-.157.156-.157zm.672-.01c.092 0 .166.074.166.167a.167.167 0 0 1-.166.164.165.165 0 0 1 0-.33zm.674-.007a.172.172 0 0 1 0 .344.172.172 0 0 1 0-.344zm.673-.01a.181.181 0 0 1 0 .363.182.182 0 0 1 0-.363zM.75.835c.048 0 .09.041.09.09a.09.09 0 0 1-.09.089C.715 1.014.691.99.676.962V.887C.69.86.715.835.75.835zm.674-.002c.05 0 .09.041.09.092a.09.09 0 0 1-.09.092.092.092 0 0 1-.092-.092c0-.05.041-.092.092-.092zm.672 0a.092.092 0 0 1 0 .184.091.091 0 0 1-.092-.092c0-.05.04-.092.092-.092zM2.77.83c.05 0 .094.044.094.095a.094.094 0 0 1-.094.093.092.092 0 0 1-.093-.093c0-.05.042-.095.093-.095zm.674 0c.053 0 .095.042.095.095a.096.096 0 0 1-.095.096.096.096 0 0 1-.095-.096c0-.053.042-.095.095-.095zm.673-.002c.054 0 .096.044.096.097a.097.097 0 0 1-.096.097.1.1 0 0 1-.099-.097.1.1 0 0 1 .099-.097zm.673-.002a.099.099 0 1 1 0 0zm.673-.004c.058 0 .102.046.102.103a.102.102 0 0 1-.102.102.102.102 0 1 1 0-.205zm.672 0c.058 0 .106.045.106.103a.104.104 0 0 1-.106.104.103.103 0 0 1-.103-.104c0-.058.047-.104.103-.104zm.674-.005c.061 0 .109.048.109.108s-.048.107-.109.107a.108.108 0 0 1-.11-.107c0-.06.05-.108.11-.108zm.674-.004c.063 0 .112.05.112.112a.11.11 0 0 1-.112.11.112.112 0 0 1-.113-.11c0-.062.05-.112.113-.112zm.673-.005c.064 0 .115.053.115.117a.115.115 0 0 1-.115.114.116.116 0 0 1-.116-.114c0-.064.053-.117.116-.117zm.672-.003a.12.12 0 0 1 0 .24.12.12 0 0 1 0-.24zM9.502.8c.068 0 .125.054.125.125a.125.125 0 0 1-.251 0c0-.07.056-.125.126-.125zm.672-.005a.13.13 0 0 1 0 .259.13.13 0 0 1-.13-.13.13.13 0 0 1 .13-.129zm.673-.004c.075 0 .135.057.135.134 0 .074-.06.134-.135.134a.134.134 0 0 1-.134-.134c0-.077.06-.134.134-.134zm.673-.007a.14.14 0 1 1 0 .28.14.14 0 0 1 0-.28zm.673-.006a.147.147 0 0 1 0 .293.148.148 0 0 1-.145-.146c0-.082.065-.147.145-.147zm.674-.005a.15.15 0 0 1 .15.152.15.15 0 1 1-.301 0 .15.15 0 0 1 .151-.152zm.673-.006c.087 0 .16.07.16.158a.16.16 0 0 1-.16.159.158.158 0 1 1 0-.317zm.673-.009c.092 0 .165.075.165.167a.166.166 0 1 1-.165-.166zm.672-.008c.097 0 .175.078.175.175a.173.173 0 0 1-.175.172.172.172 0 0 1-.172-.172c0-.097.077-.175.172-.175zm.674-.007c.1 0 .181.08.181.182 0 .1-.08.18-.18.18-.1 0-.183-.08-.183-.18 0-.102.083-.182.182-.182" fill="#c41e20"/></g></svg>