<svg xmlns="http://www.w3.org/2000/svg" viewBox="0 0 302.3641 81.520866" height="81.521" width="302.364"><defs><clipPath id="a"><path d="M0 0h228v62H0z"/></clipPath></defs><g clip-path="url(#a)" transform="matrix(1.33333 0 0 -1.33333 -1.093 82.59)"><g fill-rule="evenodd"><path d="M223.407 1.316v4.22h.875l1.037-2.988c.096-.278.166-.486.209-.625.05.153.128.38.234.677l1.05 2.936h.781v-4.22h-.56v3.532l-1.274-3.532h-.524l-1.268 3.593V1.316zm-2.608 0v3.722h-1.445v.498h3.476v-.498h-1.451V1.316zM182.732 30.75c-.002 1.122.655 1.711 1.958 1.707h2.831c1.36-.005 2.484-.652 3.402-1.644l17.293-18.135c.565-.585 1.298-.688 1.292-.016l-.002 18.356c.004.895.468 1.43 1.607 1.443l2.787-.008c.854.01 1.601-.368 1.591-1.403l.01-27.89c-.014-1.609-.139-1.932-1.567-1.931h-2.615c-1.116.005-1.705.218-2.473 1.025l-18.454 19.428c-.786.852-1.608.856-1.614-.244l.008-18.845c-.007-.861-.4-1.354-1.433-1.364h-3.198c-.93 0-1.42.42-1.425 1.301zm-16.346 1.703h4.406a1.05 1.05 0 0 0 1.042-1.052V2.281a1.05 1.05 0 0 0-1.042-1.05h-4.406a1.05 1.05 0 0 0-1.042 1.05v29.12a1.05 1.05 0 0 0 1.042 1.052zm-48.167-2.144c0 1.442.725 2.16 2.174 2.151l3.748.001c2.016-.009 2.325-.583 3.45-2.61l8.174-15.162c.429-.773.957-.777 1.406 0l8.88 15.635c.657 1.188 1.358 2.127 2.291 2.137h4.441c1.291-.001 1.913-.183 1.922-1.948l-.008-27.593c-.004-1.33-.423-1.684-1.575-1.691h-3.181c-1.199.003-1.606.61-1.607 1.695l-.001 20.201L137.414 2.93c-.748-1.384-1.413-1.366-2.162-.005l-11.107 20.489.004-20.489c-.026-1.13-.502-1.687-1.465-1.687h-2.748c-1.048.009-1.719.463-1.717 1.711zm-32.264-4.668c.007 1.209.8 1.766 2.252 1.774l8.435.008c3.508.003 7.048-1.374 7.056-4.574.019-2.736-2.326-4.328-6.631-4.305l-8.836-.016c-1.32-.011-2.277.572-2.268 1.775zm-6.607 4.865c-.003 1.195.798 1.954 2.236 1.947l16.176.016c7.106 0 12.745-2.265 12.773-9.288-.03-4.628-2.154-6.937-6.804-8.39-1.155-.357-1.365-1.072-.63-2.144l7.119-10.18c.613-.874.292-1.231-.669-1.234l-4.339.004c-1.2-.008-1.666.124-2.269.955l-7.339 10.013c-.843 1.209-1.997 1.717-3.591 1.71l-5.922-.007-.118-10.983c-.006-1.123-.484-1.688-1.434-1.696h-3.63c-1.18.001-1.556.651-1.56 1.704zm-23.43-7.476c.281.621.649.65.964 0l5.623-11.582c.413-.851.129-1.32-1.008-1.325H51.25c-.834.003-1.156.542-.812 1.238zm-2.661 6.9c.748 1.525 1.228 2.527 3.63 2.516 2.303.01 2.759-.877 3.544-2.414l13.75-26.809c.85-1.666.41-1.991-1.086-1.994h-4.111c-1.268.001-1.587.14-2.048 1.096l-1.15 2.361c-.386.798-.716.961-2.386.962H49.217c-1.1-.003-1.585-.256-1.918-.993l-.996-2.101c-.537-1.15-.878-1.325-2.11-1.325h-3.12c-1.096 0-1.489.48-.948 1.592zm-22.61-4.92c1.14-.573 1.895-.648 2.332.126l1.44 2.712c.494.844.21 1.474-.503 1.893-6.513 3.628-18.544 4.698-25.571.505-8.78-5.366-9.883-18.351-3.276-24.349C11.92-.815 24.243 0 33.813 3.232c1.754.689 1.937 1.388 1.937 3.927v9.146c.009 1.332-.85 2.208-2.189 2.223l-12.553-.015c-.936.002-1.383-.474-1.386-1.388v-1.892c.006-.878.526-1.32 1.56-1.325l7.28.004c1.09-.003 1.55-.464 1.555-1.282V7.71C22.09 4.7 13.596 5.583 10.11 9.95c-4.523 6.177-1.504 15.265 4.757 16.637 5.597 1.366 10.857.841 15.782-1.577" fill="#fff"/><path d="M197.376 60.873l-9.73-17.003c-1.197-1.837-.692-3.721 1.513-3.73l19.751.024c2.683-.005 3.107 1.477 1.606 3.974l-9.588 16.731c-.909 1.423-2.707 1.44-3.552.004" fill="#00adef"/></g></g></svg>