<svg xmlns="http://www.w3.org/2000/svg" viewBox="0 0 40.906624 58.405789" height="58.406" width="40.907"><defs><clipPath id="a"><path d="M0 0h32v45H0z"/></clipPath></defs><g transform="matrix(-1.33333 0 0 -1.33333 41.644 59.28)" clip-path="url(#a)" fill="#fff"><path d="M26.744 39.967a15.252 15.252 0 0 1-10.847 4.493 15.254 15.254 0 0 1-10.852-4.493C-.315 34.604-.982 24.52 3.604 18.406L15.897.656l12.269 17.726c4.606 6.137 3.938 16.222-1.422 21.585zM16.037 23.66a5.607 5.607 0 0 0-5.601 5.6 5.606 5.606 0 0 0 5.6 5.598 5.605 5.605 0 0 0 5.599-5.598c0-3.088-2.512-5.6-5.598-5.6"/></g></svg>