<svg xmlns="http://www.w3.org/2000/svg" viewBox="0 0 34.134914 25.598454" height="25.598" width="34.135"><defs><clipPath id="a"><path d="M0 0h26v20H0z"/></clipPath></defs><g clip-path="url(#a)" transform="matrix(-1.33333 0 0 1.33333 34.313 -.541)"><path d="M20.934 10.002h-2.398a.8.8 0 0 1-.668-1.242l3.203-4.8a.799.799 0 0 1 1.329 0l3.198 4.8a.795.795 0 0 1-.664 1.242h-2.398c0 5.298-4.309 9.603-9.602 9.603a.802.802 0 0 1 0-1.602c4.41 0 8-3.587 8-8zm2.504-1.596l-1.703-2.559-1.707 2.559zm-9.703-7.2a.797.797 0 0 1-.8.797c-4.41 0-8 3.59-8 8h2.402a.802.802 0 0 1 .664 1.247l-3.2 4.796a.8.8 0 0 1-1.332.003L.27 11.25a.808.808 0 0 1-.136-.446c0-.128.032-.257.098-.375a.795.795 0 0 1 .702-.426h2.403c0-5.292 4.304-9.596 9.597-9.596a.8.8 0 0 1 .801.8zM2.43 11.606l1.704 2.558 1.707-2.558z" fill="#373737"/></g></svg>