<svg xmlns="http://www.w3.org/2000/svg" width="101.333" height="61.367" viewBox="0 0 26.811018 16.236805"><path d="M21.685 10.388c-.528-.516-.752-.912-.751-1.346 0-.423.219-.833.577-1.403.358-.57.843-1.226 1.336-1.895.836-1.133 1.698-2.3 1.959-3.063.063-.184.093-.292.076-.321-.015-.025-.115-.04-.318-.051H23.9c-1.013 0-2.056 0-3.1-.006l-.091-.001c-.236-.003-.387-.006-.49.254a24.963 24.963 0 0 1-1.188 2.595c-.458.85-.983 1.662-1.598 2.378-.345.402-.744.692-1.123.82a1.195 1.195 0 0 1-.726.035.972.972 0 0 1-.576-.476c-.155-.273-.242-.665-.228-1.194v-.003c.034-.949.022-1.944.01-2.927-.006-.475-.012-.947-.012-1.413h-.001c0-.208-.036-.345-.112-.42-.075-.075-.21-.108-.409-.108h-3.739c-.07 0-.13.004-.184.015l.023.013c.15.09.282.199.4.326.136.148.246.316.331.506.084.186.142.39.175.614.082.544.12 1.1.127 1.66.006.56-.02 1.113-.066 1.654-.032.377-.125.933-.377 1.335-.196.314-.482.536-.895.536-.24 0-.472-.09-.682-.22a3.006 3.006 0 0 1-.656-.583 10.667 10.667 0 0 1-.832-1.134 22.761 22.761 0 0 1-1.48-2.684 24.92 24.92 0 0 1-.529-1.208c-.06-.15-.123-.241-.2-.29-.078-.05-.19-.068-.343-.07-.54-.008-1.08-.013-1.62-.013v.001c-.568 0-1.11.004-1.618.015H2.07c-.137.003-.244.005-.28.021-.033.015.066.019.121.142 1.228 2.73 2.616 5.805 4.555 8.142h.001c1.917 2.31 4.385 3.91 7.797 3.752.303-.015.447-.042.498-.106.055-.07.065-.25.081-.544.028-.505.135-1.28.458-1.833.245-.42.607-.72 1.137-.72.774 0 1.494.808 2.222 1.624.547.614 1.1 1.234 1.621 1.446.526.214 2.495.17 3.72.143.328-.007.607-.013.757-.014a.095.095 0 0 0 .025-.009h.001c.026-.013.045-.045.058-.086a.634.634 0 0 0-.047-.427c-.529-1.025-1.526-1.962-2.444-2.826a48.28 48.28 0 0 1-.665-.632zm3.001 5.826h-3.411a3.768 3.768 0 0 1-1.732-.286 4.469 4.469 0 0 1-1.442-1.008c-.226-.23-.464-.502-.704-.777-.23-.262-.463-.528-.69-.76-.043.219-.068.444-.091.662-.116 1.066-.217 2.004-2.112 2.155-3.94.315-6.843-1.438-9.1-4.03C3.17 9.609 1.579 6.23.232 3.237A2.472 2.472 0 0 1 0 2.272a1.672 1.672 0 0 1 .25-.936c.17-.271.424-.49.756-.64A2.711 2.711 0 0 1 2.067.479L2.46.471c1.02-.02 2.127-.044 3.11.01.462.027.872.183 1.211.437.351.263.624.63.8 1.064.16.395.323.77.489 1.123a20.448 20.448 0 0 0 1.155 2.131c.101.162.206.323.314.484l.005-.105c.009-.247.012-.48.008-.699a10.478 10.478 0 0 0-.11-1.332c-.023-.152-.117-.173-.237-.2a1.5 1.5 0 0 1-.375-.12 1.465 1.465 0 0 1-.402-.292 1.348 1.348 0 0 1-.304-.498 1.392 1.392 0 0 1-.082-.465c0-.433.206-.83.522-1.155.3-.31.703-.555 1.12-.7.28-.1.568-.154.835-.154h3.856c.7 0 1.246.259 1.626.68.406.45.615 1.083.616 1.78l.001 3.12c.323-.462.616-.957.885-1.468.385-.733.717-1.495 1.011-2.233.225-.565.533-.92.925-1.134.384-.211.836-.28 1.363-.28l1.777.003c.519.001 1.04.003 2.073.003l.014.001c.475.027.892.15 1.23.344.299.173.535.403.694.675.16.274.238.59.22.927a2.154 2.154 0 0 1-.304.955c-.224.388-1.226 1.874-2.143 3.234-.834 1.237-1.606 2.271-1.602 2.32.003.023.234.192.582.512.784.72 2.069 1.903 2.799 3.074.335.537.519 1.159.519 1.733 0 .338-.064.663-.198.95a1.674 1.674 0 0 1-.635.723c-.298.186-.676.295-1.141.295" fill="#747474"/></svg>