<svg xmlns="http://www.w3.org/2000/svg" viewBox="0 0 52.58384 119.01514" height="119.015" width="52.584"><defs><clipPath id="a"><path d="M0 0h40v91H0z"/></clipPath></defs><g clip-path="url(#a)" transform="matrix(1.33333 0 0 -1.33333 -.232 120.252)"><path d="M38.432 10.56l-1.246-5.097c-3.742-1.478-6.73-2.603-8.957-3.375-2.227-.774-4.817-1.16-7.766-1.16-4.53 0-8.054 1.108-10.566 3.311-2.512 2.215-3.77 5.02-3.77 8.418 0 1.322.09 2.672.282 4.055.192 1.38.496 2.938.91 4.676l4.675 16.551c.419 1.582.77 3.086 1.056 4.504.285 1.414.426 2.71.426 3.878 0 2.114-.438 3.594-1.31 4.426-.87.828-2.534 1.246-5.003 1.246-1.208 0-2.45-.191-3.715-.566a49.543 49.543 0 0 1-3.274-1.078l1.25 5.105a117.263 117.263 0 0 0 8.794 3.2c2.8.89 5.444 1.335 7.949 1.335 4.5 0 7.968-1.089 10.405-3.26 2.438-2.177 3.657-5 3.657-8.474 0-.723-.078-1.988-.25-3.801-.168-1.813-.481-3.476-.938-4.988l-4.656-16.484c-.383-1.325-.723-2.84-1.023-4.542-.309-1.693-.454-2.986-.454-3.852 0-2.188.49-3.684 1.465-4.478.985-.792 2.684-1.19 5.094-1.19 1.133 0 2.422.202 3.852.597 1.425.394 2.468.738 3.113 1.043zm1.18 69.203c0-2.872-1.083-5.324-3.258-7.34-2.168-2.023-4.782-3.035-7.84-3.035-3.07 0-5.688 1.012-7.883 3.035-2.19 2.02-3.289 4.468-3.289 7.34 0 2.867 1.099 5.324 3.29 7.367 2.187 2.039 4.815 3.059 7.882 3.059 3.058 0 5.672-1.024 7.84-3.06 2.18-2.042 3.258-4.5 3.258-7.366" fill="#e22325"/></g></svg>