<svg xmlns="http://www.w3.org/2000/svg" viewBox="0 0 104 104" height="104" width="104"><path d="M21.477 100.933L2.91 82.367c-2.763-2.764-2.763-7.285 0-10.048l20.314-20.314L2.91 31.69c-2.763-2.763-2.763-7.285 0-10.047L21.477 3.076c2.762-2.763 7.284-2.763 10.048 0l20.313 20.315L72.152 3.076c2.764-2.763 7.285-2.763 10.048 0l18.567 18.568c2.763 2.762 2.763 7.284 0 10.047L80.453 52.005l20.314 20.314c2.763 2.763 2.763 7.284 0 10.048L82.2 100.933c-2.763 2.764-7.284 2.764-10.048 0L51.838 80.619l-20.313 20.314c-2.764 2.764-7.285 2.764-10.048 0" fill="#e22325" fill-rule="evenodd"/></svg>