<svg xmlns="http://www.w3.org/2000/svg" viewBox="0 0 170.66667 170.66667" height="170.667" width="170.667"><path d="M157.839 167.676l-40.628-40.629c-12.279 10.072-28.007 16.141-45.148 16.141-39.32 0-71.222-31.904-71.222-71.222C.841 32.614 32.744.744 72.063.744c39.317 0 71.22 31.87 71.22 71.222 0 17.142-6.035 32.834-16.106 45.113l40.595 40.629a7.023 7.023 0 0 1 2.07 4.944v.079a7.02 7.02 0 0 1-2.07 4.945 6.95 6.95 0 0 1-4.917 2.07h-.1a6.951 6.951 0 0 1-4.916-2.07zm-28.73-95.71c0-31.489-25.592-57.08-57.046-57.08-31.457 0-57.082 25.591-57.082 57.08 0 31.454 25.625 57.082 57.082 57.082 31.454 0 57.046-25.628 57.046-57.082" fill="#fff"/></svg>