<svg xmlns="http://www.w3.org/2000/svg" width="50.136" height="64.001" viewBox="0 0 13.265279 16.933468"><path d="M9.148 0H0v16.933h13.265V4.116zM4.622 11.351l-1.214.972-.386-.386a.282.282 0 1 0-.4.398l.565.565a.28.28 0 0 0 .375.02l1.411-1.128a.282.282 0 0 0 .045-.397.279.279 0 0 0-.396-.044zm5.538.784H5.644a.283.283 0 0 0 0 .565h4.516a.283.283 0 0 0 0-.565zM4.622 8.246l-1.214.972-.386-.386a.282.282 0 0 0-.4.398l.565.565a.281.281 0 0 0 .375.02l1.411-1.128a.282.282 0 1 0-.35-.44zm5.538.786H5.644a.282.282 0 1 0 0 .563h4.516a.282.282 0 1 0 0-.563zm-5.538-3.89l-1.214.971-.386-.386a.283.283 0 0 0-.4.4l.565.563a.28.28 0 0 0 .375.02l1.411-1.128a.282.282 0 1 0-.35-.44zm5.538.785H5.644a.282.282 0 1 0 0 .563h4.516a.282.282 0 1 0 0-.563zM9.313.963L12.3 3.951H9.313zM.565 16.368V.565H8.75v3.951H12.7v11.852H.565" fill="#e22325"/></svg>