<svg xmlns="http://www.w3.org/2000/svg" viewBox="0 0 33.333332 33.333332" height="33.333" width="33.333"><path d="M23.722 1.08H9.533C4.713 1.08.794 5 .794 9.819v14.189c0 4.818 3.92 8.738 8.739 8.738h14.19c4.817 0 8.738-3.92 8.738-8.738V9.819c0-4.819-3.92-8.739-8.739-8.739zm1.407 5.292c-.541 0-1.073.219-1.455.603a2.067 2.067 0 0 0-.605 1.457c0 .542.22 1.073.605 1.457.382.383.914.603 1.455.603.544 0 1.073-.22 1.457-.603.384-.384.604-.916.604-1.457a2.07 2.07 0 0 0-.604-1.457 2.069 2.069 0 0 0-1.457-.603zm-8.502 2.382c-4.5 0-8.16 3.66-8.16 8.16 0 4.499 3.66 8.16 8.16 8.16s8.16-3.661 8.16-8.16c0-4.5-3.66-8.16-8.16-8.16zm0 13.509a5.356 5.356 0 0 1-5.35-5.35c0-2.95 2.4-5.35 5.35-5.35 2.95 0 5.35 2.4 5.35 5.35 0 2.95-2.4 5.35-5.35 5.35zm13.024 1.745c0 3.27-2.66 5.929-5.929 5.929H9.533c-3.27 0-5.93-2.66-5.93-5.93V9.82c0-3.27 2.66-5.93 5.93-5.93h14.19c3.269 0 5.928 2.66 5.928 5.93v14.189" fill="#747474"/></svg>