<svg xmlns="http://www.w3.org/2000/svg" viewBox="0 0 26.667124 30.531782" height="30.532" width="26.667"><defs><clipPath id="a"><path d="M0 0h21v24H0z"/></clipPath></defs><g clip-path="url(#a)" transform="matrix(1.33333 0 0 -1.33333 -.397 30.717)"><path d="M10.298 23.038c-5.523 0-10-4.477-10-10a10 10 0 0 1 5.184-8.766L5.364.139l4.719 2.911c.07-.004.14-.012.215-.012 5.523 0 10 4.476 10 10 0 5.523-4.477 10-10 10zm-.45-16.016c-.89 0-1.5.66-1.5 1.535 0 .895.626 1.535 1.5 1.535.914 0 1.505-.64 1.52-1.535 0-.875-.606-1.535-1.52-1.535zm2.044 6.278c-.625-.692-.88-1.348-.86-2.11v-.305H8.786l-.015.442c-.051.855.234 1.738.996 2.644.539.645.976 1.184.976 1.758 0 .59-.386.977-1.23 1.009-.555 0-1.235-.2-1.668-.505l-.574 1.84c.605.355 1.616.691 2.816.691 2.227 0 3.238-1.23 3.238-2.632 0-1.282-.793-2.125-1.433-2.832" fill="#e22325"/></g></svg>