<svg xmlns="http://www.w3.org/2000/svg" viewBox="0 0 305.34161 63.999348" height="63.999" width="305.342"><defs><clipPath id="a"><path d="M0 0h230v49H0z"/></clipPath></defs><g clip-path="url(#a)" transform="matrix(1.33333 0 0 -1.33333 -1.001 64.671)"><path d="M229.755 20.459l-.002 19.486v1.83c0 3.727-3.117 6.325-6.324 6.325-3.206 0-6.321-2.565-6.321-6.327h1.845c1.02 0 1.84-.827 1.84-1.848V29.423c0-5.294 4.378-8.964 8.962-8.964" fill="#fff" fill-rule="evenodd"/><path d="M.75 29.592c0-8.48.004-11.9.004-20.374v-1.83c0-3.727 3.116-6.325 6.323-6.325 3.206 0 6.32 2.565 6.32 6.327h-1.844a1.84 1.84 0 0 0-1.84 1.848v11.39c0 5.295-4.38 8.964-8.962 8.964" fill="#e22325" fill-rule="evenodd"/><path d="M12.448 48.102h23.32c12.75 0 23.125-10.371 23.125-23.117 0-12.839-10.309-23.046-23.127-23.094H20.757V17.3l-.003 19.124c5.213 0 10.196-4.175 10.196-10.198V10.828h4.818c7.816 0 14.154 6.343 14.154 14.157 0 7.705-6.415 14.178-14.154 14.178H20.756c-4.683 0-8.308 4.549-8.308 8.939" fill="#fff" fill-rule="evenodd"/><path d="M120.366 1.06c5.945 0 11.514 2.785 13.652 5.392l-2.952 5.16c-7.458-4.307-19.365-4.202-19.365 7.114 0 10.221 10.044 12.055 17.742 7.61l3.192 5.143c-2.457 2.457-6.667 4.565-12.269 4.565-10.463 0-18.026-7.192-18.035-17.535-.008-10.373 7.571-17.448 18.035-17.448M194.833 1.904h9.082V14.54c0 5.593 2.146 9.78 6.812 10.37 4.863.614 4.314 5.084 4.314 9.691-4.942 0-8.282-1.511-11.566-4.795v4.227h-8.642V1.904" fill="#fff"/><path d="M154.208 39.606c-.017-4.332-3.31-8.473-8.149-8.894l-.002-17.875c0-3.649 3.745-4.9 6.594-4.137V2.18c-7.558-3.194-15.755.61-15.755 9.338v28.088h.002l-.002 8.898c4.563 0 8.925-3.64 8.962-8.898h8.35M229.755 1.904l.002 9.038c0 5.295-4.38 8.965-8.962 8.965l-.002-8.962c0-4.995 3.96-9.041 8.962-9.041" fill="#fff" fill-rule="evenodd"/><path d="M9.713 30.135c0 3.035.003 6.008.003 9.039 0 5.294-4.38 8.964-8.962 8.964L.75 39.177c0-4.995 3.96-9.042 8.962-9.042" fill="#e22325" fill-rule="evenodd"/><path d="M67.067 29.611l5.758-3.878c6.824 5.24 16.493 2.527 16.64-6.825.207-13.113-17.713-11.532-17.713-.934 0 5.332-4.355 8.944-9.225 8.944V17.86c0-22.148 36.436-24.713 36.304 1.745-.083 16.437-21.51 22.54-31.764 10.006M159.482 29.611l5.759-3.878c6.823 5.24 16.492 2.527 16.64-6.825.207-13.113-17.713-11.532-17.713-.934 0 5.332-4.355 8.944-9.225 8.944V17.86c0-22.148 36.436-24.713 36.302 1.745-.081 16.437-21.509 22.54-31.763 10.006" fill="#fff"/></g></svg>