<?xml version="1.0" encoding="utf-8"?>
<!-- Generator: Adobe Illustrator 23.0.1, SVG Export Plug-In . SVG Version: 6.00 Build 0)  -->
<svg version="1.1" id="Layer_1" xmlns="http://www.w3.org/2000/svg" xmlns:xlink="http://www.w3.org/1999/xlink" x="0px" y="0px"
	 viewBox="0 0 511.5 512" style="enable-background:new 0 0 511.5 512;" xml:space="preserve">
<style type="text/css">
	.st0{display:none;}
	.st1{display:inline;fill:none;stroke:#0E00FF;stroke-width:13;stroke-linecap:round;stroke-linejoin:round;stroke-miterlimit:10;}
	.st2{display:inline;fill:#0E00FF;}
	.st3{fill:url(#SVGID_1_);}
</style>
<g class="st0">
	<path class="st1" d="M654.3,117c4.8,2.8,8.2,4.5,9,4.2c3-1.4,23.5-39.5,26.2-39.8c2.8-0.3,28.3,37.6,31.7,38.2"/>
	<path class="st1" d="M695.9,438.5c0,0-83.7-25.9-93.2-86.5c0,0-26.7-21.4-27.2-41.1c-0.5-19.8,15.7-33.7,15.7-33.7
		s-16.6,0.4-16.6-20.6c0-20.9,0-22.3,0-22.3l-15.9,8.7c0,0,17.1-37.5,16.6-40.6c-0.5-3-36.5-4.9-38.5-7.1s44.5-21.8,45.1-24.9
		c0.5-3-23.2-38.7-22.4-41.1c0.8-2.4,52.4,9.4,54.1,7.5c1.7-1.8-6.4-46.6-5.1-48c0.7-0.7,13.6,7.7,26.7,16.1"/>
	<path class="st1" d="M695.9,438.5c0,0,84.3-25.8,93.8-86.4c0,0,26.7-21.3,27.3-41.1c0.5-19.8-15.7-33.7-15.7-33.7
		s16.6,0.4,16.6-20.5c0-20.9,0-22.3,0-22.3l15.9,8.7c0,0-17.1-37.5-16.6-40.6s31.4-11.8,33.4-14.1c2-2.2-44.5-23.1-45-26.1
		c-0.5-3,20.6-46.1,19.8-48.5c-0.8-2.4-52.3,17.1-54,15.3c-1.7-1.8-8.7-46.5-10-47.8c-1.3-1.3-37.2,39.6-40.2,38.1"/>
	<polyline class="st1" points="574.6,234.4 614.6,211.4 696,211.4 	"/>
	<polyline class="st1" points="817.7,234.5 777.6,211.4 727.2,211.4 	"/>
	<line class="st1" x1="591.1" y1="277.2" x2="695.9" y2="277.3"/>
	<line class="st1" x1="695.9" y1="277.3" x2="800.7" y2="277.3"/>
	<path class="st1" d="M633.1,211.4c0,0-19.2,30.3-2.4,65.9"/>
	<path class="st1" d="M762,211.4c0,0,19.2,30.3,2.3,65.9"/>
	<path class="st1" d="M603.8,357.4c0,0,24.5-16.1,35.8-16.4"/>
	<path class="st1" d="M620,389.5c0,0,16.4-19,28.3-23.5"/>
	<path class="st1" d="M646.4,413.5c0,0,8.4-14.5,18.4-24"/>
	<path class="st1" d="M788.8,357.5c0,0-24.5-16.1-35.8-16.4"/>
	<path class="st1" d="M772.5,389.5c0,0-16.4-19-28.3-23.5"/>
	<path class="st1" d="M746.1,413.6c0,0-8.4-14.6-18.4-24.1"/>
	<circle class="st2" cx="650.5" cy="304.6" r="10.1"/>
	<circle class="st2" cx="745.3" cy="304.6" r="10.1"/>
</g>
<g>
	
		<linearGradient id="SVGID_1_" gradientUnits="userSpaceOnUse" x1="-22.1201" y1="158.4825" x2="510.4675" y2="317.7034" gradientTransform="matrix(1 0 0 -1 0 512)">
		<stop  offset="0" style="stop-color:#1286FC"/>
		<stop  offset="1" style="stop-color:#04FFA3"/>
	</linearGradient>
	<path class="st3" d="M345.3,221.2c-6.7,0-12.2,5.5-12.2,12.2s5.5,12.2,12.2,12.2s12.2-5.5,12.2-12.2
		C357.4,226.6,352,221.2,345.3,221.2z M415,221.2c-6.7,0-12.2,5.5-12.2,12.2s5.5,12.2,12.2,12.2s12.2-5.5,12.2-12.2
		C427.2,226.6,421.7,221.2,415,221.2z M97,221.2c-6.7,0-12.2,5.5-12.2,12.2s5.5,12.2,12.2,12.2s12.2-5.5,12.2-12.2
		C109.1,226.6,103.7,221.2,97,221.2z M166.7,221.2c-6.7,0-12.2,5.5-12.2,12.2s5.5,12.2,12.2,12.2s12.2-5.5,12.2-12.2
		C178.9,226.6,173.4,221.2,166.7,221.2z M507.6,393.7c-1-4-5.1-6.4-9.1-5.4s-6.4,5.1-5.4,9.1c1.9,7.2,3,14.6,3.5,22.1h-142
		c-1.9-0.8-4-1.4-6.2-1.8c0-0.2,0-0.3,0-0.5c0-33.4-17.3-62.8-43.5-79.6c11.5-9.7,24.5-17,38.6-21.6c5.5,15.1,20,25.7,36.6,25.7
		s31.1-10.5,36.6-25.6c27.8,9.2,51.5,28.6,65.9,55.1c2.1,3.8,7.1,5.1,10.8,2.6c3.2-2.1,4.2-6.5,2.4-9.8
		c-5.9-10.8-13.1-20.6-21.4-29.1c6.9-5.2,12.9-13.1,17.9-23.6c19.6-41.7,19.6-121.5,5.8-157.5c-9.2-24-25.2-44.4-46.4-58.9
		c-21.1-14.6-45.9-22.3-71.6-22.3c-30.6,0-60.2,11.1-83.3,31.4c-3.1,2.7-3.4,7.5-0.7,10.6c2.7,3.1,7.5,3.4,10.6,0.7
		c20.3-17.8,46.4-27.6,73.4-27.6c22.6,0,44.4,6.8,63.1,19.6c18.6,12.8,32.8,30.8,40.9,51.9c12.5,32.6,12.5,107.8-5.3,145.7
		c-4.5,9.6-9.8,16.2-15.7,19.5c-12.8-10.4-27.5-18.3-43.4-23.3c30.9-14.8,52.4-46.4,52.4-82.9V203c0-3.7-2.6-6.8-6.2-7.4
		c-37.1-6.4-62.8-44.1-63.1-44.4c-3.3-4.9-11-4.1-13.2,1.3c-0.2,0.4-18.4,43-93.8,43c-4.1,0-7.5,3.4-7.5,7.5v15.2
		c0,36.5,21.4,68.1,52.3,82.9c-15.7,4.9-30.4,12.8-43.3,23.3c-5.9-3.4-11.2-9.9-15.7-19.5c-17.8-37.9-17.8-113.1-5.3-145.7
		c3.1-8,7.1-15.7,11.9-22.8c2.3-3.4,1.4-8.1-2-10.4c-3.4-2.3-8.1-1.4-10.4,2c-5.5,8-10,16.8-13.5,25.9
		c-13.8,36-13.8,115.7,5.8,157.5c2.5,5.3,5.3,9.9,8.3,13.9c-6.6-1.6-13.4-2.5-20.4-2.7c-0.7-5.9-1.3-14.2,0.2-20.7
		c0.9-4-1.7-8-5.7-8.9s-8,1.7-8.9,5.7c-1.4,6.3-1.4,13.4-1,19.3c-11.8-7.5-14-18.9-14.2-19.6c-0.7-4.1-4.5-6.8-8.6-6.1
		c-4.1,0.7-6.9,4.5-6.2,8.6c0.1,0.8,2.6,14.7,15.2,25.7c-2.3,0.7-4.6,1.5-6.9,2.3c-14.1-12.7-30.6-22-48.3-27.6
		c15.7-7.5,29-19.4,38.2-34c3.8,2,8.1,3,12.5,3c15.1,0,27.3-12.3,27.3-27.3c0-5.8-1.8-11.3-5-15.7c19.6-56.8,10.9-90.1,0-108.1
		s-28.9-29.5-50.9-32.5c-15.6-2.1-28.3,2-35.5,5.3c-10.4-12.4-22.3-19.1-46.9-19.1C83,72.9,43,87.6,21.8,119.7
		c-23.5,35.7-15,77.7-2.7,108c-3,4.4-4.7,9.7-4.7,15.3c0,15.1,12.3,27.3,27.3,27.3c4.4,0,8.7-1.1,12.5-3c9.2,14.6,22.5,26.5,38.1,34
		c-20.8,6.5-39.8,18.2-55.4,34.5c-2.6,2.7-2.8,7.1-0.4,10c2.8,3.4,8.1,3.6,11.2,0.4c13.4-14,29.7-24.2,47.5-30.1
		c5.5,15.1,20,25.7,36.7,25.7c16.6,0,31.1-10.6,36.6-25.6c13.2,4.4,25.6,11.1,36.6,20c-27.6,16.6-46.2,46.8-46.2,81.3
		c0,0.2,0,0.3,0,0.5c-2.1,0.4-4.2,1-6.2,1.8H15.4c1.1-17.9,6.3-35.4,15.3-51c2.1-3.6,0.8-8.2-2.7-10.2c-3.6-2.1-8.2-0.8-10.2,2.8
		C6.3,381,0.2,403.7,0.2,426.8v0.3c0,4.1,3.4,7.5,7.5,7.5H138c-1.3,3.1-2,6.6-2,10.2c0,15.1,12.3,27.3,27.3,27.3
		c3.9,0,7.8-0.8,11.3-2.5c17,25.5,46,42.4,78.9,42.4s61.9-16.9,78.9-42.4c3.5,1.6,7.4,2.5,11.3,2.5c15.1,0,27.3-12.3,27.3-27.3
		c0-3.6-0.7-7-2-10.2h135c4.1,0,7.5-3.4,7.5-7.5v-0.3C511.8,415.6,510.4,404.5,507.6,393.7z M222.1,255.2c-2,0-3.8-0.5-5.5-1.3
		c3.1-7.3,5.3-15.2,6.4-23.3c6.4,0.4,11.5,5.8,11.5,12.3C234.4,249.6,228.9,255.2,222.1,255.2z M34.2,127.8
		c18.1-27.5,52.6-40.1,77-40.1c23.8,0,30.6,6.8,38.9,18.1c2.4,3.2,6.9,4,10.2,1.8c0.1-0.1,13.4-8.7,31.3-6.2
		c17.4,2.4,31.6,11.4,40.1,25.4c12.6,20.9,12.7,52.1,0.3,90.6c-2.6-1-5.3-1.6-8.2-1.8v-12.5c0-3.7-2.6-6.8-6.2-7.4
		c-37.1-6.4-62.8-44.1-63.1-44.4c-3.3-4.9-10.9-4.2-13.2,1.3c0,0.1-4.7,10.9-18.4,21.4c-18.3,14.1-44.3,21.6-75.4,21.6
		c-4.1,0-7.5,3.4-7.5,7.5v12.5c-3.1,0.2-6.1,0.9-8.8,2C17.6,181.7,18.6,151.5,34.2,127.8z M41.6,255.2c-6.8,0-12.3-5.5-12.3-12.3
		c0-6.5,5.1-11.9,11.5-12.3c1.1,8.2,3.3,16,6.4,23.3C45.5,254.7,43.6,255.2,41.6,255.2z M55.2,223.3v-0.1c-0.1-1.7-0.2-3.3-0.2-5
		v-7.8c56.9-2,83.3-27.1,94-41.7c10.3,12.3,31.4,33.3,59.8,40.4v9.1c0,1.7-0.1,3.3-0.2,5v0.1c-2.6,40-36,71.8-76.7,71.8
		C91.2,295.1,57.8,263.4,55.2,223.3z M131.9,326.6c-9.7,0-18.3-5.9-22-14.4c7.2-1.4,14.5-2.1,22-2.1s14.8,0.7,22,2.1
		C150.1,320.7,141.6,326.6,131.9,326.6z M380.1,326.6c-9.7,0-18.3-5.9-22-14.4c7.2-1.4,14.5-2.1,22-2.1s14.8,0.7,22,2.1
		C398.4,320.8,389.9,326.6,380.1,326.6z M303.3,218.2v-7.8c56.9-2,83.3-27.1,94-41.7c10.3,12.3,31.4,33.3,59.8,40.4v9.1
		c0,42.4-34.5,76.9-76.9,76.9S303.3,260.6,303.3,218.2z M163.4,457.1c-6.8,0-12.3-5.5-12.3-12.3c0-5.7,3.9-10.5,9.1-11.9
		c1.4,8.3,3.8,16.2,7.2,23.6C166.1,456.8,164.8,457.1,163.4,457.1z M253.7,497c-44,0-79.8-35.8-79.8-79.8s35.8-79.8,79.8-79.8
		s79.8,35.8,79.8,79.8S297.6,497,253.7,497z M343.9,457.1c-1.4,0-2.7-0.2-4-0.7c3.4-7.4,5.8-15.3,7.2-23.6c5.2,1.4,9.1,6.2,9.1,11.9
		C356.2,451.5,350.7,457.1,343.9,457.1z M218.8,414.1c-6.7,0-12.2,5.5-12.2,12.2s5.5,12.2,12.2,12.2S231,433,231,426.3
		C230.9,419.5,225.5,414.1,218.8,414.1z M288.5,414.1c-6.7,0-12.2,5.5-12.2,12.2s5.5,12.2,12.2,12.2s12.2-5.5,12.2-12.2
		C300.7,419.5,295.2,414.1,288.5,414.1z M281.2,133.2c0,0,8.5-13.9,22.7-25.3 M21.9,369.1c0,0,9.1-17.6,23.4-31.3 M500.8,397.5
		c0,0-3.6-17.4-13.9-34.1"/>
</g>
</svg>
