<svg xmlns="http://www.w3.org/2000/svg" viewBox="0 0 470 470"><linearGradient id="a" gradientUnits="userSpaceOnUse" x1="43.045" y1="418.718" x2="494.045" y2="65.718"><stop offset="0" stop-color="#118ff6"/><stop offset="1" stop-color="#05f8a8"/></linearGradient><path d="M429.6 418.4l-62.2-150.2c-1.6-3.8-6-5.6-9.8-4.1s-5.6 6-4.1 9.8l56.3 135.8-51.3-14.9c-3.4-1-7 .5-8.7 3.6L324 445.2l-60.4-145.7C333.3 286.1 386 224.6 386 151.1 386.1 67.8 318.3 0 235 0S83.9 67.8 83.9 151.1c0 33.8 11.1 65 29.9 90.1L40.4 418.4c-1.1 2.7-.6 5.7 1.3 7.9 1.9 2.1 4.9 3 7.7 2.2l60.5-17.5 30.4 55.2c1.3 2.4 3.8 3.9 6.6 3.9h.4c2.9-.2 5.4-2 6.5-4.6L212 325c1.6-3.8-.2-8.2-4.1-9.8-3.8-1.6-8.2.2-9.8 4.1L146 445.2l-25.8-46.8a7.49 7.49 0 0 0-8.7-3.6l-51.3 14.9 64.4-155.5c27.6 29.5 66.9 48 110.4 48 4.5 0 8.9-.2 13.3-.6l67.8 163.7c1.1 2.7 3.6 4.5 6.5 4.6h.4c2.7 0 5.2-1.5 6.6-3.9l30.4-55.2 60.5 17.5c2.8.8 5.8-.1 7.7-2.2s2.5-5.1 1.4-7.7zM98.9 151.1c0-75 61-136.1 136.1-136.1s136.1 61.1 136.1 136.1-61 136.1-136.1 136.1-136.1-61-136.1-136.1zM321.7 123c-.9-2.7-3.1-4.6-5.9-5.1l-50.5-8.5L241.7 64c-1.3-2.5-3.9-4-6.7-4-2.8 0-5.4 1.6-6.7 4l-23.6 45.4-50.5 8.5c-2.8.5-5 2.4-5.9 5.1-.9 2.7-.2 5.6 1.8 7.6L186 167l-7.5 50.6c-.4 2.8.7 5.5 3 7.2 2.3 1.6 5.2 1.9 7.8.6l45.8-22.8 45.8 22.8c1.1.5 2.2.8 3.3.8 1.6 0 3.1-.5 4.4-1.4 2.3-1.6 3.4-4.4 3-7.2L284 167l35.9-36.5c1.9-2 2.6-4.9 1.8-7.5zm-51 36.2c-1.6 1.7-2.4 4-2.1 6.4l6 40.1-36.3-18.1c-1.1-.5-2.2-.8-3.3-.8-1.1 0-2.3.3-3.3.8l-36.3 18.1 6-40.1c.3-2.3-.4-4.7-2.1-6.4l-28.4-28.9 40-6.7c2.3-.4 4.3-1.8 5.4-3.9l18.7-36 18.7 35.9c1.1 2.1 3.1 3.5 5.4 3.9l40 6.7-28.4 29zm77.9-.5c-4.1-.5-7.9 2.3-8.4 6.4-7 52.5-52.2 92.1-105.2 92.1-58.5 0-106.1-47.6-106.1-106.1S176.5 45 235 45c53 0 98.2 39.6 105.2 92.1.5 4.1 4.3 7 8.4 6.4 4.1-.5 7-4.3 6.4-8.4C347.1 75.2 295.5 30 235 30c-66.8 0-121.1 54.3-121.1 121.1S168.2 272.2 235 272.2c60.5 0 112.1-45.2 120.1-105.1.5-4.1-2.4-7.9-6.5-8.4z" fill="url(#a)"/></svg>