<svg id="Capa_1" xmlns="http://www.w3.org/2000/svg" viewBox="0 0 491.1 491.1"><style>.st0{display:none}.st1{display:inline}</style><path class="st0" d="M401.5 323c-12 0-23.4 4.7-32 13.2-8.6 8.6-13.4 19.8-13.4 31.8s4.7 23.2 13.4 31.8c8.7 8.5 20 13.2 32 13.2 24.6 0 44.6-20.2 44.6-45s-20-45-44.6-45zm0 70c-13.8 0-25.4-11.4-25.4-25s11.6-25 25.4-25c13.6 0 24.6 11.2 24.6 25s-11 25-24.6 25zm11.6-220c-1.8-1.7-4.2-2.6-6.7-2.6h-51.3c-5.5 0-10 4.5-10 10v81.9c0 5.5 4.5 10 10 10h81.3c5.5 0 10-4.5 10-10v-54.9c0-2.8-1.2-5.5-3.3-7.4l-30-27zm8 79.5h-50.6c-3 0-5.4-2.4-5.4-5.4v-51.3c0-3 2.4-5.4 5.4-5.4h29.9c1.3 0 2.6.5 3.6 1.4l20.7 18.6c1.1 1 1.8 2.5 1.8 4v32.7c0 2.9-2.4 5.4-5.4 5.4zM157.3 323c-12 0-23.4 4.7-32 13.2-8.6 8.6-13.4 19.8-13.4 31.8s4.7 23.2 13.4 31.8c8.7 8.5 20 13.2 32 13.2 24.6 0 44.6-20.2 44.6-45s-20-45-44.6-45zm0 70c-13.8 0-25.4-11.4-25.4-25s11.6-25 25.4-25c13.6 0 24.6 11.2 24.6 25s-11 25-24.6 25zm-67-57.7H70.5v-26.2c0-5.2-3.8-9.8-9-10.3-5.9-.6-11 4.1-11 10v36.6c0 5.5 4.5 10 10 10h30.1c5.8 0 10.5-5 10-11-.5-5.3-5.1-9.1-10.3-9.1zm51-55c-.2-5.3-5.1-9.6-10.4-9.6H10.2c-4.9 0-9.3 3.4-10.1 8.3-1.1 6.3 3.8 11.7 9.9 11.7h121.3c5.6.1 10.2-4.6 10-10.4zm-111-35.6l121.3.7c5.5 0 10-4.4 10.1-9.9.1-5.6-4.4-10.1-9.9-10.1l-121.3-.7h-.1c-5.5 0-10 4.4-10 9.9-.1 5.6 4.4 10.1 9.9 10.1zm20.4-45.4h121c5.2 0 9.8-3.8 10.3-9 .6-5.9-4.1-11-10-11H51c-5.2 0-9.8 3.8-10.3 9-.5 5.9 4.2 11 10 11zm436.7-13.5l-71.6-59.3c-1.8-1.5-4-2.3-6.4-2.3h-84.2v-22.4c0-11.3-9.2-20.5-20.5-20.5H69.2c-10.3 0-18.7 8.4-18.7 18.7v61.2c0 5.2 3.8 9.8 9 10.3 5.9.6 11-4.1 11-10v-52.3c0-6 4.9-10.9 10.9-10.9h211.1c7.1 0 13.8 5.7 13.8 12.8l-1 224.2h-81.6c-5.2 0-9.8 3.8-10.3 9-.6 5.9 4.1 11 10 11h121.8c5.2 0 9.8-3.8 10.3-9 .6-5.9-4.1-11-10-11h-20.1v-182c0-5 4.1-9.1 9.1-9.1h51.2c13.1 0 25.8 4.6 35.9 12.9l38.6 32c6.9 5.7 10.9 14.3 10.9 23.3l-.7 122.6h-10c-5.2 0-9.8 3.8-10.3 9-.6 5.9 4.1 11 10 11h20.3c5.5 0 10-4.4 10-9.9l.8-151.6c-.2-3-1.5-5.8-3.8-7.7z"/><g class="st0"><path class="st1" d="M141.3 280.3c-.2-5.3-5.1-9.6-10.4-9.6H10.2c-4.9 0-9.3 3.4-10.1 8.3-1.1 6.3 3.8 11.7 9.9 11.7h121.3c5.6 0 10.2-4.6 10-10.4zm-51 54.9H70.5V309c0-5.2-3.8-9.8-9-10.3-5.9-.6-11 4.1-11 10v36.6c0 5.5 4.5 10 10 10h30.1c5.8 0 10.5-5 10-11-.5-5.2-5.1-9.1-10.3-9.1zM413.1 173c-1.8-1.7-4.2-2.6-6.7-2.6h-51.3c-5.5 0-10 4.5-10 10v81.9c0 5.5 4.5 10 10 10h81.3c5.5 0 10-4.5 10-10v-54.9c0-2.8-1.2-5.5-3.3-7.4l-30-27zm13.4 74.1c0 3-2.4 5.4-5.4 5.4h-50.6c-3 0-5.4-2.4-5.4-5.4v-51.3c0-3 2.4-5.4 5.4-5.4h29.9c1.3 0 2.6.5 3.6 1.4l20.7 18.6c1.1 1 1.8 2.5 1.8 4v32.7zM50.7 199.2h121c5.2 0 9.8-3.8 10.3-9 .6-5.9-4.1-11-10-11H51c-5.2 0-9.8 3.8-10.3 9-.5 6 4.2 11 10 11zm-20.4 45.4l121.3.7c5.5 0 10-4.4 10.1-9.9.1-5.6-4.4-10.1-9.9-10.1l-121.3-.7h-.1c-5.5 0-10 4.4-10 9.9-.1 5.6 4.4 10.1 9.9 10.1zm127 78.3c-12 0-23.4 4.7-32 13.2-8.6 8.6-13.4 19.8-13.4 31.8s4.7 23.2 13.4 31.8c8.7 8.5 20 13.2 32 13.2 24.6 0 44.6-20.2 44.6-45s-20-45-44.6-45zm0 70c-13.8 0-25.4-11.4-25.4-25s11.6-25 25.4-25c13.6 0 24.6 11.2 24.6 25s-11 25-24.6 25zm244.2-70c-12 0-23.4 4.7-32 13.2-8.6 8.6-13.4 19.8-13.4 31.8s4.7 23.2 13.4 31.8c8.7 8.5 20 13.2 32 13.2 24.6 0 44.6-20.2 44.6-45s-20-45-44.6-45zm0 70c-13.8 0-25.4-11.4-25.4-25s11.6-25 25.4-25c13.6 0 24.6 11.2 24.6 25s-11 25-24.6 25z"/><path class="st1" d="M477.8 176.7l-55.1-44.6c-9.1-6.3-19.8-7.7-25.7-8h-71.8v-22.4c0-11.3-9.2-20.5-20.5-20.5H69.2c-10.3 0-18.7 8.4-18.7 18.7V161c0 5.2 3.8 9.8 9 10.3 5.9.6 11-4.1 11-10V109c0-6 4.9-10.9 10.9-10.9h211.1c7.1 0 13.8 5.7 13.8 12.8l-1 224.2h-81.6c-5.2 0-9.8 3.8-10.3 9-.6 5.9 4.1 11 10 11h121.8c5.2 0 9.8-3.8 10.3-9 .6-5.9-4.1-11-10-11h-20.1V153.3c0-5 4.1-9.1 9.1-9.1h51.2c13.1 0 25.8 4.6 35.9 12.9l38.6 32c6.9 5.7 10.9 14.3 10.9 23.3l-.7 122.6h-10c-5.2 0-9.8 3.8-10.3 9-.6 5.9 4.1 11 10 11h20.3c5.5 0 10-4.4 10-9.9l.8-137.5c-.1-2.4-.1-20.9-13.4-30.9z"/></g><linearGradient id="SVGID_1_" gradientUnits="userSpaceOnUse" x1="9.761" y1="315.052" x2="483.055" y2="173.557"><stop offset="0" stop-color="#1286fc"/><stop offset="1" stop-color="#04ffa3"/></linearGradient><path d="M141.3 280.3c-.2-5.3-5.1-9.6-10.4-9.6H10.2c-4.9 0-9.3 3.4-10.1 8.3-1.1 6.3 3.8 11.7 9.9 11.7h121.3c5.6 0 10.2-4.6 10-10.4zm-51 54.9H70.5V309c0-5.2-3.8-9.8-9-10.3-5.9-.6-11 4.1-11 10v36.6c0 5.5 4.5 10 10 10h30.1c5.8 0 10.5-5 10-11-.5-5.2-5.1-9.1-10.3-9.1zm-39.6-136h121c5.2 0 9.8-3.8 10.3-9 .6-5.9-4.1-11-10-11H51c-5.2 0-9.8 3.8-10.3 9-.5 6 4.2 11 10 11zm-20.4 45.4l121.3.7c5.5 0 10-4.4 10.1-9.9.1-5.6-4.4-10.1-9.9-10.1l-121.3-.7h-.1c-5.5 0-10 4.4-10 9.9-.1 5.6 4.4 10.1 9.9 10.1zm127 78.3c-12 0-23.4 4.7-32 13.2-8.6 8.6-13.4 19.8-13.4 31.8s4.7 23.2 13.4 31.8c8.7 8.5 20 13.2 32 13.2 24.6 0 44.6-20.2 44.6-45s-20-45-44.6-45zm0 70c-13.8 0-25.4-11.4-25.4-25s11.6-25 25.4-25c13.6 0 24.6 11.2 24.6 25s-11 25-24.6 25zm244.2-70c-12 0-23.4 4.7-32 13.2-8.6 8.6-13.4 19.8-13.4 31.8s4.7 23.2 13.4 31.8c8.7 8.5 20 13.2 32 13.2 24.6 0 44.6-20.2 44.6-45s-20-45-44.6-45zm0 70c-13.8 0-25.4-11.4-25.4-25s11.6-25 25.4-25c13.6 0 24.6 11.2 24.6 25s-11 25-24.6 25zm76.3-216.2l-55.1-44.6c-9.1-6.3-19.8-7.7-25.7-8h-71.8v-22.4c0-11.3-9.2-20.5-20.5-20.5H69.2c-10.3 0-18.7 8.4-18.7 18.7V161c0 5.2 3.8 9.8 9 10.3 5.9.6 11-4.1 11-10V109c0-6 4.9-10.9 10.9-10.9h211.1c7.1 0 13.8 5.7 13.8 12.8l-1 224.2h-81.6c-5.2 0-9.8 3.8-10.3 9-.6 5.9 4.1 11 10 11h121.8c5.2 0 9.8-3.8 10.3-9 .6-5.9-4.1-11-10-11h-20.1V153.3c0-5 4.1-9.1 9.1-9.1h51.2c13.1 0 25.8 4.6 35.9 12.9l38.6 32c6.9 5.7 10.9 14.3 10.9 23.3l-.7 122.6h-10c-5.2 0-9.8 3.8-10.3 9-.6 5.9 4.1 11 10 11h20.3c5.5 0 10-4.4 10-9.9l.8-137.5c-.1-2.4-.1-20.9-13.4-30.9z" fill="url(#SVGID_1_)"/></svg>