<svg xmlns="http://www.w3.org/2000/svg" viewBox="0 0 861.9 548.2"><linearGradient id="a" gradientUnits="userSpaceOnUse" x1="-151.419" y1="417.388" x2="925.395" y2="95.467"><stop offset="0" stop-color="#1286fc"/><stop offset="1" stop-color="#04ffa3"/></linearGradient><path d="M73.1 383.7h73.1v36.5H73.1v-36.5zm109.6 0h109.6v36.5H182.7v-36.5zm191.9 73.1H45.7c-2.5 0-4.6-.9-6.4-2.7-1.8-1.8-2.7-3.9-2.7-6.4V274.1h378.3L439 164.5H36.5v-64c0-2.5.9-4.6 2.7-6.4s4-2.7 6.4-2.7H455l7.4-33.4.7-3.1H45.7c-12.6 0-23.3 4.5-32.3 13.4C4.5 77.2 0 87.9 0 100.5v347.2C0 460.3 4.5 471 13.4 480c9 8.9 19.7 13.4 32.3 13.4h320.8l8.1-36.6zm127.6-402L425 408.2h102.2l25-117.1h72.9c69.7 0 127.6-43 143.2-116C786 92.4 726.6 54.8 675.7 54.8H502.2zm86.2 71.9h50c24.9 0 41.9 21.6 34.6 48.4-6.3 26.9-32.5 48.4-58.5 48.4h-47.9l21.8-96.8zm217.1 20.7c-.1 10.6-1.1 22.1-3.7 34.6-6.9 32.5-20.3 61.6-39.1 85.1-19.2 25.1-59.4 41.6-59.4 41.6-23.5 10.7-49.7 16.5-78.2 16.5h-45.2l-19.2 89.9-5.9 27.1h-28.2l-11.2 51.1h101.7l25-117.1H715c69.7 0 128.1-43 143.7-116 13.2-61.4-16.4-98-53.2-112.8z" fill="url(#a)"/></svg>