<?xml version="1.0" encoding="utf-8"?>
<!-- Generator: Adobe Illustrator 23.0.1, SVG Export Plug-In . SVG Version: 6.00 Build 0)  -->
<svg version="1.1" id="Layer_1" xmlns="http://www.w3.org/2000/svg" xmlns:xlink="http://www.w3.org/1999/xlink" x="0px" y="0px"
	 viewBox="0 0 164.1 123.2" style="enable-background:new 0 0 164.1 123.2;" xml:space="preserve">
<style type="text/css">
	.st0{fill:url(#SVGID_1_);}
	.st1{display:none;}
</style>
<linearGradient id="SVGID_1_" gradientUnits="userSpaceOnUse" x1="-3.6108" y1="38.8377" x2="163.3767" y2="88.7598" gradientTransform="matrix(1 0 0 -1 0 126)">
	<stop  offset="0" style="stop-color:#1286FC"/>
	<stop  offset="1" style="stop-color:#04FFA3"/>
</linearGradient>
<path class="st0" d="M27.1,87.9L27.1,87.9c-2.8,0-5.1-2.3-5.1-5.1V40.4c0-2.8,2.3-5.1,5.1-5.1l0,0c2.8,0,5.1,2.3,5.1,5.1v42.4
	C32.2,85.6,29.9,87.9,27.1,87.9z M159,87.9L159,87.9c-2.8,0-5.1-2.3-5.1-5.1V40.4c0-2.8,2.3-5.1,5.1-5.1l0,0c2.8,0,5.1,2.3,5.1,5.1
	v42.4C164.1,85.6,161.8,87.9,159,87.9z M49.1,113L49.1,113c-2.8,0-5.1-2.3-5.1-5.1V15.3c0-2.8,2.3-5.1,5.1-5.1l0,0
	c2.8,0,5.1,2.3,5.1,5.1v92.6C54.2,110.8,51.9,113,49.1,113z M71.1,96.6L71.1,96.6c-2.8,0-5.1-2.3-5.1-5.1V31.8
	c0-2.8,2.3-5.1,5.1-5.1l0,0c2.8,0,5.1,2.3,5.1,5.1v59.7C76.2,94.3,73.9,96.6,71.1,96.6z M93.1,123.2L93.1,123.2
	c-2.8,0-5.1-2.3-5.1-5.1V5.1C88,2.3,90.3,0,93.1,0l0,0c2.8,0,5.1,2.3,5.1,5.1v113C98.2,121,95.9,123.2,93.1,123.2z M115,108.3
	L115,108.3c-2.8,0-5.1-2.3-5.1-5.1V20c0-2.8,2.3-5.1,5.1-5.1l0,0c2.8,0,5.1,2.3,5.1,5.1v83.2C120.1,106,117.9,108.3,115,108.3z
	 M5.1,103.6L5.1,103.6c-2.8,0-5.1-2.3-5.1-5.1V24.7c0-2.8,2.3-5.1,5.1-5.1l0,0c2.8,0,5.1,2.3,5.1,5.1v73.8
	C10.2,101.3,8,103.6,5.1,103.6z M137,75L137,75c-2.8,0-5.1-2.3-5.1-5.1V53.4c0-2.8,2.3-5.1,5.1-5.1l0,0c2.8,0,5.1,2.3,5.1,5.1v16.5
	C142.1,72.7,139.8,75,137,75z"/>
<path class="st1" d="M239.9,65.4c0-2.8-2.2-5.1-5-5.1c-0.1,0-0.2,0-0.3,0l0,0c-0.1,0-0.2,0-0.3,0c-13.7-0.2-13.9-6-27.9-6
	c-14.3,0-14.3,6-28.6,6c-14.3,0-14.3-6-28.6-6s-14.3,6-28.6,6s-14.3-6-28.6-6l0,0l0,0c-2.8,0-5,2.3-5,5.1s2.2,5.1,5,5.1
	c0,0,0,0,0.1,0c14.2,0,14.3,6,28.5,6c14.3,0,14.3-6,28.6-6c14.3,0,14.3,6,28.6,6c14.3,0,14.3-6,28.6-6c14.2,0,14.3,6,28.5,6l0,0l0,0
	c0,0,0,0,0.1,0l0,0C237.7,70.4,239.9,68.2,239.9,65.4z"/>
</svg>
