<svg xmlns="http://www.w3.org/2000/svg" viewBox="0 0 512 512"><linearGradient id="a" gradientUnits="userSpaceOnUse" x1="-68.382" y1="551.108" x2="554.618" y2="1.108"><stop offset="0" stop-color="#118ff6"/><stop offset="1" stop-color="#05f8a8"/></linearGradient><path d="M386 190c11 0 20 9 20 20s-9 20-20 20-20-9-20-20 9-20 20-20zm46-150h-26V20c0-11-9-20-20-20s-20 9-20 20v20h-91V20c0-11-9-20-20-20s-20 9-20 20v20h-90V20c0-11-9-20-20-20s-20 9-20 20v20H80C35.9 40 0 75.9 0 120v312c0 44.1 35.9 80 80 80h153c11 0 20-9 20-20s-9-20-20-20H80c-22.1 0-40-17.9-40-40V120c0-22.1 17.9-40 40-40h25v20c0 11 9 20 20 20s20-9 20-20V80h90v20c0 11 9 20 20 20s20-9 20-20V80h91v20c0 11 9 20 20 20s20-9 20-20V80h26c22.1 0 40 17.9 40 40v114c0 11 9 20 20 20s20-9 20-20V120c0-44.1-35.9-80-80-80zm-41 230c-66.7 0-121 54.3-121 121s54.3 121 121 121 121-54.3 121-121-54.3-121-121-121zm0 202c-44.7 0-81-36.3-81-81s36.3-81 81-81 81 36.3 81 81-36.3 81-81 81zm29-101h-9v-21c0-11-9-20-20-20s-20 9-20 20v41c0 11 9 20 20 20h29c11 0 20-9 20-20s-9-20-20-20zM299 190c11 0 20 9 20 20s-9 20-20 20-20-9-20-20 9-20 20-20zm-87 87c11 0 20 9 20 20s-9 20-20 20-20-9-20-20 9-20 20-20zm-87-87c11 0 20 9 20 20s-9 20-20 20-20-9-20-20 9-20 20-20zm0 87c11 0 20 9 20 20s-9 20-20 20-20-9-20-20 9-20 20-20zm0 87c11 0 20 9 20 20s-9 20-20 20-20-9-20-20 9-20 20-20zm87 0c11 0 20 9 20 20s-9 20-20 20-20-9-20-20 9-20 20-20zm0-174c11 0 20 9 20 20s-9 20-20 20-20-9-20-20 9-20 20-20z" fill="url(#a)"/></svg>