<svg id="Layer_1" xmlns="http://www.w3.org/2000/svg" viewBox="0 0 551 551"><style>.st0{fill:#ff4497}</style><path class="st0" d="M386.9 0H164.2C73.6 0 0 73.6 0 164.2v222.7C0 477.4 73.6 551 164.2 551h222.7c90.5 0 164.2-73.6 164.2-164.2V164.2C551 73.6 477.4 0 386.9 0zm108.7 386.9c0 60-48.7 108.7-108.7 108.7H164.2c-60 0-108.7-48.7-108.7-108.7V164.2c0-60 48.7-108.7 108.7-108.7h222.7c60 0 108.7 48.7 108.7 108.7v222.7z"/><path class="st0" d="M275.5 133C196.9 133 133 196.9 133 275.5S196.9 418 275.5 418 418 354.1 418 275.5 354.1 133 275.5 133zm0 229.6c-48.1 0-87.1-39-87.1-87.1s39-87.1 87.1-87.1c48.1 0 87.1 39 87.1 87.1 0 48.1-39 87.1-87.1 87.1z"/><circle class="st0" cx="418.3" cy="134.1" r="34.1"/></svg>