<?xml version="1.0" encoding="utf-8"?>
<!-- Generator: Adobe Illustrator 23.0.1, SVG Export Plug-In . SVG Version: 6.00 Build 0)  -->
<svg version="1.1" xmlns="http://www.w3.org/2000/svg" xmlns:xlink="http://www.w3.org/1999/xlink" x="0px" y="0px"
	 viewBox="0 0 6735.2 1425" style="enable-background:new 0 0 6735.2 1425;" xml:space="preserve">
<style type="text/css">
	.st0{fill:#FFFFFF;}
</style>
<g id="Layer_1">
	<g id="Layer_4">
		<g id="Layer_19">
		</g>
		<g id="Layer_18">
		</g>
		<g id="Layer_17">
		</g>
		<g id="Layer_16">
		</g>
		<g id="Layer_15">
		</g>
		<g id="Layer_14">
		</g>
		<g id="Layer_13">
		</g>
		<g id="Layer_12">
		</g>
		<g id="Layer_11">
		</g>
		<g id="Layer_10">
		</g>
		<g id="Layer_9">
		</g>
		<g id="Layer_8">
		</g>
		<g id="Layer_7">
		</g>
		<g id="Layer_6">
			<g>
				<path class="st0" d="M28.4,779c-5.2,0-9.4,4-10,9.8L0.1,927.6l18.3,136.5c0.7,5.8,4.8,9.8,10,9.8c5.1,0,9.2-4,10-9.7v0v0
					l21.7-136.5L38.4,788.8C37.6,783,33.4,779,28.4,779L28.4,779z"/>
				<path class="st0" d="M131.2,703.1c-0.9-6-5.1-10.1-10.4-10.1c-5.3,0-9.7,4.2-10.4,10.1c0,0.1-24.6,224.5-24.6,224.5l24.6,219.5
					c0.7,5.9,5.1,10.1,10.4,10.1c5.2,0,9.5-4.1,10.4-10.1l28-219.6L131.2,703.1L131.2,703.1z"/>
				<path class="st0" d="M518.5,496.1c-10.1,0-18.4,8.3-18.9,18.7l-19.6,413l19.6,266.9c0.5,10.4,8.8,18.7,18.9,18.7
					c10,0,18.3-8.3,18.9-18.7v0.1l22.1-267l-22.1-413C536.8,504.3,528.5,496.1,518.5,496.1z"/>
				<path class="st0" d="M318,639.6c-7.7,0-14.1,6.2-14.7,14.4l-22,273.7l22,264.8c0.6,8.2,6.9,14.4,14.7,14.4
					c7.7,0,14-6.2,14.7-14.4l25.1-264.8L332.7,654C332,645.8,325.7,639.6,318,639.6z"/>
				<path class="st0" d="M722.1,1213.4c12.5,0,22.7-10.1,23.2-23L764.5,928l-19.2-549.9c-0.5-12.9-10.7-23-23.2-23
					c-12.6,0-22.8,10.1-23.2,23l-17,549.9l17,262.5C699.4,1203.3,709.5,1213.4,722.1,1213.4z"/>
				<path class="st0" d="M1139.1,1214.6c17.2,0,31.4-14.2,31.7-31.6v0.2v-0.2l13.4-254.9L1170.8,293c-0.3-17.4-14.5-31.6-31.7-31.6
					c-17.2,0-31.5,14.2-31.7,31.6l-12,634.9c0,0.4,12,255.3,12,255.3C1107.6,1200.5,1121.9,1214.6,1139.1,1214.6z"/>
				<path class="st0" d="M929,1213.6c15,0,27-12,27.4-27.3v0.2L972.8,928l-16.3-553.9c-0.4-15.3-12.5-27.3-27.4-27.3
					c-15.1,0-27.2,12-27.5,27.3L887,928l14.5,258.4C901.9,1201.6,913.9,1213.6,929,1213.6L929,1213.6z"/>
				<path class="st0" d="M417.9,1211.2c8.9,0,16.1-7.1,16.8-16.5l23.6-267l-23.6-254c-0.6-9.4-7.8-16.5-16.8-16.5
					c-9,0-16.2,7.1-16.8,16.6l-20.8,253.9l20.8,267C401.6,1204.1,408.8,1211.2,417.9,1211.2z"/>
				<path class="st0" d="M219,1196.6c6.5,0,11.8-5.1,12.5-12.2l26.5-256.7l-26.5-266.4c-0.8-7.1-6-12.3-12.6-12.3
					c-6.6,0-11.9,5.2-12.5,12.3l-23.3,266.4l23.3,256.6C207.1,1191.4,212.4,1196.6,219,1196.6L219,1196.6z"/>
				<path class="st0" d="M1033.7,364.9c-16.3,0-29.3,12.9-29.6,29.5l-13.2,533.7l13.2,256.8c0.3,16.3,13.3,29.3,29.6,29.3
					c16.2,0,29.2-12.9,29.6-29.5v0.2l14.8-256.8l-14.8-533.8C1062.8,377.8,1049.9,364.9,1033.7,364.9L1033.7,364.9z"/>
				<path class="st0" d="M619.9,1213.9c11.2,0,20.5-9.2,21.1-20.9l20.6-265.2L641,420.4c-0.6-11.7-9.8-20.9-21.1-20.9
					c-11.3,0-20.6,9.2-21.1,20.9l-18.3,507.5l18.3,265.3C599.3,1204.8,608.6,1213.9,619.9,1213.9z"/>
				<path class="st0" d="M850.5,1188.9v-0.1L868.2,928l-17.7-568.4c-0.4-14.1-11.6-25.2-25.3-25.2c-13.8,0-24.9,11-25.3,25.2
					L784.1,928l15.8,260.9c0.4,14,11.5,25,25.3,25c13.8,0,24.8-11,25.3-25.1L850.5,1188.9L850.5,1188.9z"/>
				<path class="st0" d="M2192.4,600.3c-42.1,0-82.3,8.5-118.9,23.9c-24.5-277.1-256.8-494.5-540.3-494.5
					c-69.4,0-137,13.7-196.7,36.7c-23.2,9-29.4,18.2-29.6,36.2v975.9c0.2,18.8,14.8,34.5,33.2,36.3c0.8,0.1,846.8,0.5,852.3,0.5
					c169.8,0,307.5-137.7,307.5-307.5C2499.9,738,2362.2,600.3,2192.4,600.3L2192.4,600.3z"/>
				<path class="st0" d="M1244.1,201.8c-18.5,0-33.6,15.2-33.9,33.8l-13.9,692.7l13.9,251.4c0.2,18.4,15.4,33.5,33.9,33.5
					c18.4,0,33.6-15.1,33.8-33.8v0.3l15.1-251.4l-15.1-692.7C1277.6,216.9,1262.5,201.8,1244.1,201.8L1244.1,201.8z"/>
			</g>
		</g>
		<g id="Layer_5">
			<g>
				<path class="st0" d="M3088.8,712.7c-62.1-14.6-79-22.4-79-47c0-17.4,14-35.3,56-35.3c35.9,0,63.9,14.6,89.1,40.3l56.5-54.8
					c-37-38.6-81.8-61.6-142.7-61.6c-77.3,0-140,43.7-140,114.8c0,77.2,50.4,100.2,122.6,117c73.9,16.8,87.4,28,87.4,53.2
					c0,29.7-21.9,42.6-68.3,42.6c-37.5,0-72.8-12.9-100.3-44.9l-56.5,50.4c29.7,43.7,86.8,71.1,152.3,71.1c107,0,154-50.4,154-124.8
					C3219.9,748.5,3151,727.2,3088.8,712.7L3088.8,712.7z"/>
				<path class="st0" d="M3449.5,554.2c-106.9,0-170.2,82.9-170.2,202.1c0,119.3,63.2,202.1,170.2,202.1
					c106.9,0,170.3-82.8,170.3-202.1C3619.8,637.1,3556.5,554.2,3449.5,554.2z M3449.5,880.7c-63.2,0-89.6-54.3-89.6-124.3
					c0-70,26.4-124.3,89.6-124.3c63.3,0,89.6,54.3,89.6,124.3C3539.1,826.3,3512.9,880.7,3449.5,880.7z"/>
				<path class="st0" d="M3936.2,780.4c0,62.7-30.9,101.4-80.6,101.4c-49.8,0-80.1-39.8-80.1-102.5v-219h-78.4v220.1
					c0,114.2,63.9,178,158.5,178c99.7,0,159-65.5,159-179.1v-219h-78.4V780.4z"/>
				<path class="st0" d="M4352.8,726.1c0,21.9,1.1,71.1,1.1,85.7c-5-10.1-17.9-29.7-27.4-44.3l-138.9-207.2h-75v392h77.3V779.8
					c0-21.9-1.1-71.1-1.1-85.7c5,10.1,18,29.7,27.4,44.3l143.9,213.9h70v-392h-77.3L4352.8,726.1L4352.8,726.1L4352.8,726.1z"/>
				<path class="st0" d="M4653.4,560.3h-122.6v392h117c100.8,0,200.5-58.3,200.5-196C4848.3,613,4765.4,560.3,4653.4,560.3z
					 M4647.8,876.2h-38.6V636.5h41.4c82.9,0,117.1,39.7,117.1,119.8C4767.7,828,4730.1,876.2,4647.8,876.2z"/>
				<path class="st0" d="M5090.8,632c35.3,0,57.7,15.7,71.7,42.6l72.8-33.6c-24.7-50.9-69.5-86.8-143.4-86.8
					c-102.4,0-174.1,82.9-174.1,202.1c0,123.7,68.8,202.1,171.3,202.1c71.1,0,118.2-33,145-88.5l-66-39.2
					c-20.7,34.8-41.5,49.9-76.7,49.9c-58.8,0-93-53.8-93-124.3C4998.3,683.6,5032,632,5090.8,632L5090.8,632z"/>
				<polygon class="st0" points="5381.5,560.3 5303.1,560.3 5303.1,952.4 5538.7,952.4 5538.7,875 5381.5,875 5381.5,560.3 				"/>
				<path class="st0" d="M5745.3,554.2L5745.3,554.2c-107,0-170.3,82.9-170.3,202.1c0,119.3,63.2,202.1,170.3,202.1
					c106.9,0,170.2-82.8,170.2-202.1C5915.5,637.1,5852.2,554.2,5745.3,554.2z M5745.3,880.7c-63.3,0-89.6-54.3-89.6-124.3
					c0-70,26.3-124.3,89.6-124.3c63.2,0,89.5,54.3,89.5,124.3C5834.8,826.3,5808.5,880.7,5745.3,880.7z"/>
				<path class="st0" d="M6231.8,780.4c0,62.7-30.7,101.4-80.6,101.4c-49.9,0-80.1-39.8-80.1-102.5v-219h-78.4v220.1
					c0,114.2,63.8,178,158.5,178c99.7,0,159-65.5,159-179.1v-219h-78.4L6231.8,780.4L6231.8,780.4z"/>
				<path class="st0" d="M6530.9,560.3L6530.9,560.3l-122.6,0v392h117c100.9,0,200.5-58.3,200.5-196
					C6725.7,613,6642.9,560.3,6530.9,560.3z M6525.3,876.2h-38.6V636.5h41.5c82.8,0,115.3,39.7,115.3,119.8
					C6643.4,828,6607.6,876.2,6525.3,876.2z"/>
			</g>
		</g>
	</g>
</g>
<g id="Layer_3">
</g>
<g id="Layer_2">
</g>
</svg>
