<?xml version="1.0" encoding="utf-8"?>
<!-- Generator: Adobe Illustrator 23.0.1, SVG Export Plug-In . SVG Version: 6.00 Build 0)  -->
<svg version="1.1" id="Layer_1" xmlns="http://www.w3.org/2000/svg" xmlns:xlink="http://www.w3.org/1999/xlink" x="0px" y="0px"
	 viewBox="0 0 10.8 18.3" style="enable-background:new 0 0 10.8 18.3;" xml:space="preserve">
<style type="text/css">
	.st0{fill-rule:evenodd;clip-rule:evenodd;fill:#FFFFFF;}
</style>
<path id="Rectangle_6_copy" class="st0" d="M1.3,0c0.7,0,1.3,0.6,1.3,1.3l0,0V17c0,0.7-0.6,1.3-1.4,1.3C0.6,18.3,0,17.7,0,17V1.3
	C0,0.6,0.6,0,1.3,0z M9.5,0c0.7,0,1.3,0.6,1.3,1.3V17c0,0.7-0.6,1.3-1.4,1.3c-0.7,0-1.3-0.6-1.3-1.3V1.3C8.1,0.6,8.7,0,9.5,0z"/>
</svg>
