<svg id="Icons" xmlns="http://www.w3.org/2000/svg" viewBox="0 0 75 75"><style>.st0{fill:#00b25c}</style><g id="Find"><path class="st0" d="M29 22.3h5.3c.7 0 1.3-.6 1.3-1.3s-.6-1.3-1.3-1.3H29c-.7 0-1.3.6-1.3 1.3s.6 1.3 1.3 1.3zM48 51.7h-3.5c-.7 0-1.3.6-1.3 1.3s.6 1.3 1.3 1.3H48c.7 0 1.3-.6 1.3-1.3s-.6-1.3-1.3-1.3zM38.8 51.7H29c-.7 0-1.3.6-1.3 1.3s.6 1.3 1.3 1.3h9.9c.7 0 1.3-.6 1.3-1.3s-.7-1.3-1.4-1.3z"/><path class="st0" d="M63.5 52.3l-3.1-3.1V15.6c0-2.6-2.1-4.7-4.7-4.7H25.2v-3c0-.7-.6-1.3-1.3-1.3h-4.5c-2.7 0-4.9 2.1-4.9 4.6v48.1c0 2.6 2.1 4.7 4.7 4.7h36.3c2.6 0 4.7-2.1 4.7-4.7v-.8c1.1.1 2.3-.2 3.1-1.1 1.7-1.3 1.7-3.6.2-5.1zm-46.4-41c0-1.2 1.1-2.1 2.4-2.1h3.3v45.6h-3.3c-.9 0-1.7.2-2.4.6V11.3zm38.6 50.4H19.3c-1.2 0-2.2-1-2.2-2.2s1.1-2.1 2.4-2.1H24c.7 0 1.3-.6 1.3-1.3V13.4h30.5c1.2 0 2.2 1 2.2 2.2v31.1l-1.5-1.5c-.5-.5-1.3-.5-1.8 0l-.9.9-2-2c2-2.4 3.2-5.5 3.2-8.8 0-7.6-6.2-13.8-13.8-13.8-4.6 0-8.6 2.3-11.1 5.7H29c-.7 0-1.3.6-1.3 1.3 0 .6.4 1.1 1 1.2-.8 1.7-1.2 3.6-1.2 5.6 0 3.4 1.2 6.4 3.2 8.8H29c-.7 0-1.3.6-1.3 1.3s.6 1.3 1.3 1.3h4.5c2.2 1.5 4.9 2.4 7.8 2.4 3.3 0 6.4-1.2 8.8-3.2l2 2-.9.9c-.5.5-.5 1.3 0 1.8l6.8 6.8v2.1c-.1 1.2-1.1 2.2-2.3 2.2zM30 35.3C30 29.1 35 24 41.3 24s11.3 5 11.3 11.3-5 11.3-11.3 11.3S30 41.5 30 35.3zm31.8 20.5c-.5.5-1.3.5-1.8 0l-6.2-6.2 1.8-1.8 6.2 6.2c.4.6.4 1.4 0 1.8z"/><path class="st0" d="M44.9 40.7c0-.7-.6-1.3-1.3-1.3h-1.2V32h2.1v.4c0 .7.6 1.3 1.3 1.3s1.3-.6 1.3-1.3v-1.6c0-.7-.6-1.3-1.3-1.3h-9.2c-.7 0-1.3.6-1.3 1.3v1.6c0 .7.6 1.3 1.3 1.3s1.3-.6 1.3-1.3V32H40v7.4h-1.2c-.7 0-1.3.6-1.3 1.3s.6 1.3 1.3 1.3h4.9c.7 0 1.2-.6 1.2-1.3z"/></g></svg>