<svg id="Icons" xmlns="http://www.w3.org/2000/svg" viewBox="0 0 75 75"><style>.st0{fill:#00b25c}</style><g id="Wallet"><path class="st0" d="M68.3 36.3H67v-8.8c0-2.1-1.7-3.8-3.8-3.8h-2.8l-1.5-5.4c-.5-2-2.6-3.2-4.6-2.7l-1.4.4-1.8-4c-.9-1.9-3.1-2.7-5-1.8L17.4 23.8h-1.6c-2.1 0-3.8 1.7-3.8 3.8v14c-4.1 1.9-7 6.1-7 10.9 0 6.7 5.4 12.1 12.1 12.1h46.2c2.1 0 3.8-1.7 3.8-3.7v-8.8h1.3c.7 0 1.3-.6 1.3-1.3V37.5c-.1-.7-.7-1.2-1.4-1.2zm-21-23.7c.6-.3 1.4 0 1.7.6l1.7 3.6-11.4 3c-.7.2-1.1.9-.9 1.5.2.7.9 1.1 1.5.9l15.2-4.1c.7-.2 1.4.2 1.5.9l1.3 4.8H23.3l24-11.2zM7.5 52.5c0-5.3 4.3-9.6 9.6-9.6s9.6 4.3 9.6 9.6-4.3 9.6-9.6 9.6-9.6-4.3-9.6-9.6zm57.1 3.8H41.8c-.7 0-1.3.6-1.3 1.3s.6 1.3 1.3 1.3h22.8V61c0 .7-.6 1.3-1.3 1.3H24.4c1.2-.9 2.2-2 3-3.3h3.4c.7 0 1.3-.6 1.3-1.3s-.6-1.3-1.3-1.3h-2.3c.4-1.2.6-2.4.6-3.8 0-6.7-5.4-12.1-12.1-12.1-.9 0-1.7.1-2.5.3V27.5c0-.7.6-1.3 1.3-1.3h47.5c.7 0 1.3.6 1.3 1.3v8.8H51.7c-2.5 0-4.6 2.1-4.6 4.6v6.7c0 2.5 2.1 4.6 4.6 4.6h12.9v4.1zm2.5-6.7H51.7c-1.1 0-2.1-.9-2.1-2.1v-6.7c0-1.1.9-2.1 2.1-2.1h15.4v10.9z"/><path class="st0" d="M53.3 45.4h1.9c.7 0 1.3-.6 1.3-1.3s-.6-1.3-1.3-1.3h-1.9c-.7 0-1.3.6-1.3 1.3s.6 1.3 1.3 1.3zM36.7 56.3H35c-.7 0-1.3.6-1.3 1.3s.6 1.3 1.3 1.3h1.7c.7 0 1.3-.6 1.3-1.3s-.6-1.3-1.3-1.3zM17.8 58l.1.4c.2.5.7.8 1.2.8.1 0 .3 0 .4-.1.6-.2 1-1 .7-1.6L20 57c.5-.3.9-.8 1.1-1.3.4-.8.4-1.7.1-2.5-.6-1.7-2.5-2.6-4.3-2l-.8.3c-.4.2-.9-.1-1.1-.5-.2-.4.1-.9.5-1.1l1.6-.6c.2.7 1 1 1.6.7.6-.2 1-1 .7-1.6-.2-.6-.7-1.1-1.3-1.4-.6-.3-1.3-.3-1.9-.1l-.1-.4c-.2-.6-1-1-1.6-.7-.6.2-1 1-.7 1.6l.2.5c-1.2.8-1.8 2.4-1.3 3.9.6 1.7 2.5 2.6 4.3 2l.8-.3c.2-.1.4-.1.6 0s.4.3.4.5c.1.2.1.4 0 .6s-.3.4-.5.4l-1.6.6c-.2-.6-1-1-1.6-.7-.6.2-1 1-.7 1.6.2.6.7 1.1 1.3 1.4.3.2.7.2 1.1.2.4.1.7.1 1-.1z"/></g></svg>