<svg id="Icons" xmlns="http://www.w3.org/2000/svg" viewBox="0 0 75 75"><style>.st0{fill:#00b25c}</style><path class="st0" d="M70.1 28.2L55.5 13.6c-1.4-1.4-3.8-1.4-5.3 0l-2 2c-1.4 1.4-1.4 3.6-.2 5.1-1.8 1.5-4.2 2.2-6.5 1.9-2.2-.3-4.4.1-6.4 1.1H35l-5-.6c-.6-.1-1.1-.3-1.5-.7l-1.7-1.7c1.3-1.5 1.3-3.7-.1-5.1l-2-2c-1.4-1.4-3.8-1.4-5.3 0L4.9 28.2c-1.4 1.4-1.4 3.8 0 5.3l2 2c.7.7 1.7 1.1 2.6 1.1s1.8-.3 2.5-1l3.2 3.2c.5.5.8 1.1 1 1.8.7 2.4 1.9 4.7 3.7 6.5-.8 1.6-.6 3.6.7 4.9.8.8 1.9 1.2 2.9 1.2 0 1.1.4 2.1 1.2 2.9.8.8 1.8 1.2 2.9 1.2 0 1.1.4 2.1 1.2 2.9.8.8 1.9 1.2 2.9 1.2.7 0 1.3-.2 1.9-.5l.2.2c.8.8 1.9 1.2 2.9 1.2 1.1 0 2.1-.4 2.9-1.2.4-.4.7-1 .9-1.5l.5.5c.8.8 1.8 1.2 2.9 1.2s2.2-.4 2.9-1.2c.4-.4.7-.9.9-1.5l.6.6c.8.8 1.9 1.2 2.9 1.2 1.1 0 2.1-.4 2.9-1.2.8-.8 1.2-1.8 1.2-2.9 0-1.1-.4-2.2-1.2-2.9l-.6-.6c.6-.2 1.1-.5 1.5-.9.8-.8 1.2-1.8 1.2-2.9 0-.7-.2-1.3-.5-1.9l.2-.2c1.6-1.6 2.7-3.7 3.2-5.9.3-1.8 1.2-3.4 2.5-4.7l.6-.6c.7.6 1.6 1 2.5 1 1 0 1.9-.4 2.6-1.1l2-2c2.2-1.6 2.2-3.9.8-5.4zM8.7 33.8l-2-2c-.5-.5-.5-1.3 0-1.8l14.6-14.6c.5-.5 1.3-.5 1.8 0l2 2c.5.5.5 1.3 0 1.8L10.5 33.8c-.5.5-1.3.5-1.8 0zm13.7 16.5c-.7-.7-.7-1.8 0-2.4.3-.3.8-.5 1.2-.5s.9.2 1.2.5c.7.7.7 1.8 0 2.4-.6.6-1.7.6-2.4 0zm4.2 4.1c-.7-.7-.7-1.8 0-2.4.3-.3.8-.5 1.2-.5.5 0 .9.2 1.2.5.7.7.7 1.8 0 2.4-.6.7-1.7.7-2.4 0zm4.2 4.2c-.7-.7-.7-1.8 0-2.4.3-.3.8-.5 1.2-.5s.9.2 1.2.5c.7.7.7 1.8 0 2.4-.7.7-1.8.7-2.4 0zM54 50.2c-.7.7-1.8.7-2.4 0L38.9 37.6c-.5-.5-1.2-.5-1.7 0s-.5 1.2 0 1.7l16 16c.3.3.5.8.5 1.2 0 .5-.2.9-.5 1.2-.7.7-1.8.7-2.4 0l-16-16c-.5-.5-1.2-.5-1.7 0s-.5 1.2 0 1.7l12.7 12.7c.3.3.5.8.5 1.2s-.2.9-.5 1.2c-.7.7-1.8.7-2.4 0L30.5 45.9c-.5-.5-1.2-.5-1.7 0s-.5 1.2 0 1.7l9.5 9.5c.7.7.7 1.8 0 2.4-.7.7-1.8.7-2.4 0l-.2-.2c.8-1.6.6-3.6-.7-4.9-.8-.8-1.9-1.2-2.9-1.2 0-1.1-.4-2.1-1.2-2.9-.8-.8-1.9-1.2-3-1.2 0-1.1-.4-2.2-1.2-3-1.3-1.3-3.3-1.5-4.9-.7-1.5-1.5-2.6-3.3-3.1-5.4-.3-1.1-.9-2.1-1.7-2.9l-3.2-3.2 11.4-11.4 1.6 1.6c.8.8 1.8 1.3 2.9 1.4l2.6.3-6.1 6.2c-.9.9-1.4 2.1-1.4 3.3 0 1.3.5 2.4 1.4 3.3.9.9 2.1 1.4 3.3 1.4s2.4-.5 3.3-1.4l4.1-4.1c.8-.7 1.8-1.1 2.8-1L54 47.8c.3.3.5.8.5 1.2 0 .5-.2.9-.5 1.2zm3.5-9.7c-.3 1.8-1.2 3.4-2.5 4.7l-.1.1-9.6-9.6c1.2.3 2.5.5 3.8.5.7.1 1.2-.5 1.2-1.2s-.5-1.2-1.2-1.2c-2.4-.1-4.7-.7-6.8-1.8-2.3-1.3-5.2-.9-7.1.9L31.1 37c-.9.9-2.3.9-3.2 0-.4-.4-.7-1-.7-1.6s.2-1.2.7-1.6l6.2-6.2c1.8-1.8 4.5-2.8 7.1-2.4 3.1.4 6.2-.6 8.6-2.6l11.5 11.5-.6.6c-1.7 1.5-2.8 3.5-3.2 5.8zm10.9-8.7l-2 2c-.5.5-1.3.5-1.8 0L49.9 19.2c-.5-.5-.5-1.3 0-1.8l2-2c.3-.3.6-.4.9-.4s.7.1.9.4L68.3 30c.6.4.6 1.3.1 1.8z" id="Cooperation"/></svg>