<svg xmlns="http://www.w3.org/2000/svg" viewBox="0 0 22 22"><g fill="#fff"><path d="M15.307 1.388H6.693a5.31 5.31 0 0 0-5.305 5.306v8.614a5.31 5.31 0 0 0 5.305 5.305h8.614a5.31 5.31 0 0 0 5.305-5.305V6.693a5.31 5.31 0 0 0-5.305-5.305zm3.6 13.919c0 1.985-1.615 3.6-3.6 3.6H6.693a3.604 3.604 0 0 1-3.6-3.6V6.693c0-1.985 1.615-3.6 3.6-3.6h8.614c1.985 0 3.6 1.615 3.6 3.6v8.614zm0 0"/><path d="M11 6.047A4.959 4.959 0 0 0 6.046 11 4.96 4.96 0 0 0 11 15.954 4.96 4.96 0 0 0 15.954 11 4.96 4.96 0 0 0 11 6.047zm0 8.201A3.251 3.251 0 0 1 7.752 11c0-1.791 1.457-3.248 3.248-3.248S14.248 9.209 14.248 11A3.252 3.252 0 0 1 11 14.248zm0 0M16.162 4.6a1.254 1.254 0 0 0-1.251 1.251 1.256 1.256 0 0 0 1.251 1.25c.33 0 .651-.134.884-.366a1.26 1.26 0 0 0 .366-.884c0-.33-.133-.653-.366-.885a1.256 1.256 0 0 0-.884-.366zm0 0"/></g></svg>