<svg xmlns="http://www.w3.org/2000/svg" viewBox="0 0 92 92"><g fill="#0d7342"><path d="M46 .97C21.147.97 1 21.131 1 46s20.147 45.03 45 45.03S91 70.869 91 46 70.853.97 46 .97zm0 82.149c-15.297 0-28.427-9.267-34.1-22.495-.011-.066-.021-.132-.039-.183-2.271-6.729 1.186-8.293 2.619-8.833 4.573-1.724 10.49 5.122 10.49 5.122s1.72-1.477 3.193-2.485c.963-.659 2.179-1.268 4.105-.609 2.163.741 3.091 2.84 3.015 3.879 0 0 2.23-.682 4.029.951 1.774 1.61 1.254 3.461 1.254 3.461 3.459-1.445 5.828 2.975 8.342 5.229 1.112.997 2.649 2.496 4.575 3.025 2.836.779 6.238-1.732 4.971-2.955-.996-.962-3.769-3.172-4.903-4.463-.806-.917.557-2.181 1.267-1.673.922.659 4.533 5.335 7.299 5.709 2.355.319 5.531-2.448 3.517-4.016-2.581-2.009-3.4-3.416-5.914-5.637-1.532-1.354-1.796-2.112-.76-3.016.71-.62 1.273.018 3.068 1.933 2.021 2.156 3.134 3.395 4.293 4.407 2.09 1.826 2.939 1.571 4.117 1.076 2.073-.87 3.459-3.233 2.394-4.26-.923-.891-3.134-3.332-3.499-3.763-1.714-2.027-10.437-10.111-15.428-13.326-5.624-3.623-7.25-.358-12.618 1.268-3.851 1.166-9.995 1.563-11.402-1.572-.532-1.185-.532-2.878 1.615-4.342 1.729-1.179 3.392-2.483 6.385-4.296 1.319-.799 5.207-3.12 5.207-3.12s-.456-.228-1.031-.314c0 0-.384-.082-1.18-.149-4.231-.355-10.211 1.902-10.211 1.902a139.052 139.052 0 0 0-5.245 2.155s-5.372 2.434-8.615.862c-4.361-2.114-1.636-7.112-1.121-7.977C22.406 15.1 33.474 8.881 46 8.881c11.971 0 22.611 5.68 29.393 14.487.464.74 3.91 6.508.404 9.023-.845.606-2.584 1.496-7.905 0-3.058-.86-11.975-3.992-14.975-4.488-2.762-.456-5.464-.456-6.951.304-1.487.761-7.72 5.073-7.72 5.073s-6.132 3.875-6.765 4.74c-.142.194-1.259 2.401 4.409 2.51 5.245.101 8.273-2.696 10.754-3.613 2.331-.862 5.771-.624 11.061 3.512 8.818 6.894 11.675 10.196 14.931 13.862 0 0 3.844-4.458 7.062-2.074 2.019 1.496 1.84 4.141 1.233 6.284C75.804 72.849 62.103 83.119 46 83.119z"/><path d="M32.664 56.203a2.793 2.793 0 0 0-1.385-.702 2.81 2.81 0 0 0-.357-.047c-.664-.048-1.294.129-1.774.497l-6.431 4.935c-.48.368-.751.884-.766 1.452-.014.568.231 1.121.691 1.556a2.83 2.83 0 0 0 1.743.749c.664.048 1.294-.129 1.773-.497l6.431-4.935c.991-.76 1.024-2.109.075-3.008zM38.191 60.152a2.738 2.738 0 0 0-1.333-.663 2.978 2.978 0 0 0-.343-.046c-.637-.048-1.241.114-1.699.456l-6.145 4.581c-.458.342-.717.822-.727 1.353-.011.531.227 1.049.67 1.458A2.779 2.779 0 0 0 30.29 68c.637.048 1.241-.114 1.699-.455l6.145-4.581c.946-.706.972-1.967.057-2.812zM43.056 64.411a2.738 2.738 0 0 0-1.333-.663 2.978 2.978 0 0 0-.343-.046c-.637-.048-1.241.114-1.699.456l-4.321 3.364c-.458.342-.717.822-.727 1.353-.011.531.227 1.049.671 1.458a2.779 2.779 0 0 0 1.676.709c.637.048 1.241-.114 1.699-.455L43 67.223c.945-.706.97-1.967.056-2.812zM19.052 54.092L15.9 57.177c-.458.342-.717.822-.727 1.353-.011.531.227 1.049.671 1.458a2.779 2.779 0 0 0 1.676.709c.637.048 1.241-.114 1.699-.455l3.713-2.755c-.981-1.468-3.88-3.395-3.88-3.395zM49.385 69.933c-1.247-.785-3.36-3.077-3.36-3.077l-2.357 2.034-2.239 1.932s.848.906 1.976 1.614c1.44.904 3.75.964 5.312.171 1-.507 1.828-1.943.668-2.674z"/></g></svg>