<svg id="Слой_1" xmlns="http://www.w3.org/2000/svg" viewBox="0 0 81.5 75.6"><style>.st0{fill:#00a656}</style><path class="st0" d="M80.9 31.3l-10.4-6.9v-23c0-.7-.6-1.4-1.3-1.4H12.4c-.8 0-1.4.6-1.4 1.4v23.1L.6 31.3c-.4.3-.6.7-.6 1.1v41.8c0 .7.6 1.3 1.4 1.3h78.8c.7 0 1.3-.6 1.3-1.3V32.4c0-.4-.2-.8-.6-1.1zM11 36l-4.2-2.2H11V36zm-8.3-1.3l31 16.5-31 20.6V34.7zm38.1 15l34.9 23.2H5.8l35-23.2zm7 1.5l31-16.5v37l-31-20.5zm22.7-17.4h4.2L70.5 36v-2.2zm5.2-2.7h-5.2v-3.4l5.2 3.4zM67.8 2.7v34.8l-22.6 12-3.7-2.5c-.5-.3-1-.3-1.5 0l-3.7 2.5-22.6-12V2.7h54.1zM11 31.1H5.8l5.2-3.4v3.4z"/><path class="st0" d="M40.8 35.5h10.8c.7 0 1.3-.6 1.3-1.3s-.6-1.3-1.3-1.3H40.8c-5.2 0-9.4-4.2-9.4-9.4V23c0-5.2 4.2-9.4 9.4-9.4s9.4 4.2 9.4 9.4v1c0 1.1-.9 2-2 2s-2-.9-2-2v-1.9c0-3.2-2.6-5.8-5.8-5.8s-5.8 2.6-5.8 5.8 2.6 5.8 5.8 5.8c1.5 0 2.8-.5 3.8-1.4.8 1.3 2.3 2.2 4 2.2 2.6 0 4.7-2.1 4.7-4.7v-1c0-6.7-5.4-12.1-12.1-12.1S28.6 16.3 28.6 23v.4c0 6.7 5.5 12.1 12.2 12.1zm-.5-10.3c-1.7 0-3.1-1.4-3.1-3.1s1.4-3.1 3.1-3.1 3.1 1.4 3.1 3.1c0 1.7-1.4 3.1-3.1 3.1z"/></svg>