<svg xmlns="http://www.w3.org/2000/svg" viewBox="0 0 30 41"><path d="M18.294.735h-6.588C5.803.735 1 5.538 1 11.441v14.824c0 7.72 6.28 14 14 14s14-6.28 14-14V11.441C29 5.538 24.197.735 18.294.735M15 7.324c.455 0 .824.369.824.824v4.941a.824.824 0 0 1-1.648 0V8.147c0-.455.369-.823.824-.823m12.353 18.941c0 6.812-5.541 12.353-12.353 12.353S2.647 33.077 2.647 26.265V11.441c0-4.996 4.063-9.059 9.059-9.059h2.471v3.446a2.466 2.466 0 0 0-1.647 2.319v4.941c0 1.362 1.109 2.471 2.471 2.471s2.471-1.109 2.471-2.471V8.147c0-1.072-.69-1.978-1.647-2.319V2.382h2.471c4.996 0 9.059 4.063 9.059 9.059v14.824z" fill="#fff"/></svg>