<svg id="Слой_1" xmlns="http://www.w3.org/2000/svg" viewBox="0 0 60 60"><style>.st0,.st1{fill:none;stroke:#00a656;stroke-miterlimit:10}.st0{stroke-linecap:round;stroke-width:2.75}.st1{stroke-width:2.5}.st2{stroke-linecap:round;stroke-linejoin:round}.st2,.st3{fill:none;stroke:#00a656;stroke-width:2.75;stroke-miterlimit:10}</style><path class="st0" d="M21.1 31.5l-1 4-3.3 1.9 1.9 3.3-3.3 1.9 1.9 3.3-3.3 1.9 1.9 3.3-.7 2.6-4.4 2.6-2.6-4.5 6-22.2"/><path class="st1" d="M23.1 14.5l-2-.5c-.9-.2-1.4-1.1-1.1-2 .2-.9 1.1-1.4 2-1.1l2 .5c.9.2 1.4 1.1 1.1 2-.3.7-1.2 1.3-2 1.1z"/><path class="st2" d="M20.5 7.1l6.3 1.7c7.3 2 4.6 12 3.4 16.5-1.6 6.1-6.7 7-11.2 5.7l-2.7-.7c-4.6-1.3-8.5-4.6-6.9-10.6 1.2-4.4 3.9-14.5 11.1-12.6l6.3 1.7"/><path class="st1" d="M38.9 19.4l-1.8 1c-.8.4-1.8.2-2.3-.6-.4-.8-.2-1.8.6-2.3l1.8-1c.8-.4 1.8-.2 2.3.6.5.8.2 1.8-.6 2.3z"/><path class="st2" d="M30.9 26l6.3 10.9c2 3.5 6.6 4.7 10.1 2.7l3.2-1.8c3.5-2 4.7-6.6 2.7-10.1l-6.6-11.2c-2-3.5-6.6-4.7-10.1-2.7l-4 2.3"/><path class="st3" d="M22.2 10.1c-.4-4.6 2.6-7.4 6.9-6.3 2.1.6 4 2 5.5 3.8 1.5 1.9 2.6 4.2 2.8 6.5.1.8.1 1.5-.1 2.1"/></svg>