<svg id="Слой_1" xmlns="http://www.w3.org/2000/svg" viewBox="0 0 60 60"><style>.st0{fill:#00a656;stroke:#00a656;stroke-width:.75;stroke-miterlimit:10}</style><path class="st0" d="M14.6 46c-1.9.3-3.3 1.9-3.3 3.8v.3c0 2.1 1.7 3.8 3.9 3.8H46c2.1 0 3.8-1.7 3.8-3.8v-.3c0-1.9-1.4-3.5-3.3-3.8v-9.3c.2-8.8-6.8-16.1-15.6-16.3-8.8-.2-16.1 6.8-16.3 15.6v10zm33.1 3.8v.3c0 1-.8 1.8-1.8 1.8H15.2c-1 0-1.8-.8-1.8-1.8v-.3c0-1 .8-1.8 1.8-1.8H46c.9 0 1.7.8 1.7 1.8zm-18.1-3.9H16.7v-9.3c0-7.6 6.2-13.8 13.8-13.9 7.6 0 13.8 6.2 13.9 13.9v9.3H29.6z"/><path class="st0" d="M20.3 37c.6 0 1-.5 1-1 0-4.7 3.8-8.5 8.5-8.5.6 0 1-.5 1-1s-.5-1-1-1c-5.9 0-10.6 4.8-10.6 10.6 0 .4.5.9 1.1.9zM30.6 17.8c.6 0 1-.5 1-1V7.1c0-.6-.5-1.1-1-1.1s-1 .5-1 1.1v9.7c-.1.5.4 1 1 1zM44.5 21.5c.3 0 .5-.1.7-.3l6.9-6.9c.4-.4.4-1.1.1-1.5s-1.1-.4-1.5-.1l-.1.1-6.9 6.9c-.4.4-.4 1.1 0 1.5.2.2.5.3.8.3zM15.6 21.2c.4.4 1.1.4 1.5-.1.4-.4.4-1 0-1.4l-6.9-6.9c-.4-.4-1.1-.4-1.5.1-.4.4-.4 1 0 1.4l6.9 6.9zM58 27.8l-9.3 2.7c-.6.2-.9.7-.7 1.3s.7.9 1.3.7l9.3-2.7c.6-.1.9-.7.8-1.3-.1-.6-.7-.9-1.4-.7.1 0 .1 0 0 0zM11.1 32.5c.6.2 1.1-.2 1.3-.7.2-.6-.2-1.1-.7-1.3l-9.3-2.7c-.6-.2-1.1.2-1.3.7-.2.6.2 1.1.7 1.3l9.3 2.7z"/></svg>