<svg id="Слой_1" xmlns="http://www.w3.org/2000/svg" viewBox="0 0 60 60"><style>.st0,.st1{stroke:#00a656}.st0{stroke-miterlimit:10;fill:#00a656}.st1{fill:none;stroke-width:2.75}</style><path class="st0" d="M42.5 32.7c-1.1 0-2.2.3-3.2.9-1-.6-2.1-.9-3.2-.9-3.3 0-5.9 2.7-5.9 6s2.7 5.9 6 5.9c1.1 0 2.2-.3 3.2-.9 2.8 1.8 6.4 1 8.2-1.8s1-6.4-1.8-8.2c-1-.6-2.1-.9-3.3-1zM32 38.6c0-2.3 1.9-4.3 4.3-4.3 2.3 0 4.2 1.8 4.3 4.1v.1c0 1.3-.6 2.6-1.7 3.4-1.9 1.4-4.5 1.1-5.9-.8-.7-.6-1-1.5-1-2.5zm10.6 4.3c-.6 0-1.3-.1-1.8-.4v-.1l.2-.3c.2-.2.3-.5.5-.7 0-.1.1-.2.2-.4.1-.3.2-.5.3-.8l.1-.4c.1-.4.2-.8.2-1.2s0-.8-.1-1.2l-.1-.4c-.1-.3-.2-.5-.3-.8l-.2-.3c-.1-.3-.3-.5-.5-.8l-.2-.2v-.1c.6-.3 1.2-.4 1.8-.4 2.3 0 4.3 1.9 4.3 4.3s-2 4.2-4.4 4.2z"/><path class="st1" d="M6 18.9v23.9c0 3.3 2.7 6 6 6h36c3.3 0 6-2.7 6-6V18.9c0-3.3-2.7-6-6-6H12c-3.3 0-6 2.7-6 6zM6 20.9h48M6 26.9h48"/></svg>