<svg id="Слой_1" xmlns="http://www.w3.org/2000/svg" viewBox="0 0 60 60"><style>.st0{fill:#00a656;stroke:#00a656;stroke-width:.8;stroke-miterlimit:10}</style><path class="st0" d="M49.9 31.2c-.8-1.5-3.1-2.5-6.2-1.4-1.9.7-3.5 1.9-5.1 3.2-1.2.9-2.3 1.8-3.4 2.3-.1-1.5-.6-4.3-1.9-8.8-.8-2.7-1.9-5.9-3.1-9 .4-1.1 1.6-5.2 2.3-9.1.4-2.4-.8-3.7-1.9-4.1-1.4-.5-3.1.1-3.9 1.6-.3.5-.6 1.2-.8 1.8-.3-.6-.6-1-.8-1.4-1-1.6-2.7-2.3-4.2-1.8-1.4.5-2.3 1.8-2.2 3.5.1 2.4 1.5 6.1 3.2 10.4.1.2.2.4.2.6-.2.7-.8 2.7-1.3 4.5-.6-1.3-1.6-2.2-3.4-2.1-1.5.1-2.6.6-3.4 1.5-.4.6-.6 1.2-.7 1.8-1.8.4-2.7 1.5-3.1 2.4-1.1 2.2-.4 5.3.7 7.3-1.4 4.6-1.2 11.7 2.5 15.8.6 1.4.7 3.8.7 4.6 0 .5.4.9.9.9s.9-.4.9-.9c0-.1 0-1.3-.2-2.7 0 0 .1 0 .1.1 1 .6 2.1.8 3.1.8 1.3 0 2.5-.3 3.1-.6 1.5.9 3.1 1.3 4.6 1.3.4 0 .7 0 1.1-.1-.3.9-.4 1.8-.4 1.9 0 .5.4.9.9.9s.9-.4.9-.9.3-1.9.9-2.7c3.3-1.4 6.6-4.8 10.2-10.3 1.5-2.3 7.5-7.6 9-8.6.9-.5 1.2-1.6.7-2.7zM28.3 6.6c.4-.8 1.2-.9 1.7-.7.7.2 1 1 .8 2.1-.5 2.4-1.1 4.9-1.6 6.7-.7-1.8-1.5-3.5-2.1-4.9.2-.7.7-2.2 1.2-3.2zm-6.2 20c.3-1.3.8-3.3 1.2-4.9.7 1.8 1.3 3.5 1.8 5.2-1 0-2 .1-3 .3 0-.1-.1-.3-.1-.4s0-.1.1-.2zM15.7 24c.4-.5 1.1-.8 2-.8h.1c1.4 0 1.9 1.7 2.5 4.4.3 1.2.5 2.5 1 3.5 1.8 4 1.7 5.6 1.4 6.1-.1.3-.3.4-.6.5-.1 0-.2.1-.4.1-1.3 0-3.2-2.8-4.8-5.5-.7-1.2-1.3-4.2-1.6-5.7v-.1c-.1-.5-.2-1.7.4-2.5zM12 27.9c.3-.6.8-1.1 1.5-1.3V26.9c.5 2.4 1.1 5 1.9 6.3 1.1 1.8 2 3.2 2.9 4.3-2.5.6-4.4-1.5-5.6-3.6-.9-1.6-1.5-4.3-.7-6zm36.1 4.7c-1.5 1-7.8 6.4-9.5 9.1-4 6.3-7.7 9.7-11.2 10.1-2.3.3-4.6-.6-7.1-2.9-.4-.3-.9-.3-1.3.1-.3.4-.3.9.1 1.3.3.3.6.6.9.8-1 .2-2.2.2-3.4-.4-4.4-2.5-5.4-9.3-4.3-14.2 1.6 2 3.3 3 5.2 3 .8 0 1.5-.2 2.3-.5.6.5 1.3.7 2 .7.3 0 .6-.1.9-.2.8-.3 1.3-.8 1.7-1.5.7-1.5.2-4-1.4-7.6-.2-.4-.3-.9-.5-1.3 1.6-.4 4.2-.3 5.2-.2.5 0 .9-.3 1-.8s-.3-.9-.8-1c-.1 0-.5 0-.9-.1-.8-2.9-2.1-6.2-3.3-9.3-1.5-4-3-7.8-3.1-9.8 0-.9.3-1.5 1-1.7.6-.2 1.5 0 2.1 1.1.4.6.9 1.7 1.6 3.1 2 4.3 4.9 11.6 6.4 16.7 1.4 4.9 1.8 7.7 1.9 8.9-2.2.5-4.1 1-5.7 1.7-.5.2-.7.7-.5 1.2s.7.7 1.2.5c1.6-.7 3.7-1.2 6.1-1.7 1.8-.4 3.4-1.7 5.1-3 1.4-1.1 2.9-2.3 4.6-2.9 2.4-.8 3.7 0 4 .5 0-.1 0 .1-.3.3z"/></svg>