<svg id="Слой_1" xmlns="http://www.w3.org/2000/svg" viewBox="0 0 89 67"><style>.st0{fill:none;stroke:#00b25c;stroke-width:3.25;stroke-miterlimit:10}</style><path class="st0" d="M52.5 19.6c-.1 4.1 1.5 8.1 4.5 10.9 2.8 2.8 6.6 4.6 10.6 4.8-.8 4.7-2.6 9.2-5.3 13.2-2.4 3.8-5.2 7.2-8.5 10.3l8.8 5.6c7.2-4.5 13.2-10.6 17.5-17.8 4.5-7 6.9-15.2 6.9-23.6 0-6.6-1.7-11.7-5.1-15.2-3.3-3.5-7.9-5.4-12.7-5.3-4.4 0-8.6 1.7-11.7 4.8-3.3 3.3-5.1 7.7-5 12.3zM2 19.6c-.1 4.1 1.5 8.1 4.5 10.9 2.8 2.8 6.6 4.6 10.6 4.8-.8 4.7-2.6 9.2-5.3 13.2-2.4 3.8-5.2 7.2-8.5 10.3l8.8 5.6c7.2-4.5 13.2-10.6 17.5-17.8 4.5-7.1 6.9-15.3 6.9-23.7 0-6.6-1.7-11.7-5.1-15.2-3.3-3.5-7.9-5.4-12.7-5.3-4.4 0-8.7 1.7-11.8 4.8-3.2 3.4-5 7.8-4.9 12.4z"/></svg>