<svg id="Icons" xmlns="http://www.w3.org/2000/svg" viewBox="0 0 82.5 82.5"><style>.st0{fill:#00b25c}</style><g id="Team"><path class="st0" d="M71.6 64.8l5.4-5.4c.4-.4.5-1 .3-1.5s-.7-.8-1.3-.8h-8.7V53c0-.8-.6-1.4-1.4-1.4H64c-1-3.1-3.4-5.6-6.4-6.7 1.4-1.4 2.3-3.3 2.3-5.4 0-4.1-3.4-7.5-7.5-7.5-.7 0-1.4.1-2.1.3-1.2-4-4.8-6.9-9.2-6.9s-8 2.9-9.2 6.9c-.7-.2-1.4-.3-2.1-.3-4.1 0-7.5 3.4-7.5 7.5 0 2.1.9 4.1 2.3 5.4-3 1.1-5.4 3.6-6.4 6.7h-1.9c-.8 0-1.4.6-1.4 1.4v4H6.4c-.6 0-1.1.3-1.3.8s-.1 1.1.3 1.5l5.4 5.4-5.4 5.4c-.4.4-.5 1-.3 1.5s.7.8 1.3.8h19.3c.8 0 1.4-.6 1.4-1.4v-4h28.4v4.1c0 .8.6 1.4 1.4 1.4h19.3c.6 0 1.1-.3 1.3-.8.2-.5.1-1.1-.3-1.5l-5.6-5.4zM61.2 51.5h-5.3c-.4-1.7-1.2-3.3-2.2-4.6h.3c3.2-.1 5.9 1.8 7.2 4.6zM50.8 34.9c.5-.2 1.1-.3 1.7-.3 2.6 0 4.8 2.1 4.8 4.8 0 2.6-2.1 4.8-4.8 4.8-1.9 0-3.5-1.1-4.3-2.8 1.6-1.8 2.6-4 2.6-6.5zm-2.1 11c2 1.3 3.6 3.2 4.3 5.6h-8.9l4.6-5.6zm-7.5 4.8l-5-5.9c1-.3 2-.5 3-.5h3.9c1 0 2 .1 2.9.4l-4.8 6zm.1-22.8c3.8 0 6.8 3.1 6.8 6.8s-3.1 6.8-6.8 6.8-6.8-3.1-6.8-6.8 3-6.8 6.8-6.8zm-3 23.6h-8.8c.7-2.3 2.2-4.2 4.2-5.5l4.6 5.5zm-8.3-17c.6 0 1.2.1 1.7.3 0 2.5 1 4.8 2.6 6.5-.8 1.7-2.5 2.8-4.3 2.8-2.6 0-4.8-2.1-4.8-4.8 0-2.6 2.2-4.8 4.8-4.8zm-1.5 12.3h.3c-1 1.4-1.7 2.9-2.2 4.6h-5.3c1.3-2.7 4-4.6 7.2-4.6zm-18.8 23l4.1-4.1c.5-.5.5-1.4 0-1.9l-4.1-4.1h5.4v6c0 .5.3.9.7 1.2l4.9 3-11-.1zm14.6-1.1L21.5 67h2.8v1.7zm-6.4-4.4V54.2h46.8v10.1H17.9zm40.3 4.4V67H61l-2.8 1.7zm3.6 1.1l4.9-3c.4-.2.7-.7.7-1.2v-6h5.4l-4.1 4.1c-.5.5-.5 1.4 0 1.9l4.1 4.1-11 .1z"/><path class="st0" d="M54.1 57.9H28.4c-.8 0-1.4.6-1.4 1.4s.6 1.4 1.4 1.4h25.7c.8 0 1.4-.6 1.4-1.4s-.7-1.4-1.4-1.4zM40.8 15.5c.8 0 1.4-.6 1.4-1.4v-2.8c0-.8-.6-1.4-1.4-1.4s-1.4.6-1.4 1.4v2.8c0 .7.6 1.4 1.4 1.4zM29.2 17.5c.4.7 1.2.9 1.9.5s.9-1.2.5-1.9l-1.4-2.4c-.4-.7-1.2-.9-1.9-.5s-.9 1.2-.5 1.9l1.4 2.4zM19.8 24.2l2.4 1.4c.7.4 1.5.2 1.9-.5s.2-1.5-.5-1.9l-2.4-1.4c-.7-.4-1.5-.2-1.9.5-.4.7-.2 1.6.5 1.9zM50.4 18c.7.4 1.5.2 1.9-.5l1.4-2.4c.4-.7.2-1.5-.5-1.9s-1.5-.2-1.9.5l-1.4 2.4c-.4.7-.1 1.6.5 1.9zM59.4 25.6l2.4-1.4c.7-.4.9-1.2.5-1.9s-1.2-.9-1.9-.5L58 23.2c-.7.4-.9 1.2-.5 1.9s1.2.9 1.9.5z"/></g></svg>