<svg id="Icons" xmlns="http://www.w3.org/2000/svg" viewBox="0 0 75 75"><style>.st0{fill:#00b25c}</style><g id="Proposal"><path class="st0" d="M29.5 64.2H17.2c-.7 0-1.3-.6-1.3-1.3V34.5h9.6c1.6 0 2.9-1.3 2.9-2.9V18.3c0-1.6-1.3-2.9-2.9-2.9H16v-3.3c0-.7.6-1.3 1.3-1.3h22.5c.2 0 .4.2.4.4v7.5c0 1.6 1.3 2.9 2.9 2.9h7.5c.2 0 .4.2.4.4v16.2c0 .7.6 1.3 1.3 1.3s1.3-.6 1.3-1.3V22.1c0-.9-.4-1.6-1-2.1L46 13.4l10.9 1.1c.7.1 1.2.7 1.1 1.4l-1.6 15.9c-.1.7.4 1.3 1.1 1.4s1.3-.4 1.4-1.1l1.6-15.9c.2-2.1-1.3-3.9-3.4-4.1l-13.9-1.4-1.3-1.3c-.5-.5-1.3-.9-2.1-.9H17.2c-2.1 0-3.8 1.7-3.8 3.8v3.3h-1.3c-1.6 0-2.9 1.3-2.9 2.9v13.3c0 1.6 1.3 2.9 2.9 2.9h1.3v28.4c0 2.1 1.7 3.8 3.8 3.8h12.3c.7 0 1.3-.6 1.3-1.3s-.6-1.4-1.3-1.4zm13.2-50.6l5.6 5.6h-5.2c-.2 0-.4-.2-.4-.4v-5.2zm-30.9 18V18.3c0-.2.2-.4.4-.4h13.3c.2 0 .4.2.4.4v13.3c0 .2-.2.4-.4.4H12.2c-.2 0-.4-.2-.4-.4z"/><path class="st0" d="M21.2 38.7c-1.1 0-1.9.9-1.9 1.9v5.3c0 1.1.9 1.9 1.9 1.9h5.3c1.1 0 1.9-.9 1.9-1.9v-5.3c0-1.1-.9-1.9-1.9-1.9h-5.3zm4.8 6.7h-4.2v-4.2H26v4.2zM44.3 45.8c0-.7-.6-1.3-1.3-1.3H33c-.7 0-1.3.6-1.3 1.3s.6 1.3 1.3 1.3h10c.8 0 1.3-.6 1.3-1.3zM33.1 39.5c-.7 0-1.3.6-1.3 1.3s.6 1.3 1.3 1.3h4.2c.7 0 1.3-.6 1.3-1.3s-.6-1.3-1.3-1.3h-4.2zM42.7 29.1c0-.7-.6-1.3-1.3-1.3h-8.3c-.7 0-1.3.6-1.3 1.3s.6 1.3 1.3 1.3h8.3c.7 0 1.3-.6 1.3-1.3zM33.1 25.3h4.2c.7 0 1.3-.6 1.3-1.3s-.6-1.3-1.3-1.3h-4.2c-.7 0-1.3.6-1.3 1.3s.6 1.3 1.3 1.3zM21.3 21.8l-3.7 3.7-1.1-1.1c-.5-.5-1.3-.5-1.8 0s-.5 1.3 0 1.8l2 2c.2.2.6.4.9.4s.6-.1.9-.4l4.6-4.6c.5-.5.5-1.3 0-1.8s-1.3-.5-1.8 0zM64.5 40.5l-.6-.6c-1.6-1.6-4.2-1.6-5.8 0L40.4 57.5c-.1.1-.2.3-.3.5l-2.4 7c-.2.4 0 .9.3 1.3.3.3.8.5 1.3.3l7.1-2.4c.2-.1.4-.2.5-.3l17.6-17.6c1.6-1.6 1.6-4.2 0-5.8zM40.9 63.4l.9-2.8 1.9 1.9-2.8.9zm5.1-2.1l-3-3L54.3 47l2.9 2.9L46 61.3zm13-13l-2.9-2.9 1.3-1.3 2.9 2.9-1.3 1.3zm3.7-3.7l-.6.6-2.9-2.9.6-.6c.6-.6 1.7-.6 2.3 0l.6.6c.6.6.6 1.6 0 2.3z"/></g></svg>