<svg id="Icons" xmlns="http://www.w3.org/2000/svg" viewBox="0 0 75 75"><style>.st0{fill:#00b25c}</style><g id="Folder"><path class="st0" d="M57.8 40.6l2.3-27.4c.1-1.6-1-3-2.7-3.2L23.1 7c-1.6-.1-3 1-3.2 2.7l-.3 3.6h-2.8c-1.6 0-2.9 1.3-2.9 2.9V63c0 1.6 1.3 2.9 2.9 2.9h5c.5 1.1 1.6 2 2.9 2h33c1.7 0 3.1-1.4 3.1-3.1v-21c.2-1.8-1.2-3.2-3-3.2zM22.5 10c0-.2.2-.4.5-.4l34.3 3c.2 0 .4.2.4.5l-2.4 27.6h-1V16.3c0-1.6-1.3-2.9-2.9-2.9H22.2l.3-3.4zm-.8 39.4v14H17c-.2 0-.4-.2-.4-.4V16.3c0-.2.2-.4.4-.4h34.5c.2 0 .4.2.4.4v24.3H46c-1.1 0-2.2.4-3.1 1.1l-5.1 4c-.4.4-1 .5-1.6.5H24.8c-1.7.1-3.1 1.5-3.1 3.2zm36.8 15.4c0 .4-.3.6-.6.6h-33c-.4 0-.6-.3-.6-.6V49.4c0-.4.3-.6.6-.6h11.4c1.1 0 2.2-.4 3.1-1.1l5.1-4c.4-.4 1-.5 1.6-.5H58c.4 0 .6.3.6.6l-.1 21z"/><path class="st0" d="M54.5 60.3h-4.7c-.7 0-1.3.6-1.3 1.3s.6 1.3 1.3 1.3h4.7c.7 0 1.3-.6 1.3-1.3s-.6-1.3-1.3-1.3zM30.9 22.7h6.6c.7 0 1.3-.6 1.3-1.3s-.6-1.3-1.3-1.3h-6.6c-.7 0-1.3.6-1.3 1.3s.6 1.3 1.3 1.3zM23.8 29.7h20.8c.7 0 1.3-.6 1.3-1.3s-.6-1.3-1.3-1.3H23.8c-.7 0-1.3.6-1.3 1.3s.6 1.3 1.3 1.3zM45.8 34.8c0-.7-.6-1.3-1.3-1.3H23.8c-.7 0-1.3.6-1.3 1.3s.6 1.3 1.3 1.3h20.8c.6-.1 1.2-.6 1.2-1.3z"/></g></svg>