<svg id="Icons" xmlns="http://www.w3.org/2000/svg" viewBox="0 0 75 75"><style>.st0{fill:#00b25c}</style><path class="st0" d="M69.2 60.7h-2.6c.3-.6.5-1.3.5-2.1V38.5c.5-1.1.8-2.3.8-3.5v-8c0-1.6-1.3-2.9-2.9-2.9h-8.8v-1.3c0-6.7-5.4-12.1-12.1-12.1H30.8c-6.7 0-12.1 5.4-12.1 12.1v1.3H10c-1.6 0-2.9 1.3-2.9 2.9v8c0 1.3.3 2.5.8 3.5v20.1c0 .8.2 1.5.5 2.1H5.8c-.7 0-1.3.6-1.3 1.3s.6 1.3 1.3 1.3h24l-.1 2.1c0 .4.1.7.4 1l6.6 6.4c.2.2.6.4.9.4s.6-.1.9-.4l6.6-6.4c.3-.3.4-.6.4-1l-.1-2.1h24c.7 0 1.3-.6 1.3-1.3s-.8-1.3-1.5-1.3zM21.3 22.8c0-5.3 4.3-9.6 9.6-9.6h13.3c5.3 0 9.6 4.3 9.6 9.6v1.3h-2.5v-1.3c0-3.9-3.2-7.1-7.1-7.1H30.8c-3.9 0-7.1 3.2-7.1 7.1v1.3h-2.5v-1.3h.1zm27.5 0v1.3h-2.4c-.1-.4-.3-.7-.6-1-.7-.8-1.8-1.3-2.9-1.3H32.1c-1.1 0-2.1.5-2.9 1.3-.3.3-.5.7-.6 1h-2.4v-1.3c0-2.5 2.1-4.6 4.6-4.6h13.3c2.6 0 4.7 2.1 4.7 4.6zM30 60.7H12.5c-1.1 0-2.1-.9-2.1-2.1V41.4c1.3.9 2.9 1.5 4.6 1.5h1.3v1.6c0 2.5 2.1 4.6 4.6 4.6s4.6-2.1 4.6-4.6v-1.6h5.8L30 60.7zM18.8 44.5v-3.8H23v3.8c0 1.1-.9 2.1-2.1 2.1s-2.1-1-2.1-2.1zm12.6-4.1h-6v-.1c0-1.1-.9-2.1-2.1-2.1h-5c-1.1 0-2.1.9-2.1 2.1v.1H15c-3 0-5.4-2.4-5.4-5.4v-8c0-.2.2-.4.4-.4h18.5l.9 5.2c.2 1.3 1.2 2.2 2.4 2.4l-.4 6.2zm.8 24.5l.3-4.1 9.6-5.6.4 5.2-9.3 5.4-1-.9zM41 39.2l.4 5.2-8.1 4.7.4-5.7 7.3-4.2zm-7.1 1.3l.4-6.3h6.4l.2 2.3-7 4zm7.7 6.8l.4 5.2-9.2 5.3.4-5.7 8.4-4.8zM37.5 70l-2.4-2.4 7.6-4.4.1 1.6-5.3 5.2zm5.3-38.3H32.2c-.2 0-.4-.1-.4-.3l-.9-5.7c-.1-.4 0-.7.3-1 .2-.3.6-.4 1-.4H43c.4 0 .7.2 1 .4.2.3.3.6.3 1l-.9 5.7c-.3.1-.4.3-.6.3zm.4 2.4c1.2-.2 2.2-1.1 2.4-2.4l.9-5.2H65c.2 0 .4.2.4.4v8c0 3-2.4 5.4-5.4 5.4h-1.3v-.1c0-1.1-.9-2.1-2.1-2.1h-5c-1.1 0-2.1.9-2.1 2.1v.1h-6l-.3-6.2zm13.1 6.6v3.8c0 1.1-.9 2.1-2.1 2.1s-2.1-.9-2.1-2.1v-3.8h4.2zM45 60.7l-1.2-17.8h5.8v1.6c0 2.5 2.1 4.6 4.6 4.6s4.6-2.1 4.6-4.6v-1.6H60c1.7 0 3.3-.5 4.6-1.5v17.2c0 1.1-.9 2.1-2.1 2.1H45z" id="Briefcase"/></svg>