<svg id="Слой_1" xmlns="http://www.w3.org/2000/svg" viewBox="0 0 14 17"><style>.st0{fill:#fff}</style><path class="st0" d="M13.4 11.6c0 .8-.2 1.5-.5 2.1-.3.6-.7 1.1-1.2 1.5-.6.5-1.3.8-2 1-.7.2-1.6.3-2.7.3H.6V.5h5.7C7.5.5 8.4.5 9 .6c.6.1 1.2.3 1.7.6.6.3 1 .7 1.3 1.2.3.5.4 1.1.4 1.8 0 .8-.2 1.5-.6 2.1-.4.6-.9 1.1-1.6 1.3v.1c1 .2 1.8.6 2.4 1.3.5.6.8 1.5.8 2.6zM8.3 5c0-.3-.1-.5-.2-.8-.2-.2-.4-.4-.7-.6-.2-.1-.5-.1-.9-.2H4.6v3.4h1.9c.3 0 .6-.1.9-.2.3-.2.5-.4.7-.6.1-.3.2-.6.2-1zm1 6.5c0-.5-.1-.9-.3-1.2-.2-.3-.5-.5-.9-.6-.2-.1-.6-.1-1-.2H4.6v4H7c.4 0 .8-.1 1.2-.3.4-.2.6-.4.8-.7.2-.2.3-.6.3-1z" id="Layer_1"/></svg>