<svg xmlns="http://www.w3.org/2000/svg" viewBox="0 0 24 24"><path d="M23.081 11.715c0 5.961-4.871 10.795-10.879 10.795a10.89 10.89 0 0 1-5.259-1.343L.919 23.081l1.963-5.792a10.68 10.68 0 0 1-1.561-5.574C1.321 5.753 6.192.919 12.201.919s10.88 4.834 10.88 10.796zM12.202 2.639c-5.045 0-9.147 4.071-9.147 9.076 0 1.985.647 3.825 1.742 5.322l-1.142 3.37 3.514-1.117a9.15 9.15 0 0 0 5.033 1.501c5.043 0 9.146-4.071 9.146-9.075 0-5.006-4.103-9.077-9.146-9.077zm5.494 11.562c-.067-.111-.245-.177-.511-.309-.267-.132-1.579-.773-1.823-.861-.244-.088-.423-.132-.6.132-.178.265-.689.861-.845 1.038-.155.177-.31.199-.577.066-.267-.132-1.127-.412-2.145-1.313-.792-.702-1.328-1.568-1.484-1.833-.155-.264-.015-.408.117-.54.12-.119.267-.309.4-.463.134-.155.178-.266.267-.443.089-.177.045-.331-.023-.463-.066-.132-.6-1.434-.822-1.965-.221-.529-.444-.441-.6-.441-.155 0-.333-.022-.511-.022a.981.981 0 0 0-.711.331c-.244.267-.933.908-.933 2.209 0 1.302.955 2.561 1.088 2.736.134.177 1.844 2.936 4.556 3.996 2.711 1.059 2.711.706 3.201.661.488-.043 1.577-.64 1.8-1.258.222-.618.222-1.148.156-1.258zm0 0" fill-rule="evenodd" clip-rule="evenodd" fill="#fff"/></svg>