<svg id="&#x421;&#x43B;&#x43E;&#x439;_1" data-name="&#x421;&#x43B;&#x43E;&#x439; 1" xmlns="http://www.w3.org/2000/svg" viewBox="0 0 246.06 56.27">
    <defs>
        <style>
            .cls-1{fill:#b40d8c}.cls-2{fill:#383598}
        </style>
    </defs>
    <title>
        &#x41B;&#x43E;&#x433;&#x43E;_&#x418;&#x43D;&#x442;&#x435;&#x433;&#x440;&#x430;&#x442;&#x43E;&#x440; &#x44D;&#x444; I&#x422;-&#x440;&#x435;&#x448;&#x435;&#x43D;&#x438;&#x439;
    </title>
    <path class="cls-1" d="M242.85 407c-18.55 11.43-36.79 23.55-54.07 37.4l.08.11c13.59-10.07 28.95-19.51 45.14-28.6l9-8.79z" transform="translate(-188.78 -406.98)"/>
    <path class="cls-2" d="M231.66 418.16c-9.09 8.84-21.44 26.86-28.89 41a62.23 62.23 0 0 1 20.19-3.2c.07-11.86 2.6-27.64 10.83-39.52l-.08-.11c-1.37 1-2.66 2.08-3.93 3.19-13.4 11.93-27 28.21-35.94 43.69l.07.1a29.82 29.82 0 0 1 4.81-2.82c7.72-13.56 19.38-29.68 31.44-41 .5-.45 1-.89 1.5-1.31M381.18 452.44h-1.72l-1.21 7.4H380zm48.75 1.9l-.9 5.5h1.6l.07-.47 1.82-2.19c.1-.12.26-.35.35-.5a3.59 3.59 0 0 0-.11.58l-.42 2.58h1.6l.89-5.5h-1.6l-.06.41-1.83 2.25c-.1.12-.26.35-.35.5 0-.18.05-.28.11-.58l.43-2.56zm1-2a1.29 1.29 0 0 0 .35 1 1.64 1.64 0 0 0 1.2.4 2.24 2.24 0 0 0 1.35-.39 1.74 1.74 0 0 0 .63-1h-1.19a.88.88 0 0 1-.18.41.59.59 0 0 1-.49.23.51.51 0 0 1-.43-.23.67.67 0 0 1-.1-.41zm-7.55 2l-.9 5.5h1.6l.08-.47 1.82-2.19c.1-.12.26-.35.35-.5a3.71 3.71 0 0 0-.11.58l-.42 2.58h1.6l.89-5.5h-1.6l-.06.41-1.79 2.25c-.1.12-.26.35-.35.5 0-.18.05-.28.11-.58l.43-2.56zm-6.2 0l-.9 5.5h1.6l.38-2.31H420l-.38 2.31h1.6l.89-5.5h-1.6l-.33 2.06h-1.73l.34-2.06zm-5.15 2.12a1.33 1.33 0 0 1 1.26-1.18.9.9 0 0 1 .93 1 .93.93 0 0 1 0 .17zm3.7.92a5.26 5.26 0 0 0 0-.58 2.5 2.5 0 0 0-.76-2 2.54 2.54 0 0 0-1.73-.57 2.75 2.75 0 0 0-2 .83 3.44 3.44 0 0 0-1 2.34 2.74 2.74 0 0 0 .61 1.75 2.4 2.4 0 0 0 1.93.8 3 3 0 0 0 1.78-.53 2.9 2.9 0 0 0 .93-1.09l-1.39-.32a2.07 2.07 0 0 1-.34.54 1.12 1.12 0 0 1-.85.32.9.9 0 0 1-.85-.43 1.38 1.38 0 0 1-.19-.77 2.62 2.62 0 0 1 0-.29zm-13.45-3l-.9 5.5h7.47l.9-5.5h-1.58l-.72 4.37h-1.37l.72-4.37h-1.58l-.72 4.37h-1.37l.72-4.37zm-5.15 2.12a1.33 1.33 0 0 1 1.27-1.18.9.9 0 0 1 .93 1 .94.94 0 0 1 0 .17zm3.7.92a5.36 5.36 0 0 0 0-.58 2.5 2.5 0 0 0-.76-2 2.54 2.54 0 0 0-1.73-.57 2.75 2.75 0 0 0-2 .83 3.44 3.44 0 0 0-1 2.34 2.74 2.74 0 0 0 .61 1.75 2.4 2.4 0 0 0 1.93.8 3 3 0 0 0 1.78-.53 2.9 2.9 0 0 0 .93-1.09l-1.39-.32a2.08 2.08 0 0 1-.34.54 1.12 1.12 0 0 1-.85.32.9.9 0 0 1-.85-.43 1.38 1.38 0 0 1-.19-.77 2.7 2.7 0 0 1 0-.29zm-8.59-2a.8.8 0 0 1 .59.23 1 1 0 0 1 .25.74 4.9 4.9 0 0 1-.27 1.48c-.19.52-.51 1.09-1.07 1.09a.75.75 0 0 1-.58-.25 1.25 1.25 0 0 1-.24-.75 5.54 5.54 0 0 1 .36-1.74c.25-.55.54-.89 1.01-.89zm-2.37-1l-1.18 7.27h1.6l.4-2.47a1.4 1.4 0 0 0 .45.53 1.6 1.6 0 0 0 1 .28 2.07 2.07 0 0 0 1.83-1 4.59 4.59 0 0 0 .76-2.61 2.15 2.15 0 0 0-.57-1.61 1.7 1.7 0 0 0-1.24-.51 1.85 1.85 0 0 0-1.67 1.07l.14-1zm-1 2h-2.54l-.2 1.29h2.54zm-7.05-3.86l-.23 1.36h1.75l-1 6h1.72l1-6h1.75l.23-1.36zm-9.31 1.9h-1.84l1.28 2.61-2.35 2.89h1.4l1.5-1.94.84 1.94h1.84l-1.44-3 2-2.49h-1.38l-1.18 1.55zm-8.46 2.92h.73a1 1 0 0 1 .53.13.59.59 0 0 1 .21.52.8.8 0 0 1-.28.66.9.9 0 0 1-.7.22h-.74zm-1.05-3.05l-.89 5.5H365a2.35 2.35 0 0 0 1.47-.38 2.15 2.15 0 0 0 .77-1.68 1.3 1.3 0 0 0-.49-1.1 2.09 2.09 0 0 0-1.31-.32h-1.16l.33-2zm5.37 0l-.9 5.5h1.6l.9-5.5zm-11.59 0l-.9 5.5h1.6l.38-2.31h1.73l-.38 2.31h1.6l.89-5.5h-1.6l-.33 2.06h-1.73l.34-2.06zm-4.9 3.15h.89a.9.9 0 0 1 .58.16.6.6 0 0 1 .21.5.89.89 0 0 1-.3.61 1 1 0 0 1-.64.16h-1zm.36-2.24h.84a.69.69 0 0 1 .5.14.49.49 0 0 1 .17.41.78.78 0 0 1-.25.56 1 1 0 0 1-.72.22h-.76zm-1.45-.91l-.9 5.5h2.85a3.46 3.46 0 0 0 1.57-.27 1.62 1.62 0 0 0 .88-1.41 1.15 1.15 0 0 0-.26-.8 1.48 1.48 0 0 0-.68-.44 1.63 1.63 0 0 0 .65-.38 1.3 1.3 0 0 0 .38-.92 1.13 1.13 0 0 0-.43-1 2.36 2.36 0 0 0-1.38-.31zm-6.51 0l-.9 5.5H345l.08-.47 1.82-2.19c.1-.12.26-.35.35-.5a3.68 3.68 0 0 0-.11.58l-.42 2.58h1.6l.89-5.5h-1.6l-.06.41-1.82 2.26c-.1.12-.26.35-.35.5 0-.18.05-.28.11-.58l.43-2.56zm-5.49 0l-.18 1.13h1.62l-.71 4.37h1.6l.71-4.37h1.62l.18-1.13zm-5.31 0l-.89 5.5h1.6l.38-2.32h.4a.9.9 0 0 1 .61.15 1.27 1.27 0 0 1 .28.68c0 .19.05.32.13.66.13.6.25.77.49.83h1.44a3.07 3.07 0 0 1-.27-.57c-.05-.16-.09-.37-.2-.92a3.81 3.81 0 0 0-.19-.77 1.16 1.16 0 0 0-.83-.73 1.11 1.11 0 0 0 .65-.4 3.49 3.49 0 0 0 .45-.77 6.4 6.4 0 0 1 .4-.75 3 3 0 0 1 .53-.59h-1.34c-.45.05-.68.5-.83.81a3.31 3.31 0 0 1-.65 1.11.75.75 0 0 1-.55.19h-.34l.34-2.11zm-5.14 2.12a1.33 1.33 0 0 1 1.26-1.18.9.9 0 0 1 .93 1 .94.94 0 0 1 0 .17zm3.7.92a5.26 5.26 0 0 0 0-.58 2.5 2.5 0 0 0-.76-2 2.54 2.54 0 0 0-1.73-.57 2.75 2.75 0 0 0-2 .83 3.44 3.44 0 0 0-1 2.34 2.74 2.74 0 0 0 .61 1.75 2.4 2.4 0 0 0 1.93.8 3 3 0 0 0 1.78-.53 2.9 2.9 0 0 0 .93-1.09l-1.39-.32a2.07 2.07 0 0 1-.34.54 1.12 1.12 0 0 1-.85.32.9.9 0 0 1-.85-.43 1.38 1.38 0 0 1-.19-.77 2.62 2.62 0 0 1 0-.29zm-10.79 1.37h-.18a.92.92 0 0 1-.47-.13 1.17 1.17 0 0 1-.56-1.08 2.57 2.57 0 0 1 .48-1.56 1.53 1.53 0 0 1 1.26-.57zm1.92-3.33a1.38 1.38 0 0 1 .79.23 1.4 1.4 0 0 1 .4 1.06 2.42 2.42 0 0 1-.64 1.69 1.62 1.62 0 0 1-1.09.37zm-1-3l-.3 1.9a3.75 3.75 0 0 0-1.85.41 3 3 0 0 0-1.51 2.67 2.42 2.42 0 0 0 .78 1.91 2.53 2.53 0 0 0 1.68.51l-.29 1.77h1.6l.29-1.77A3.34 3.34 0 0 0 325 459a3.13 3.13 0 0 0 .91-2.3 2.23 2.23 0 0 0-.89-2 2.7 2.7 0 0 0-1.55-.44l.3-1.9zm-9 6.31H313a.92.92 0 0 1-.47-.13 1.17 1.17 0 0 1-.56-1.08 2.57 2.57 0 0 1 .48-1.56 1.53 1.53 0 0 1 1.26-.57zm1.92-3.33a1.38 1.38 0 0 1 .79.23 1.4 1.4 0 0 1 .4 1.06 2.42 2.42 0 0 1-.64 1.69 1.62 1.62 0 0 1-1.09.37zm-1-3l-.3 1.9a3.75 3.75 0 0 0-1.85.41 3 3 0 0 0-1.51 2.67 2.43 2.43 0 0 0 .78 1.91 2.53 2.53 0 0 0 1.68.51l-.29 1.77h1.6l.29-1.77a3.34 3.34 0 0 0 2.43-.81 3.13 3.13 0 0 0 .91-2.3 2.23 2.23 0 0 0-.89-2 2.7 2.7 0 0 0-1.55-.44l.3-1.9zm-8 3.73a1.47 1.47 0 0 1 .42-.61 1.08 1.08 0 0 1 .76-.27.77.77 0 0 1 .6.24 1 1 0 0 1 .21.69 1.63 1.63 0 0 1 0 .32h-1.64l-.19.91H308a2 2 0 0 1-.46 1.1 1 1 0 0 1-.78.32.86.86 0 0 1-.71-.31 1.21 1.21 0 0 1-.23-.57l-1.39.18a1.68 1.68 0 0 0 .65 1.29 2.7 2.7 0 0 0 1.65.49 2.8 2.8 0 0 0 1.94-.69 3.93 3.93 0 0 0 1.08-2.78 2.28 2.28 0 0 0-.66-1.74 2.4 2.4 0 0 0-1.61-.51 2.79 2.79 0 0 0-1.84.57 2.31 2.31 0 0 0-.85 1.12zm-7-.84a.8.8 0 0 1 .59.23 1 1 0 0 1 .25.74 4.89 4.89 0 0 1-.27 1.48c-.19.52-.51 1.09-1.07 1.09a.75.75 0 0 1-.58-.25 1.26 1.26 0 0 1-.24-.75 5.55 5.55 0 0 1 .36-1.74c.19-.41.48-.75.95-.75zm-2.37-1l-1.18 7.27h1.6l.4-2.47a1.4 1.4 0 0 0 .45.53 1.6 1.6 0 0 0 1 .28 2.07 2.07 0 0 0 1.83-1 4.59 4.59 0 0 0 .76-2.61 2.16 2.16 0 0 0-.57-1.61 1.7 1.7 0 0 0-1.24-.51 1.85 1.85 0 0 0-1.67 1.07l.14-1zm-3.86 1a.74.74 0 0 1 .6.29 1.51 1.51 0 0 1 .21.85 4.64 4.64 0 0 1-.44 1.92 1 1 0 0 1-.85.5.74.74 0 0 1-.63-.3 1.45 1.45 0 0 1-.21-.81 4.78 4.78 0 0 1 .43-1.89 1 1 0 0 1 .88-.54zm0-1.08a2.59 2.59 0 0 0-2 .84 3.41 3.41 0 0 0-.88 2.35 2.54 2.54 0 0 0 .59 1.75 2.33 2.33 0 0 0 1.83.78 2.85 2.85 0 0 0 2.21-1 3.48 3.48 0 0 0 .76-2.19 2.53 2.53 0 0 0-.73-1.88 2.38 2.38 0 0 0-1.83-.62zm-7.67.11l-.18 1.13h1.62l-.71 4.37h1.6l.71-4.37h1.62l.18-1.13zm-2.75 2.89a2.79 2.79 0 0 1-.31 1 1.26 1.26 0 0 1-1.05.7.64.64 0 0 1-.66-.67.86.86 0 0 1 .41-.73 2.1 2.1 0 0 1 1-.26 5.84 5.84 0 0 1 .56-.02zm-1.8-1.2a1.33 1.33 0 0 1 .42-.52 1.14 1.14 0 0 1 .68-.2 1.08 1.08 0 0 1 .62.15.49.49 0 0 1 .21.46 1.6 1.6 0 0 1-.06.45h-.32a4.87 4.87 0 0 0-2.64.58 1.71 1.71 0 0 0-.4 2.46 1.51 1.51 0 0 0 1.24.55 1.86 1.86 0 0 0 1.27-.45 3.3 3.3 0 0 0 .51-.6 3.48 3.48 0 0 0 0 .95h1.53a9.45 9.45 0 0 1 .26-2.38l.13-.75a4.67 4.67 0 0 0 .09-.75 1.52 1.52 0 0 0-.65-1.35 2.77 2.77 0 0 0-1.59-.37 3.09 3.09 0 0 0-1.69.44 1.76 1.76 0 0 0-.81 1zm-4.77-.68a.8.8 0 0 1 .59.23 1 1 0 0 1 .25.74 4.9 4.9 0 0 1-.27 1.48c-.19.52-.51 1.09-1.07 1.09a.75.75 0 0 1-.58-.25 1.26 1.26 0 0 1-.24-.75 5.55 5.55 0 0 1 .36-1.74c.2-.45.49-.79.96-.79zm-2.37-1l-1.18 7.27h1.6l.4-2.47a1.4 1.4 0 0 0 .45.53 1.6 1.6 0 0 0 1 .28 2.07 2.07 0 0 0 1.83-1 4.59 4.59 0 0 0 .76-2.61 2.15 2.15 0 0 0-.57-1.61 1.7 1.7 0 0 0-1.24-.51 1.85 1.85 0 0 0-1.67 1.07l.14-1zm-4.55 0l-.9 5.5h1.6l.71-4.37h2.42l.19-1.13zm-5.11 2.12a1.33 1.33 0 0 1 1.26-1.18.9.9 0 0 1 .93 1 .93.93 0 0 1 0 .17zm3.7.92a5.26 5.26 0 0 0 0-.58 2.5 2.5 0 0 0-.76-2 2.54 2.54 0 0 0-1.73-.57 2.75 2.75 0 0 0-2 .83 3.44 3.44 0 0 0-1 2.34 2.74 2.74 0 0 0 .61 1.75 2.4 2.4 0 0 0 1.93.8 3 3 0 0 0 1.78-.53 2.9 2.9 0 0 0 .93-1.09l-1.39-.32a2.07 2.07 0 0 1-.34.54 1.12 1.12 0 0 1-.85.32.9.9 0 0 1-.85-.43 1.38 1.38 0 0 1-.19-.77 2.63 2.63 0 0 1 0-.29zm-10.18-3l-.18 1.13h1.62l-.71 4.37h1.6l.71-4.37h1.6l.18-1.13zm-5.62 0l-.9 5.5h1.6l.38-2.31h1.73l-.37 2.31h1.6l.89-5.5h-1.6l-.33 2.06H253l.34-2.06zm-7-1.9l-1.21 7.4h1.72l.1-.59 2.8-3.54a5.1 5.1 0 0 0 .35-.56 6.39 6.39 0 0 0-.14.68l-.65 4h1.72l1.21-7.4H249l-.1.53-2.8 3.53a5.41 5.41 0 0 0-.36.57c.05-.17.13-.51.16-.68l.64-3.95zM353.57 422.57l-3 18h5.25l.25-1.55 6-7.16a14.92 14.92 0 0 0 1.16-1.62c-.15.64-.26 1.26-.35 1.9l-1.37 8.43h5.25l2.93-18h-5.25l-.21 1.34-6 7.3c-.41.53-.8 1.06-1.16 1.62.15-.63.24-1.27.35-1.91l1.41-8.36zm3.42-6.38a4.25 4.25 0 0 0 1.16 3.28 5.56 5.56 0 0 0 3.95 1.3 8.56 8.56 0 0 0 3.11-.53 5.58 5.58 0 0 0 3.41-4.05h-3.91a2.28 2.28 0 0 1-2.22 2.08 1.81 1.81 0 0 1-1.73-2.08zm-26.16 15.94h2.4c1.38 0 2.48.58 2.43 2.12a3 3 0 0 1-.21 1.19 2.92 2.92 0 0 1-3 1.66H330zm-3.7-9.56l-2.93 18h9.45c2.4 0 4.66-.5 6.1-2.58a7.45 7.45 0 0 0 1.27-4.16 4.32 4.32 0 0 0-1.62-3.6 7 7 0 0 0-4.3-1.06h-3.81l1.09-6.6zm17.67 0l-3 18h5.25l3-18zm-32.92 10.3h2.93c1.41 0 2.59.62 2.61 2.15 0 1.74-1.54 2.59-3.1 2.54h-3.22zm1.2-7.33h2.75c1.19-.05 2.22.49 2.22 1.8 0 1.8-1.58 2.58-3.17 2.54h-2.5zm-4.76-3l-3 18h9.38c2.39 0 5.09-.21 6.76-2.16a5.21 5.21 0 0 0 1.28-3.34 3.82 3.82 0 0 0-.85-2.61 4.81 4.81 0 0 0-2.22-1.45 4.85 4.85 0 0 0 2.74-2 4.21 4.21 0 0 0 .64-2.26 3.78 3.78 0 0 0-1.41-3.17 7.6 7.6 0 0 0-4.55-1zm-12.08 3.24a2.54 2.54 0 0 1 2.46 1.53c.6 1.47.21 3.38-.13 4.9a12.2 12.2 0 0 1-1 2.85 3.6 3.6 0 0 1-3 2.29 2.51 2.51 0 0 1-1.9-.81 4 4 0 0 1-.78-2.47 14.53 14.53 0 0 1 .35-2.79 14.69 14.69 0 0 1 .85-2.89c.58-1.33 1.54-2.56 3.14-2.58zm-7.79-3.24l-3.88 23.77h5.25l1.3-8.08h.07a4.69 4.69 0 0 0 1.48 1.73 5.36 5.36 0 0 0 3.14.92 6.76 6.76 0 0 0 4.45-1.49 12.39 12.39 0 0 0 3.84-7.38 11.21 11.21 0 0 0-.49-6.59 5.76 5.76 0 0 0-5.22-3.22 6 6 0 0 0-2.3.45 6.1 6.1 0 0 0-3.2 3h-.07l.46-3.14zm-15.93 6.95a5 5 0 0 1 1.33-2.65 4 4 0 0 1 2.83-1.19 3.32 3.32 0 0 1 1.63.36 3.17 3.17 0 0 1 1.44 2.92 2.88 2.88 0 0 1 0 .56zm12.17 3a17.35 17.35 0 0 0 .11-1.9 9.87 9.87 0 0 0-.88-4.44 6.83 6.83 0 0 0-1.62-2.08 8.55 8.55 0 0 0-5.68-1.87 9.26 9.26 0 0 0-6.73 2.71 11.13 11.13 0 0 0-3.21 7.65 8.92 8.92 0 0 0 2 5.71 8 8 0 0 0 6.32 2.63 10.18 10.18 0 0 0 5.85-1.73 9.53 9.53 0 0 0 3.07-3.56l-4.58-1.06a6.23 6.23 0 0 1-1.13 1.76 3.76 3.76 0 0 1-2.79 1.06 3 3 0 0 1-2.79-1.41 4.5 4.5 0 0 1-.63-2.5 8.74 8.74 0 0 1 0-1zm-37.12-16.15l-4 24.19h5.64l3.21-19.75h7.79L257 440.55h5.64l4-24.19z" transform="translate(-188.78 -406.98)"/>
    <path class="cls-1" d="M417.7 416.36l-.7 4.44h5.75l-3.24 19.75h5.64l3.24-19.75h5.75l.74-4.44zm-21.24 0l-4 24.19h5.64l.32-1.94 9.2-11.57a11.18 11.18 0 0 0 1.16-1.83 20.25 20.25 0 0 0-.46 2.22l-2.15 13.12h5.64l4-24.19h-5.64l-.32 1.73-9.2 11.53a14.65 14.65 0 0 0-1.2 1.87 19.74 19.74 0 0 0 .53-2.22l2.12-12.91zM378 430.18h4.58c1.7 0 2.89.7 2.89 2.57a3.62 3.62 0 0 1-1 2.47 4.4 4.4 0 0 1-3.24 1H377zm14-13.82h-17.39l-4 24.19h11.57a9 9 0 0 0 6.24-2 8.47 8.47 0 0 0 2.35-4.07 9.64 9.64 0 0 0 .33-2.53 6.07 6.07 0 0 0-1.59-4.41 7.44 7.44 0 0 0-5.33-1.62h-5.5l.85-5.08h11.71z" transform="translate(-188.78 -406.98)"/>
</svg>
